<?xml version="1.0" standalone="no"?>
<!DOCTYPE svg PUBLIC "-//W3C//DTD SVG 1.1//EN" "http://www.w3.org/Graphics/SVG/1.1/DTD/svg11.dtd" >
<svg xmlns="http://www.w3.org/2000/svg">
<metadata>
This is a custom SVG webfont generated by Font Squirrel.
</metadata>
<defs>
<font id="webfontReWIOzK5" horiz-adv-x="550" >
<font-face units-per-em="1000" ascent="800" descent="-200" />
<missing-glyph horiz-adv-x="285" />
<glyph unicode=" "  horiz-adv-x="285" />
<glyph unicode="&#x09;" horiz-adv-x="285" />
<glyph unicode="&#xa0;" horiz-adv-x="285" />
<glyph unicode="!" horiz-adv-x="315" d="M307 625q-13 0 -20 -13q-23 -41 -45.5 -94t-44.5 -113l-45 -125l-46 -131q-1 -2 -1.5 -5t-0.5 -10t8 -13t18 -6q16 0 22 16l48 131l44 126q22 59 43.5 110.5t43.5 89.5q3 6 3 12q0 11 -8.5 18t-18.5 7zM72 -22q10 0 23.5 3.5t30.5 12.5q17 0 17 14t-6.5 24.5t-15 18 t-18 11.5t-15.5 4q-21 0 -34.5 -18.5t-13.5 -38.5q0 -13 7.5 -22t24.5 -9z" />
<glyph unicode="&#x22;" horiz-adv-x="260" d="M175 632q-14 0 -17 -14t-8 -32.5t-11 -36.5t-12.5 -34.5t-11.5 -27.5q-2 -4 -2 -7q0 -7 5.5 -11.5t12.5 -4.5q10 0 14 9q12 24 20.5 48t14.5 44.5t9 34t3 16.5q0 8 -5.5 12t-11.5 4zM280 632q-14 0 -17 -14t-8 -32.5t-11 -36.5t-12.5 -34.5t-11.5 -27.5q-2 -4 -2 -7 q0 -7 5.5 -11.5t12.5 -4.5q10 0 14 9q12 24 20.5 48t14.5 44.5t9 34t3 16.5q0 8 -5.5 12t-11.5 4z" />
<glyph unicode="#" horiz-adv-x="556" d="M151 312l-59 -8q-29 -4 -60 -9q-16 -3 -16 -16q0 -8 5.5 -16t16.5 -8q24 4 47.5 7.5t46.5 6.5l-55 -110q-2 -3 -2 -13q0 -5 6.5 -10.5t14.5 -5.5q11 0 17 11l33 65l32 69l58 8q30 4 61 4q-21 -61 -26.5 -85t-5.5 -28q0 -6 6.5 -10.5t14.5 -4.5q14 0 18 14q8 29 17 58 t20 59q35 0 73 2.5t80 2.5q10 0 15 6t5 14t-5 14t-15 6q-38 0 -72.5 -1.5t-66.5 -1.5q22 55 44 102q31 5 63 12l71 14q8 2 11.5 7t3.5 11q0 8 -5.5 15t-14.5 7q-3 0 -17 -2.5t-31 -6.5t-33.5 -7.5t-24.5 -4.5q5 10 14 25l16 28l12 24q6 10 6 13q0 9 -7 15t-15 6 q-10 0 -15 -9q-16 -25 -31 -52.5t-29 -57.5l-61 -9q-30 -5 -63 -5q4 14 9 30t8 31l6 26q3 12 3 18q0 11 -8 16.5t-16 5.5q-13 0 -16 -16q-8 -50 -29 -114q-29 0 -61.5 0.5t-70.5 0.5q-10 0 -15.5 -6.5t-5.5 -14.5t4.5 -13.5t14.5 -5.5q34 0 64 -0.5t56 -0.5q-9 -25 -20 -50z M352 426q-22 -48 -41 -97q-30 0 -58 -4t-56 -7q11 25 20.5 49t17.5 48q32 0 60.5 3t56.5 8z" />
<glyph unicode="$" horiz-adv-x="668" d="M477 316l60 127q28 62 51 119q38 -6 53 -22t15 -46q0 -16 -10.5 -22.5t-39.5 -12.5q-11 -2 -16.5 -10t-5.5 -17q0 -10 5 -16.5t16 -6.5q43 0 73 24.5t30 69.5q0 43 -28 70.5t-73 35.5q3 8 7 16.5t4 13.5q0 11 -8.5 17.5t-18.5 6.5q-6 0 -12 -3.5t-9 -11.5l-6 -16l-8 -18 q-54 0 -105.5 -16t-91 -43t-64 -61.5t-24.5 -70.5q0 -55 30.5 -86.5t102.5 -55.5l-70 -139l-71 -135q-95 0 -139.5 22t-44.5 46q0 15 11 24.5t26 15t31 7.5t27 2q24 0 48.5 -4.5t40.5 -9.5q5 -2 9 -3t10 -1q9 0 15.5 8t6.5 19q0 17 -24 25q-12 4 -27 7t-29 5t-26.5 3 t-19.5 1q-48 0 -80.5 -9t-53 -23t-29.5 -31t-9 -34q0 -22 14 -44t42.5 -39.5t71 -28.5t100.5 -11l-18 -34l-18 -33q-3 -6 -3 -12q0 -11 8.5 -18t18.5 -7q13 0 20 13l24 46q12 23 26 47q51 0 111.5 11t112 34t86 59t34.5 87q0 37 -12.5 65t-34 48t-50.5 33.5t-62 22.5z M537 565q-23 -55 -51 -115l-58 -121q-41 9 -62 21.5t-30 24.5t-9.5 23t-0.5 17q0 28 19.5 55t50.5 48t68 34t73 13zM319 6l67 130l67 132q65 -17 98 -41.5t33 -69.5q0 -31 -23.5 -57t-61.5 -45.5t-85.5 -32t-94.5 -16.5z" />
<glyph unicode="%" horiz-adv-x="590" d="M319 550q11 0 16.5 7.5t5.5 16.5q0 12 -9 19.5t-26 7.5q-48 0 -90 -21.5t-74 -54t-50.5 -70t-18.5 -70.5q0 -27 10 -42t24 -23t30 -10t28 -2q36 0 69 14.5t58.5 37t40.5 49.5t15 53q0 21 -9.5 35.5t-22 23t-24 12t-15.5 3.5q-9 0 -13.5 -6.5t-4.5 -15.5t5 -17.5t16 -11.5 q7 4 12 4q9 0 9 -12t-9.5 -32.5t-27 -40t-40.5 -33.5t-50 -14q-30 0 -38.5 12.5t-8.5 26.5q0 21 13 48t35 51t52 40.5t64 16.5q7 0 13.5 -1t14.5 -1zM108 -10q12 0 22 13l82 105l72 96l68 89l69 89l76 96l89 106q6 7 6 16q0 11 -7.5 18t-18.5 7q-9 0 -18 -9l-130 -156 l-106 -136l-102 -136l-117 -151q-8 -9 -9.5 -13.5t-1.5 -9.5q0 -11 8 -17.5t18 -6.5zM545 258q11 0 16.5 7.5t5.5 16.5q0 12 -9 19.5t-26 7.5q-48 0 -90 -21.5t-74 -54t-50.5 -70t-18.5 -70.5q0 -27 10 -42t24 -23t30 -10t28 -2q36 0 69 14.5t58.5 37t40.5 49.5t15 53 q0 21 -9.5 35.5t-22 23t-24 12t-15.5 3.5q-9 0 -13.5 -6.5t-4.5 -15.5t5 -17.5t16 -11.5q7 4 12 4q9 0 9 -12t-9.5 -32.5t-27 -40t-40.5 -33.5t-50 -14q-30 0 -38.5 12.5t-8.5 26.5q0 21 13 48t35 51t52 40.5t64 16.5q7 0 13.5 -1t14.5 -1z" />
<glyph unicode="&#x26;" horiz-adv-x="580" d="M415 147l-48 55q-22 26 -39 48q-7 10 -18 10t-19.5 -7.5t-8.5 -18.5q0 -7 6 -14q18 -23 42 -50l49 -57q-31 -25 -61.5 -41t-57.5 -25.5t-50 -13t-38 -3.5q-51 0 -78 26.5t-27 64.5q0 47 27.5 83t62 61.5t64.5 40t36 18.5q17 14 17 26q0 7 -6 10q-33 16 -53.5 36t-20.5 46 q0 30 20.5 55.5t53 43.5t71.5 28t77 10q27 0 41 -6.5t14 -25.5q0 -17 -12.5 -33.5t-31.5 -30.5t-40 -24t-37 -15q-9 -2 -12.5 -8.5t-3.5 -13.5q0 -10 6 -19t17 -9q7 0 33.5 11t56 30.5t52.5 46.5t23 59q0 30 -12 48.5t-29 28.5t-37 13t-35 3q-58 0 -108 -20t-86.5 -49.5 t-57.5 -63.5t-21 -63q0 -17 5.5 -30.5t14.5 -24.5t20 -20t21 -15q-34 -15 -67.5 -40.5t-60.5 -57.5t-43.5 -67.5t-16.5 -68.5q0 -30 12 -55.5t33.5 -44t51.5 -29t66 -10.5q42 0 80.5 13t71 30t55.5 34l34 25l53 -51q27 -25 51 -45q7 -6 15 -6q11 0 18.5 8t7.5 18t-9 18 q-23 18 -48 43l-51 50q12 12 24 28l24 30q11 14 18 26.5t7 18.5q0 11 -8 18t-18 7q-14 0 -21 -13q-25 -43 -61 -80z" />
<glyph unicode="'" horiz-adv-x="190" d="M198 632q-14 0 -17 -14t-8 -32.5t-11 -36.5t-12.5 -34.5t-11.5 -27.5q-2 -4 -2 -7q0 -7 5.5 -11.5t12.5 -4.5q10 0 14 9q7 15 15.5 36.5t15.5 42.5t11.5 38.5t4.5 25.5t-5.5 12t-11.5 4z" />
<glyph unicode="(" horiz-adv-x="235" d="M178 655q-12 0 -19 -11q-33 -50 -58 -95t-42 -90.5t-25.5 -94.5t-8.5 -106q0 -45 6.5 -88.5t17 -82t23.5 -71.5t26 -58q7 -13 20 -13q10 0 18.5 7t8.5 18q0 6 -3 12q-12 21 -23.5 51t-21.5 65.5t-16 75t-6 80.5q0 102 34.5 189.5t91.5 172.5q4 7 4 14q0 11 -8 18t-19 7z " />
<glyph unicode=")" horiz-adv-x="235" d="M99 -59q12 0 19 11q72 108 113 214t41 203q0 79 -21 147.5t-47 116.5q-7 13 -20 13q-10 0 -18.5 -7t-8.5 -18q0 -6 3 -12q23 -44 42 -106.5t19 -133.5q0 -73 -33.5 -172t-111.5 -217q-4 -7 -4 -14q0 -11 8 -18t19 -7z" />
<glyph unicode="*" horiz-adv-x="290" d="M100 509l-31 -19l-35 -23q-8 -5 -8 -15q0 -8 6 -15t14 -7q5 0 10 3l34 21l29 19q0 -16 -2 -33.5t-2 -38.5q0 -10 6.5 -15.5t14.5 -5.5t13.5 4.5t5.5 14.5q0 23 3 43.5t3 39.5l76 -35q6 -2 8 -2q8 0 13.5 6.5t5.5 14.5q0 11 -11 17l-37 17q-16 8 -32 15l32 21l35 22 q8 5 8 15q0 8 -6 15t-14 7q-6 0 -10 -3l-33 -21l-31 -20q0 14 2.5 28t2.5 30q0 10 -6.5 15.5t-14.5 5.5t-13.5 -4.5t-5.5 -14.5q0 -19 -2.5 -35.5t-2.5 -33.5q-15 8 -31 15l-30 13q-11 5 -14 5q-8 0 -13.5 -6.5t-5.5 -14.5q0 -13 11 -17q16 -8 30.5 -14.5t27.5 -13.5z" />
<glyph unicode="+" horiz-adv-x="370" d="M305 280q-26 0 -47.5 -2t-41.5 -2l10 55l5 35l3 20q1 7 1 9q0 12 -8 18t-18 6q-8 0 -15 -4.5t-9 -15.5q-6 -36 -10.5 -66t-9.5 -59q-22 0 -45 -2t-50 -2q-12 0 -18.5 -7.5t-6.5 -17.5t6.5 -17.5t18.5 -7.5q25 0 45.5 1.5t40.5 1.5q-4 -25 -10 -54.5t-6 -48.5q0 -12 8 -18 t18 -6q8 0 15 4.5t9 15.5l9 58l8 52q23 0 46.5 2t51.5 2q13 0 19 7.5t6 17.5t-6 17.5t-19 7.5z" />
<glyph unicode="," horiz-adv-x="140" d="M108 54q-11 0 -18 -9q-11 -15 -22 -33l-20 -33l-20 -28t-15 -14q-14 -4 -14 -18q0 -10 7.5 -19t17.5 -9q5 0 8.5 0.5t9.5 4.5q14 9 26 23.5t22.5 31.5t20 34t19.5 29q5 6 5 15q0 11 -8 18t-19 7z" />
<glyph unicode="-" horiz-adv-x="350" d="M45 255q0 -10 6.5 -17.5t18.5 -7.5h210q12 0 18.5 7.5t6.5 17.5t-6.5 17.5t-18.5 7.5h-210q-12 0 -18.5 -7.5t-6.5 -17.5z" />
<glyph unicode="." horiz-adv-x="175" d="M150 12q0 10 -7 17q1 2 1.5 2.5t1.5 2.5q-13 18 -25 25.5t-23 7.5q-20 0 -33.5 -18.5t-13.5 -37.5q0 -14 8 -23.5t25 -9.5q26 0 46 11.5t20 22.5z" />
<glyph unicode="/" horiz-adv-x="290" d="M17 -54q6 0 12.5 4t11.5 17l73 179l70 160l71 144l71 137q9 16 9 23q0 11 -8 18t-18 7q-14 0 -21 -13l-74 -144l-73 -148l-71 -157.5t-70 -172.5q-3 -8 -6.5 -15t-3.5 -15q0 -11 8.5 -17.5t18.5 -6.5z" />
<glyph unicode="0" horiz-adv-x="470" d="M414 605q0 8 -4.5 15.5t-15.5 9.5q-12 2 -23 3t-22 1q-53 0 -99 -23t-84 -61t-68 -86.5t-50.5 -100.5t-31.5 -102.5t-11 -91.5q0 -42 8 -78t26 -63t47.5 -42.5t73.5 -15.5q65 0 117 41t88.5 102t56 131t19.5 129q0 51 -13.5 84.5t-33 53t-41.5 27t-38 7.5q-12 0 -18 -8 t-6 -18q0 -8 4.5 -15.5t15.5 -8.5q42 -4 61 -37.5t19 -85.5q0 -64 -20 -127t-52 -113.5t-72 -81.5t-79 -31q-35 0 -56.5 16.5t-34 41t-17 53.5t-4.5 53q0 37 10.5 81t29.5 88.5t45.5 86t59 74t70 52t77.5 19.5q9 0 20 -2t23 -2q11 0 17 8t6 17z" />
<glyph unicode="1" horiz-adv-x="300" d="M133 440q33 0 63.5 16t56.5 33q-27 -66 -51 -133l-44 -129l-38 -116q-17 -54 -33 -94l-5 -11q-2 -7 -2 -13q0 -11 8.5 -16.5t18.5 -5.5q6 0 12 3.5t9 11.5q23 59 47 134l51 155q28 81 60 164t71 160q-3 14 -12 20t-17 6q-9 0 -18 -7.5t-19 -19.5l-22 -27q-12 -15 -27 -29 q-22 -21 -49.5 -36.5t-65.5 -15.5q-11 0 -16.5 -6.5t-5.5 -15.5q0 -10 7 -19t21 -9z" />
<glyph unicode="2" horiz-adv-x="585" d="M55 32q18 0 33 -4q-20 -13 -31.5 -17.5t-24.5 -4.5q-19 0 -19 10q0 8 12 12t30 4zM23 -49q20 0 39.5 7t36 16t29.5 18t21 14l77 -32q40 -17 85 -17q27 0 56 2.5t57 10t53 20.5t44 34q9 9 11.5 14t2.5 9q0 11 -8 18.5t-19 7.5t-18 -8q-30 -34 -79 -46t-100 -12 q-26 0 -54 10t-58 23q47 34 93 71t78 65l72 65q37 34 67 72t49 81t19 91q0 30 -11 58t-32 49.5t-51 34t-67 12.5q-46 0 -80 -13.5t-58 -32t-38 -39t-19 -34.5q-4 -11 -4 -20q0 -10 7 -18t17 -8q15 0 22 16q6 14 17 31t29.5 32t44.5 25.5t62 10.5q57 0 84 -30.5t27 -73.5 q0 -35 -15 -69t-39.5 -66.5t-55.5 -63t-64 -58.5l-47 -40l-56 -43l-57 -43l-54 -40q-24 8 -50 13.5t-55 5.5q-35 0 -55.5 -20.5t-20.5 -45.5t16.5 -44.5t48.5 -19.5z" />
<glyph unicode="3" horiz-adv-x="530" d="M471 495q0 -12 -3.5 -29.5t-12.5 -36.5t-25.5 -36.5t-42.5 -29.5q-24 14 -49 18t-55 4q-23 0 -38.5 -12.5t-15.5 -31.5q0 -17 16 -31.5t45 -14.5q19 0 41.5 2.5t46.5 10.5q14 -13 23 -37t9 -53q0 -42 -15.5 -78t-44 -63t-68 -42t-87.5 -15q-21 0 -42.5 8.5t-38.5 22.5 t-28 30.5t-11 33.5v17q0 11 -7.5 17t-16.5 6q-10 0 -18 -7t-8 -25q0 -34 15 -62t39 -48.5t54.5 -31.5t61.5 -11q66 0 116 19t83 52.5t49.5 78.5t16.5 97q0 43 -13 72.5t-20 38.5q32 19 50.5 43t28.5 47.5t12.5 44t2.5 32.5q0 29 -10.5 55t-29.5 46t-45.5 32t-57.5 12 q-38 0 -68 -10t-52.5 -25.5t-37 -34t-22.5 -34.5q-3 -6 -3 -12q0 -11 8 -17.5t18 -6.5q14 0 21 14q6 11 16.5 24t27 24.5t39.5 19.5t53 8q42 0 67.5 -28t25.5 -67z" />
<glyph unicode="4" horiz-adv-x="540" d="M40 135q21 0 43.5 8t38.5 19q44 -10 99 -27t115 -29q-6 -17 -11 -36.5t-8.5 -37.5t-6 -34t-2.5 -26q0 -9 8 -15.5t18 -6.5q8 0 15.5 4.5t8.5 15.5q3 28 11 63.5t18 64.5q17 -2 33 -3.5t33 -1.5q18 0 34.5 2t26.5 4q17 4 23 12t6 17q0 10 -6 16t-14 6q-9 0 -18 -3 q-17 -5 -48 -5q-14 0 -28 1.5t-28 3.5q16 57 37 112.5t42 104.5l40 90l31 66q5 11 6 14.5t1 5.5q0 11 -8 18t-18 7q-13 0 -22 -15q-5 -9 -21.5 -41t-39 -84t-48.5 -120t-50 -149q-46 10 -92.5 23.5t-88.5 24.5q25 25 52.5 62t54 78t50 84t42 80t29 66t10.5 42q0 11 -7.5 17 t-17.5 6q-8 0 -14.5 -4t-9.5 -13q-7 -22 -22.5 -55t-35.5 -71.5t-44 -79t-49 -78t-49.5 -69.5t-45.5 -53q-12 2 -24.5 3t-30.5 1q-29 0 -45.5 -13.5t-16.5 -38.5q0 -14 10.5 -23.5t33.5 -9.5z" />
<glyph unicode="5" horiz-adv-x="540" d="M139 344q11 0 28 11t32 38q57 17 103 17q66 0 107.5 -35t41.5 -111q0 -42 -17.5 -87t-52.5 -82t-86.5 -61t-119.5 -24q-48 0 -80 19t-40 43q-4 11 -11.5 16.5t-15.5 5.5q-9 0 -16 -6.5t-7 -19.5q0 -22 15 -41.5t39 -34.5t54.5 -23.5t61.5 -8.5q49 0 106.5 18t106.5 55.5 t81.5 96t32.5 139.5q0 49 -16.5 85.5t-45 60t-66 35t-78.5 11.5q-37 0 -69 -7q6 16 11 36l11 40l9 35q4 16 6 23q12 0 30.5 -0.5t39.5 -1.5h46q23 -1 46 -1q34 0 64.5 1.5t48.5 3.5q11 2 16 9t5 16t-6.5 17t-17.5 8q-9 0 -22.5 -1t-28.5 -1.5t-29 -1.5t-23 -1q-41 0 -83.5 1 t-71.5 1q-19 0 -33 -1.5t-18 -9.5q-6 -12 -13 -35l-16 -50l-16 -55l-16 -50q-20 -8 -37 -19.5t-17 -37.5q0 -14 7 -24.5t20 -10.5z" />
<glyph unicode="6" horiz-adv-x="480" d="M414 604q0 10 -6 18t-17 8q-41 0 -85.5 -20t-87 -54t-81 -79.5t-67 -96.5t-45.5 -105t-17 -105q0 -42 11.5 -79.5t34.5 -65.5t56.5 -44t77.5 -16q59 0 109.5 22t87 60.5t57.5 91t21 112.5q0 48 -14 81.5t-36.5 54.5t-51.5 30t-59 9q-50 0 -96 -23.5t-76 -68.5 q-6 -10 -7.5 -14.5t-1.5 -7.5q0 -11 8.5 -18.5t18.5 -7.5q5 0 10.5 3t12.5 14q26 38 59.5 55.5t71.5 17.5q30 0 51 -10t34 -27t19 -40t6 -50q0 -50 -16 -92.5t-45.5 -74t-70.5 -49.5t-92 -18q-30 0 -54 11.5t-41.5 31.5t-26.5 48.5t-9 62.5q0 28 10 67t30 81.5t49 85.5 t66.5 79.5t83 62.5t98.5 35q11 2 15.5 9t4.5 15z" />
<glyph unicode="7" horiz-adv-x="404" d="M48 518q8 0 14.5 6t6.5 19q0 7 0.5 15t2 15t5 12t8.5 5h288q14 0 14 -17q0 -15 -10 -40t-26.5 -55t-37.5 -62.5t-44 -61.5q-29 -38 -54.5 -81.5t-46.5 -88t-37.5 -87t-28.5 -77.5q-2 -8 -4 -14t-2 -13q0 -9 8 -15.5t16 -6.5q18 0 23 15l29 80q14 39 32 80.5t43.5 85.5 t63.5 94q63 84 95.5 153.5t32.5 111.5q0 49 -42 49h-312q-21 0 -33.5 -10t-19.5 -24t-9 -29t-2 -26q0 -17 8.5 -25t18.5 -8z" />
<glyph unicode="8" horiz-adv-x="440" d="M301 111q0 30 -9.5 56t-21.5 46.5t-23 34t-14 18.5l31 22l31 22q62 45 101.5 94t59.5 109q3 9 3.5 12t0.5 5q0 11 -8 18t-19 7q-16 0 -22 -17q-19 -59 -53.5 -102t-92.5 -86l-31 -22l-31 -23l-37 47q-17 23 -30.5 44t-21.5 41t-8 40q0 27 15 48t40.5 35t60.5 21t74 7 q38 0 68 -5t41 -11q6 -3 11 -3q10 0 16.5 8.5t6.5 18.5q0 15 -14 22q-18 9 -54 14.5t-79 5.5q-64 0 -109.5 -16t-75 -40t-43 -52.5t-13.5 -54.5q0 -29 10.5 -55.5t26.5 -51.5t36 -48l39 -45q-35 -27 -60.5 -51t-42 -48t-24.5 -50.5t-8 -59.5q0 -45 33.5 -73t91.5 -28 q29 0 55.5 10.5t47 29.5t33 46t12.5 60zM79 73q0 11 3 25.5t15 34.5t35 45.5t63 58.5q21 -26 32.5 -46t17 -35t6 -26t0.5 -19q0 -48 -29 -72t-69 -24q-32 0 -53 15t-21 43z" />
<glyph unicode="9" horiz-adv-x="464" d="M308 291q-11 0 -19 -11q-17 -21 -41.5 -34t-54.5 -13q-55 0 -82.5 37t-27.5 98q0 48 14 87.5t41.5 68.5t67.5 45t91 16q56 0 87 -35.5t31 -96.5q0 -75 -37 -150t-97 -140t-134.5 -115t-149.5 -74q-17 -6 -17 -22q0 -11 7 -19t18 -8q5 0 10.5 2t13.5 4q87 29 166 86 t138.5 128.5t95 151t35.5 154.5q0 39 -10.5 72.5t-31.5 58.5t-52 39t-73 14q-60 0 -109 -20.5t-83.5 -56.5t-53 -85t-18.5 -106q0 -36 9.5 -69.5t29 -59t49.5 -40.5t71 -15q42 0 77.5 17t55.5 46q9 12 9 19q0 11 -8 18.5t-18 7.5z" />
<glyph unicode=":" horiz-adv-x="175" d="M37 -22q10 0 23.5 3.5t30.5 12.5q17 0 17 14t-6.5 24.5t-15 18t-18 11.5t-15.5 4q-21 0 -34.5 -18.5t-13.5 -38.5q0 -13 7.5 -22t24.5 -9zM97 222q10 0 23.5 3.5t30.5 12.5q17 0 17 14t-6.5 24.5t-15 18t-18 11.5t-15.5 4q-21 0 -34.5 -18.5t-13.5 -38.5q0 -13 7.5 -22 t24.5 -9z" />
<glyph unicode=";" horiz-adv-x="180" d="M99 222q10 0 23.5 3.5t30.5 12.5q17 0 17 14t-6.5 24.5t-15 18t-18 11.5t-15.5 4q-21 0 -34.5 -18.5t-13.5 -38.5q0 -13 7.5 -22t24.5 -9zM108 54q-11 0 -18 -9q-11 -15 -22 -33l-20 -33l-20 -28t-15 -14q-14 -4 -14 -18q0 -10 7.5 -19t17.5 -9q5 0 8.5 0.5t9.5 4.5 q14 9 26 23.5t22.5 31.5t20 34t19.5 29q5 6 5 15q0 11 -8 18t-19 7z" />
<glyph unicode="&#x3c;" horiz-adv-x="375" d="M349 454q-6 0 -12 -3l-51 -23l-67 -29q-35 -16 -70.5 -34t-64 -36.5t-46.5 -36.5t-18 -33q0 -29 26.5 -58t64 -56.5t77.5 -53t67 -46.5q6 -5 15 -5q11 0 18.5 8t7.5 18q0 12 -11 19l-65 41q-36 23 -69 46.5t-55.5 44.5t-22.5 34q0 9 15.5 21t40.5 26.5t57 29.5l64 30 l62 28l51 23q13 6 13 19q0 9 -8 17.5t-19 8.5z" />
<glyph unicode="=" horiz-adv-x="370" d="M53 318q0 -10 6.5 -17.5t18.5 -7.5h241q12 0 18.5 7.5t6.5 17.5t-6.5 17.5t-18.5 7.5h-241q-12 0 -18.5 -7.5t-6.5 -17.5zM45 192q0 -10 6.5 -17.5t18.5 -7.5h241q12 0 18.5 7.5t6.5 17.5t-6.5 17.5t-18.5 7.5h-241q-12 0 -18.5 -7.5t-6.5 -17.5z" />
<glyph unicode="&#x3e;" horiz-adv-x="375" d="M39 40q6 0 12 3l51 23l67 29q35 16 70.5 34t64 36.5t46.5 36.5t18 33q0 29 -26.5 58t-64 56.5t-77.5 53t-67 46.5q-6 5 -15 5q-11 0 -18.5 -8t-7.5 -18q0 -12 11 -19l65 -41q36 -23 69 -46.5t55.5 -44.5t22.5 -34q0 -9 -15.5 -21t-40.5 -26.5t-57 -29.5l-64 -30l-62 -28 l-51 -23q-13 -6 -13 -19q0 -9 8 -17.5t19 -8.5z" />
<glyph unicode="?" horiz-adv-x="470" d="M124 479q5 0 11 3.5t12 13.5q12 19 24.5 36t30 29t41.5 19t58 7q37 0 59.5 -10t35 -24t16.5 -30.5t4 -28.5q0 -29 -16.5 -57.5t-48.5 -43.5q-60 -28 -99 -54t-64.5 -52.5t-41 -54.5t-28.5 -61q-4 -11 -5 -14.5t-1 -5.5q0 -11 8.5 -18.5t18.5 -7.5q14 0 21 15q16 37 29 63 t34 48.5t56 44.5t94 51q47 23 70 63t23 84q0 28 -9.5 54t-29.5 46t-51.5 31.5t-74.5 11.5q-41 0 -72.5 -10t-55.5 -25.5t-40.5 -35.5t-27.5 -39q-5 -10 -6.5 -14.5t-1.5 -7.5q0 -11 8 -18.5t19 -7.5zM82 -22q10 0 23.5 3.5t30.5 12.5q17 0 17 14t-6.5 24.5t-15 18t-18 11.5 t-15.5 4q-21 0 -34.5 -18.5t-13.5 -38.5q0 -13 7.5 -22t24.5 -9z" />
<glyph unicode="@" horiz-adv-x="530" d="M220 175q21 0 41.5 11t40.5 26q4 -22 19 -29t34 -7q26 0 52.5 14.5t47.5 39t34.5 58t13.5 71.5q0 29 -9.5 56t-30 48t-53 34t-78.5 13q-66 0 -118 -25.5t-88 -65t-55 -88.5t-19 -95q0 -35 12 -66.5t37 -55.5t64 -38.5t93 -14.5q26 0 54.5 3t60.5 11q12 3 12 14q0 6 -4 11 t-11 5h-3q-31 -7 -58 -10.5t-51 -3.5q-47 0 -81 11.5t-55.5 31.5t-31.5 46.5t-10 56.5q0 57 24 102t60.5 76.5t80 48t82.5 16.5t67 -9.5t45.5 -26t25.5 -38t8 -44.5q0 -28 -10 -56t-26.5 -50t-38 -36t-44.5 -14q-12 0 -19.5 3.5t-7.5 18.5q0 8 17.5 31.5t38.5 58.5 q-5 12 -13 12q-6 0 -13.5 -6.5t-16.5 -17.5l-25 -32q-14 -18 -29.5 -33t-32.5 -25.5t-33 -10.5q-17 0 -26.5 11t-9.5 30q0 31 15.5 57t39.5 44.5t52 28.5t52 10q10 0 20 -1t15 -3q3 -1 7.5 -2t6.5 -1q5 0 9 5t4 12q0 11 -11 14q-26 6 -49 6q-47 0 -82.5 -17.5t-59.5 -43 t-36.5 -55.5t-12.5 -55q0 -29 15.5 -49.5t50.5 -20.5z" />
<glyph unicode="A" horiz-adv-x="485" d="M167 249q76 -32 121.5 -79.5t61.5 -94.5q-2 -17 -3 -35t-1 -38q0 -16 11 -24t24 -8q11 0 19.5 6t8.5 19q0 17 -1 42.5t-7 42.5q9 97 31.5 171.5t46.5 132.5l43 102q20 45 23 83v1q0 35 -19.5 50.5t-46.5 15.5q-41 0 -86.5 -29.5t-90.5 -76.5t-86 -105t-73 -115 q-32 9 -66.5 14.5t-71.5 5.5q-13 0 -19 -7.5t-6 -17.5t6 -17.5t19 -7.5q35 0 64.5 -4t49.5 -11q-18 -33 -36.5 -74t-33.5 -79.5t-24.5 -69t-9.5 -42.5q0 -11 8.5 -18t18.5 -7q17 0 22 18q19 69 45.5 133t57.5 123zM495 570q0 -23 -15 -59l-38 -87q-21 -50 -44 -115t-37 -147 q-28 40 -70.5 74t-98.5 57q43 75 85.5 130.5t80 92t68.5 54t52 17.5q10 0 13.5 -5t3.5 -12z" />
<glyph unicode="B" horiz-adv-x="510" d="M531 139q0 46 -18 75t-42.5 46t-51 24.5t-44.5 9.5q16 6 47.5 20t63 38t55 59.5t23.5 83.5q0 33 -12 59t-32 44t-45.5 27.5t-52.5 9.5q-59 0 -110.5 -31.5t-89.5 -112.5l-46 -96l-49 -101l-56 -122q-30 -67 -66 -156q-5 -13 -5 -18q0 -10 7.5 -16t18.5 -6q7 0 13 3.5 t9 11.5l67 159l57 122l49 100l47 97q18 37 35.5 60t36 35.5t38 16.5t41.5 4q18 0 34.5 -5t29.5 -16t21 -28t8 -42q0 -34 -16 -58t-40.5 -42t-53.5 -32l-55 -25q-18 -8 -25 -18.5t-7 -20.5q0 -13 8 -21.5t21 -16.5q19 -13 43 -19.5t45 -16.5t35 -27.5t14 -53.5q0 -39 -15 -63 t-44.5 -37t-73 -17.5t-100.5 -4.5q-13 0 -29 0.5t-32.5 1.5t-32 1.5t-27.5 0.5q-13 0 -20 -8.5t-7 -18.5q0 -20 23 -23q28 -4 62.5 -5t61.5 -1q100 0 157 14.5t85 38.5t35 54.5t7 62.5z" />
<glyph unicode="C" horiz-adv-x="475" d="M358 296q6 0 11.5 3t11.5 5q42 16 79 44t64 62.5t43 74t16 78.5q0 33 -26 55.5t-68 22.5q-55 0 -108.5 -24t-101 -64.5t-88.5 -93t-70.5 -109t-46 -113.5t-16.5 -105q0 -47 15 -78.5t39.5 -51.5t56 -28.5t64.5 -8.5q39 0 74 11t66 28t58.5 39t51.5 45q12 11 15 16.5 t3 10.5q0 11 -7.5 18.5t-18.5 7.5q-4 0 -8.5 -2t-11.5 -9q-26 -24 -52 -44.5t-53 -36.5t-56 -25t-60 -9q-59 0 -92.5 27.5t-33.5 89.5q0 37 13.5 85t38.5 98.5t59.5 99t76.5 86.5t90.5 61.5t100.5 23.5q18 0 30.5 -7.5t12.5 -30.5q0 -31 -14 -61t-38 -57t-55.5 -48.5 t-67.5 -34.5q-21 -10 -21 -27q0 -9 6.5 -16.5t17.5 -7.5z" />
<glyph unicode="D" horiz-adv-x="720" d="M418 269q-23 -35 -44 -63.5t-41.5 -53.5t-42 -47.5t-46.5 -45.5q-33 8 -62.5 14.5t-67.5 6.5q-54 0 -80.5 -16.5t-26.5 -44.5q0 -22 25.5 -35.5t84.5 -13.5q77 0 137 36q57 -13 112 -28t114 -15q54 0 101.5 12t83.5 38t56.5 68.5t20.5 103.5q0 39 -15 84.5t-38 89 t-49.5 81.5t-48.5 64q6 14 9 24t5 21l1 7q1 3 1 8q0 8 -8.5 14.5t-18.5 6.5q-8 0 -14 -4.5t-8 -13.5q-3 -12 -6 -21q-26 25 -55 43.5t-59 30.5t-60 18t-56 6q-54 0 -80.5 -23t-26.5 -57q0 -27 12.5 -48.5t32.5 -39t46 -32.5l54 -29q5 -2 9.5 -4t9.5 -2q9 0 16 8.5t7 19.5 q0 6 -4.5 12.5t-18.5 12.5q-58 25 -83.5 50.5t-25.5 42.5q0 20 10.5 30t42.5 10q27 0 55 -7t56 -20.5t53.5 -32t46.5 -42.5q-21 -56 -49.5 -111.5t-66.5 -112.5zM125 38q8 0 26.5 -4t32.5 -10q-15 -8 -33.5 -11t-30.5 -3q-14 0 -27.5 2.5t-13.5 10.5t14.5 11.5t31.5 3.5z M483 12q-45 0 -89 11l-90 22q16 16 36 39l40 48l41 54q21 28 39 56q35 53 62.5 104.5t48.5 102.5q28 -36 50.5 -73t38 -72.5t24 -66.5t8.5 -53q0 -86 -55 -129t-154 -43z" />
<glyph unicode="E" horiz-adv-x="422" d="M296 392q8 0 14 2.5t13 6.5q18 10 40.5 28.5t42.5 41.5t33.5 50t13.5 55q0 32 -15.5 49t-50.5 17q-47 0 -93.5 -23.5t-84 -60t-60.5 -80.5t-23 -85q0 -58 38 -91q-74 -38 -108 -83.5t-34 -108.5q0 -31 12.5 -56t34 -42.5t50.5 -27t61 -9.5q51 0 90 11.5t68.5 28 t51.5 35.5l37 35q8 8 12.5 14.5t4.5 14.5q0 11 -6.5 19t-17.5 8q-4 0 -8.5 -2t-10.5 -8l-41 -39q-20 -19 -45.5 -34t-58 -24t-76.5 -9q-52 0 -80 23t-28 64q0 28 9 49.5t23.5 39t33.5 31.5t40 26q24 15 32 23t8 19q0 15 -7.5 25.5t-12.5 15.5q-22 25 -22 51q0 27 11 52.5 t29 48t40.5 41t45.5 31.5t44 20.5t36 7.5q11 0 16 -7t5 -15q0 -19 -14 -40t-33.5 -40t-39 -34t-29.5 -21q-12 -8 -12 -22q0 -9 6.5 -15.5t14.5 -6.5z" />
<glyph unicode="F" horiz-adv-x="525" d="M357 235h-88q-13 0 -19 -8t-6 -17t6 -17t19 -8h59l-78 -123q-35 -55 -54 -80l-6 -12q-3 -7 -3 -10q0 -11 10 -13t21 -2q13 0 20 11q23 33 62 94l86 135h103q13 0 19 8t6 17t-6 17t-19 8h-72q28 46 53 92.5t43.5 88t29 76.5t10.5 59q0 44 -20.5 65.5t-80.5 21.5 q-90 0 -165.5 -32.5t-130.5 -80.5t-86 -104.5t-31 -104.5q0 -34 18 -54t55 -20q19 0 43 9.5t48.5 26t48.5 38t42.5 45t29.5 47t11 44.5q0 11 -7 16t-16 5t-17 -5.5t-10 -16.5q-6 -31 -26.5 -60t-47 -52t-54 -37t-46.5 -14q-11 0 -19 8t-8 23q0 34 25.5 80t72.5 88 t114.5 71.5t151.5 29.5q29 0 39.5 -11.5t10.5 -31.5q0 -23 -11.5 -56t-31 -73.5t-45.5 -86.5z" />
<glyph unicode="G" horiz-adv-x="480" d="M144 -25q24 0 50 8.5t51.5 23.5t49 36t43.5 47q-20 -51 -45 -105.5t-53.5 -101.5t-59 -81t-61.5 -44q-10 -3 -15 -10.5t-5 -15.5t6 -15t19 -7q10 0 15 2q34 10 66 42.5t61.5 78.5t55.5 101t48 110t39.5 105t28.5 86q6 18 8.5 32t2.5 24q0 27 -21 27q-14 0 -28 -28 l-41 -82q-17 -34 -42 -67t-53.5 -58.5t-59.5 -41.5t-60 -16q-38 0 -54.5 25t-16.5 67q0 38 13.5 88t37.5 103t57 104t71 91.5t80 65.5t84 25q26 0 38.5 -14.5t12.5 -35.5q0 -38 -35 -75q-7 -8 -7 -18q0 -11 7.5 -18.5t17.5 -7.5q4 0 9 2t13 9q20 17 32 45.5t12 57.5 q0 20 -6 38.5t-18.5 33t-31.5 23t-44 8.5q-56 0 -106.5 -28.5t-94 -74t-79 -103.5t-60.5 -116.5t-38.5 -112.5t-13.5 -92q0 -62 28 -101t92 -39z" />
<glyph unicode="H" horiz-adv-x="830" d="M124 -49q31 0 73 7.5t89.5 28.5t97 59.5t97.5 101.5q46 6 93 13.5t95 17.5q-6 -48 -10 -90t-4 -78q0 -13 8 -19.5t18 -6.5q9 0 16.5 6t7.5 18q0 39 4.5 85t12.5 97q61 16 112 36q8 3 11.5 9t3.5 12q0 10 -6 18.5t-15 8.5q-5 0 -10 -2l-10 -4l-34 -11l-42 -14l12 55 q6 30 21.5 71t43 95.5t73.5 128.5q8 14 8 21q0 11 -8 18t-18 7q-13 0 -20 -12q-35 -56 -61 -102.5t-45.5 -91.5t-34 -94t-25.5 -109q-40 -9 -80 -16t-79 -12l16 27q12 21 27 50l34 66q17 36 31 74.5t23.5 77t9.5 72.5q0 12 -7.5 18.5t-17.5 6.5t-17.5 -6.5t-7.5 -18.5 q0 -38 -16 -88.5t-39.5 -103.5t-51 -101.5t-49.5 -81.5l-79 -9l-91 -10l-88 -12q-42 -5 -70 -10q-26 -5 -50 -11.5t-42 -17.5t-28.5 -29t-10.5 -45q0 -48 34.5 -74t94.5 -26zM111 102q21 4 53 9t71 9.5l83 9.5l90 9q-54 -58 -125 -97.5t-155 -39.5q-33 0 -58.5 11t-25.5 38 q0 24 16.5 34t50.5 17z" />
<glyph unicode="I" horiz-adv-x="440" d="M203 370q10 0 18.5 7t8.5 20q0 32 13 67t34.5 64t48.5 48t56 19q24 0 34.5 -14t10.5 -38t-7.5 -54.5t-19.5 -64.5t-28 -68l-30 -67q-21 -42 -48 -88.5t-57 -85t-61.5 -63.5t-60.5 -25q-32 0 -44.5 8t-15.5 25q-5 25 -25 25q-9 0 -17 -6.5t-8 -18.5q0 -44 31 -63.5 t79 -19.5q38 0 75.5 25t72.5 66.5t66.5 94t58.5 108.5l33 73q16 37 28 73t19 70.5t7 65.5q0 16 -5.5 32.5t-16.5 30t-27.5 21.5t-37.5 8q-52 0 -91 -26.5t-65 -64.5t-39 -80t-13 -73q0 -18 7 -24.5t16 -6.5z" />
<glyph unicode="J" horiz-adv-x="375" d="M313 258q-18 -53 -37 -102l-38 -96q-5 4 -14 4q-16 0 -40 -14t-50 -38t-52 -55t-47 -65t-34 -69t-13 -65q0 -37 10 -62t43 -25q40 0 81.5 48.5t82.5 128.5t80.5 182.5t75.5 211.5q10 31 25 70l30 82q14 41 24 80.5t10 72.5q0 44 -16.5 68.5t-54.5 24.5q-29 0 -56.5 -22 t-51.5 -57.5t-44.5 -80.5t-35.5 -91t-23 -89.5t-8 -76.5q0 -35 7 -44.5t17 -9.5t18.5 7t8.5 16q0 10 -1 14q-2 6 -2 18q0 24 8 60.5t21 77.5t30 81.5t35.5 73t37.5 53t35 20.5t21.5 -10.5t5.5 -30.5q0 -23 -9 -57t-23 -74l-28 -81zM34 -249q0 27 18.5 68.5t46.5 81.5 t60 71.5t59 40.5l-54 -118q-26 -54 -47.5 -93t-38 -61t-25.5 -22q-19 0 -19 32z" />
<glyph unicode="K" horiz-adv-x="530" d="M158 346q8 0 11 1q-38 -102 -78 -188t-77 -146q-4 -5 -4 -13q0 -11 8 -18t18 -7q13 0 20 12q37 59 74.5 138t73.5 172q9 -22 18 -49l17 -54l19 -54q9 -26 20 -47q42 -78 96.5 -126t108.5 -66q8 -2 14.5 -4t11.5 -2q8 0 14.5 8t6.5 18q0 16 -16 22q-56 23 -105 63t-87 111 q-14 26 -25 57t-21 63l-18 63q-9 30 -21 56q34 12 71.5 35.5t75.5 56t75.5 71.5t72.5 83q9 10 9 17q0 11 -7.5 18t-19.5 7q-5 0 -10.5 -2t-10.5 -9q-29 -38 -61 -71.5t-64 -61.5t-63 -50t-57 -35l18 50q9 26 16.5 51t12.5 46t5 36q0 13 -8.5 20t-18.5 7q-9 0 -16 -5.5 t-7 -17.5q0 -14 -5 -35t-13 -46t-18 -53l-20 -54q-11 15 -28 15q-9 0 -17 -5t-14 -13t-10 -17t-4 -18q0 -19 12.5 -24.5t24.5 -5.5z" />
<glyph unicode="L" horiz-adv-x="524" d="M31 37q25 0 55 -14q-14 -4 -26.5 -5t-26.5 -1q-26 0 -33 2t-7 6q0 5 7.5 8.5t30.5 3.5zM37 -35q26 0 52 6.5t54 23.5q36 -20 63.5 -30t49 -14t37.5 -4.5t30 -0.5q58 0 106 14.5t85 40.5q11 8 11 19q0 10 -7.5 18t-18.5 8q-9 0 -15 -5q-29 -21 -67.5 -33.5t-88.5 -12.5 q-25 0 -44.5 2.5t-36 7t-31.5 10.5t-30 14q41 42 83.5 120t83.5 207l27 86q14 43 29 77t32 55.5t38 21.5q19 0 26 -12t7 -36q0 -17 -4.5 -41.5t-14 -50t-23.5 -49t-32 -37.5q-8 -7 -10.5 -11.5t-2.5 -9.5q0 -11 8 -19t19 -8q4 0 11 3.5t12 8.5q20 21 36.5 48t28.5 55.5 t18.5 57.5t6.5 54q0 39 -20.5 68t-68.5 29q-38 0 -64.5 -27.5t-45 -68.5t-33 -89t-28.5 -89q-25 -72 -47.5 -125t-43 -91.5t-39 -63.5t-36.5 -40q-28 14 -57 24.5t-63 10.5q-18 0 -32.5 -5.5t-25 -14.5t-16.5 -20t-6 -22q0 -31 22 -45.5t76 -14.5z" />
<glyph unicode="M" horiz-adv-x="736" d="M693 632q-15 -14 -43.5 -52t-63.5 -90l-76 -113l-76 -121l-72 -114l-55 -89q2 50 9 111.5t16 124.5t20 123l18 106q5 26 10.5 48t5.5 42q0 17 -11 26.5t-25 9.5q-11 0 -21 -6t-15 -19l-24 -57l-22 -54l-25 -56q-13 -29 -29 -61l-58 -111q-28 -51 -56 -96t-57 -86.5 t-61 -81.5q-8 -10 -11.5 -16t-3.5 -14q0 -11 8 -17t15 -6q8 0 14 3.5t16 16.5q34 42 64 85t58.5 89.5l57.5 98.5l58 113l36 77q16 34 30 68q-10 -41 -20.5 -96.5t-19 -115t-14 -117.5t-5.5 -103q0 -55 4 -82.5t25 -27.5q10 0 19 7t16.5 17t14.5 21l11 19l97 153l90 144 l80 123q37 56 64 92l-28 -66q-14 -36 -26.5 -75.5t-20.5 -82.5t-8 -88q0 -103 17 -185.5t57 -155.5q6 -11 12 -15t11 -4q10 0 18.5 5t8.5 16q0 6 -1.5 10.5t-7.5 15.5q-35 64 -50 139t-15 174q0 41 8 82t20.5 80t26.5 75l28 68q8 18 17 34.5t9 31.5q0 17 -11 27.5t-26 10.5 q-8 0 -16 -3t-16 -10z" />
<glyph unicode="N" horiz-adv-x="612" d="M27 -24q58 69 110 150t93.5 158.5t70 144t39.5 105.5q7 -55 14 -127l15 -146q7 -74 11.5 -142.5t6.5 -116.5q1 -15 9 -28t24 -13q20 0 28.5 6.5t14.5 21.5q11 27 26 75l33 108l36 124q20 64 41.5 122t44 105t45.5 72q13 14 13 25t-7 18t-18 7q-5 0 -10 -2t-12 -10 q-24 -28 -46 -70.5t-42.5 -93.5t-38.5 -107l-36 -112l-30 -104l-27 -88q-1 38 -4 85.5t-7.5 98.5t-10 103t-11.5 99l-12 88q-5 40 -10 68q-4 18 -15 28.5t-24 10.5q-11 0 -21 -9t-15 -29q-20 -83 -56 -168t-80 -163t-90.5 -144.5t-86.5 -113.5q-9 -12 -9 -22t7.5 -16.5 t15.5 -6.5q12 0 21 9z" />
<glyph unicode="O" d="M529 608q0 9 -6 17t-19 8q-74 0 -139 -20.5t-119.5 -55.5t-97 -82t-72 -100t-45 -109.5t-15.5 -109.5q0 -41 10 -76t31 -61t53 -41t77 -15q60 0 112.5 21.5t96 56.5t77.5 80.5t57.5 94.5t36 97.5t12.5 88.5q0 45 -12.5 73.5t-32 44.5t-43 22t-44.5 6q-57 0 -104 -23 t-80.5 -55t-52.5 -65.5t-19 -54.5q0 -11 8 -17t18 -6q8 0 14.5 4t8.5 13q7 27 27 54.5t47.5 50t61 36.5t68.5 14q42 0 62.5 -26t20.5 -71q0 -32 -11 -73.5t-32 -84.5t-51.5 -84.5t-68.5 -74t-83 -52.5t-96 -20q-58 0 -89 41t-31 107q0 44 13.5 92.5t40 95.5t64.5 89.5 t87 74.5t107.5 51t126.5 19q13 0 19 8t6 17z" />
<glyph unicode="P" horiz-adv-x="370" d="M119 526q0 -21 -4 -56t-12 -78q-15 -42 -34 -90.5t-35.5 -96t-27.5 -91t-11 -74.5q0 -26 7.5 -46.5t25.5 -20.5q29 0 45 50q10 33 21 76t21 90t19 95l17 90q18 46 45.5 86.5t59 70.5t64.5 47.5t63 17.5q29 0 46.5 -29t17.5 -71q0 -56 -27 -98t-66.5 -71t-83.5 -43.5 t-78 -14.5q-12 0 -18.5 -8t-6.5 -17q0 -11 7 -18t22 -7q24 0 56 7t65.5 21.5t66 37t58 54.5t41 74t15.5 94q0 28 -7 53.5t-21.5 44.5t-36 30t-50.5 11q-30 0 -59.5 -10.5t-57 -29.5t-52.5 -44.5t-47 -55.5q1 8 1 13v11q0 20 -3.5 35.5t-19.5 15.5q-11 0 -19.5 -5.5 t-8.5 -17.5q0 -8 1 -17t1 -15z" />
<glyph unicode="Q" horiz-adv-x="600" d="M83 47q19 0 45 -13q-27 -9 -47 -9q-25 0 -25 11t27 11zM81 -25q43 0 104 25q88 -66 170.5 -97t160.5 -31q56 0 80.5 8.5t24.5 25.5q0 10 -6.5 18t-17.5 8q-8 0 -13.5 -2.5t-15.5 -4.5t-21.5 -2.5t-29.5 -0.5q-50 0 -123.5 21t-156.5 81q38 20 77 45.5t76.5 53.5t71 56.5 t59.5 55.5q60 60 88 116.5t28 124.5q0 78 -44 119.5t-115 41.5q-68 0 -118.5 -28t-84 -68t-50 -84.5t-16.5 -76.5q0 -17 5 -23.5t18 -6.5q16 0 21.5 10t5.5 24q0 22 14 56.5t41 67t66.5 56t91.5 23.5q57 0 86 -29.5t29 -80.5q0 -48 -23.5 -99t-80.5 -111 q-27 -28 -62.5 -57.5t-75.5 -57.5t-80.5 -52.5t-76.5 -41.5q-27 17 -55.5 28t-58.5 11q-35 0 -53 -19t-18 -44q0 -26 21 -42.5t57 -16.5z" />
<glyph unicode="R" horiz-adv-x="440" d="M378 642q-60 0 -108 -34t-83 -85q1 13 1.5 26t0.5 25t-7.5 18.5t-17.5 6.5t-17.5 -6.5t-7.5 -18.5q0 -33 -3.5 -71.5t-9 -76t-13 -70.5t-14.5 -55l-39 -83q-18 -41 -32 -78t-22.5 -68t-8.5 -53q0 -23 8 -33.5t31 -10.5q12 0 29 36t35 92.5t35.5 124.5t31.5 132 q12 45 33.5 87t48.5 74t59 51.5t66 19.5q45 0 59 -24.5t14 -70.5q0 -59 -17.5 -109t-49.5 -86.5t-79 -57t-105 -20.5q-23 0 -35 -12t-12 -28q0 -23 34 -54q22 -21 51.5 -45.5t58.5 -51.5t54.5 -57t41.5 -62q6 -11 11.5 -14.5t11.5 -3.5q13 0 19.5 7t6.5 15q0 6 -2.5 13 t-6.5 14q-20 38 -49 73t-60 64t-60 52l-50 40q57 4 100.5 21.5t75.5 44.5t54 60t35 67.5t18.5 67.5t5.5 60q0 37 -10 64.5t-27 46t-38.5 27.5t-45.5 9z" />
<glyph unicode="S" horiz-adv-x="650" d="M457 401q0 -9 7 -16.5t27 -7.5q40 0 82 11.5t76.5 33t56 51.5t21.5 67q0 28 -12 47.5t-31.5 32.5t-44.5 19t-52 6q-69 0 -126.5 -20t-99 -52.5t-64.5 -72.5t-23 -79q0 -54 37 -88t109 -53q38 -10 67 -18.5t49 -21t30 -31t10 -48.5q0 -32 -25.5 -60.5t-67.5 -49.5 t-95.5 -33.5t-109.5 -12.5q-61 0 -102 5.5t-66 14.5t-36 21t-11 24q0 28 39 43.5t104 15.5q32 0 53.5 -3t35.5 -6l22 -6q11 -3 19 -3q9 0 15.5 8t6.5 18q0 8 -4.5 14.5t-14.5 8.5q-29 8 -62.5 13.5t-68.5 5.5q-30 0 -65 -4t-65.5 -16t-51 -34t-20.5 -57q0 -32 17.5 -54 t52 -35t85 -18.5t115.5 -5.5q60 0 123 12.5t114 38.5t83.5 65.5t32.5 92.5q0 37 -13.5 63.5t-36 45.5t-52 30.5t-60.5 19.5q-75 17 -106.5 41.5t-31.5 55.5q0 34 21 66t56 56t79.5 38.5t92.5 14.5q36 0 56 -5.5t30 -14.5t12.5 -20t2.5 -21q0 -20 -15.5 -39t-41.5 -34 t-59.5 -24.5t-68.5 -9.5q-22 0 -29.5 -7.5t-7.5 -18.5z" />
<glyph unicode="T" horiz-adv-x="444" d="M384 329q15 37 25 69t20.5 61.5t24 57.5t34.5 58q34 11 46 21.5t12 24.5t-14 23t-30 9q-18 0 -28 -13t-15 -22l-81 -17l-106 -22l-112 -25q-57 -14 -104 -27q-38 -11 -54.5 -23.5t-16.5 -35.5q0 -21 16.5 -38.5t38.5 -29.5t44 -19t32 -7q13 0 21 6t8 20q0 15 -16 21 q-37 14 -54 23t-17 20q0 7 4 10.5t17 7.5q40 11 84 22l89 20q44 10 87 18l79 16q-15 -26 -25.5 -52t-18.5 -52l-17 -52q-8 -27 -19 -55q-12 -31 -33 -79t-47 -99.5t-55 -100t-58 -80.5q-9 -10 -9 -20q0 -11 7 -18t18 -7q6 0 11 2t12 10q31 36 61.5 87t57 104t47.5 102z" />
<glyph unicode="U" horiz-adv-x="650" d="M222 -33q38 0 72.5 14t65.5 38t59 56t54 68q-2 -14 -3 -26.5t-1 -25.5q0 -47 16 -82.5t39 -55.5l14 -11q6 -4 15 -4q8 0 15 7t7 15q0 11 -3.5 17.5t-16.5 14.5q-15 9 -25.5 35t-10.5 60q0 56 24.5 127t59.5 148q16 29 36.5 60t37.5 60t29 53.5t12 40.5q0 24 -30 24 q-14 0 -30 -16.5t-32.5 -42t-32.5 -58t-30 -64.5t-25 -61l-18 -46q-30 -54 -66 -107t-74 -95t-76 -67.5t-74 -25.5q-23 0 -32.5 10.5t-9.5 28.5q0 24 9 50t23 54.5t32.5 60.5t36.5 68q25 47 40.5 81.5t24.5 61t12.5 46t3.5 37.5q0 25 -5.5 47t-18.5 38.5t-33 26t-48 9.5 q-36 0 -68 -15t-58.5 -39.5t-47.5 -55t-35.5 -62t-22.5 -60.5t-8 -50q0 -14 8 -21t18 -7q8 0 15.5 5.5t8.5 16.5q3 35 19.5 76.5t42 77.5t59 60t69.5 24q26 0 39.5 -19.5t13.5 -52.5q0 -50 -24 -105t-65 -125l-33 -57q-17 -29 -31.5 -58.5t-23.5 -58.5t-9 -56q0 -45 23 -66 t67 -21z" />
<glyph unicode="V" horiz-adv-x="576" d="M-6 319q8 0 15 5.5t8 16.5q3 36 18.5 79.5t40 81.5t56.5 63.5t70 25.5q26 0 37.5 -18t11.5 -51q0 -15 -1 -33t-5.5 -41t-14 -51t-25.5 -64q-15 -32 -34.5 -69.5t-37 -75.5t-30 -74.5t-12.5 -65.5q0 -36 14 -58.5t52 -22.5q33 0 73.5 22.5t84 61.5t88.5 90t89 108 q38 49 69.5 100.5t54.5 99.5t36 90t13 73q0 12 -8 18.5t-17 6.5t-17 -6.5t-8 -18.5q0 -21 -12.5 -58t-34 -82.5t-51.5 -95.5t-65 -97q-46 -62 -90 -110.5t-80.5 -82.5t-64.5 -51.5t-41 -17.5q-17 0 -23.5 8.5t-6.5 28.5q0 25 12 60t29 73.5l35 76.5l33 66q28 61 38 107 t10 87q0 24 -4 45t-14.5 37t-28.5 25.5t-46 9.5q-40 0 -73 -15.5t-60 -40.5t-47.5 -56.5t-34.5 -64.5t-21 -63.5t-7 -53.5q0 -14 8.5 -21t18.5 -7z" />
<glyph unicode="W" horiz-adv-x="772" d="M105 5l87 79q46 45 94 97l96 109q49 57 95 118q-20 -47 -36.5 -90.5t-28.5 -87t-19 -88t-7 -93.5q0 -40 19.5 -56t45.5 -16q17 0 36.5 7.5t39.5 24.5q37 31 75.5 73.5t75 92.5t69 105t57 111.5t38.5 112.5t14 108q0 12 -8 18.5t-17 6.5t-17 -6.5t-8 -18.5 q0 -45 -13.5 -96.5t-36.5 -104.5t-54 -106t-65.5 -101t-71 -88.5t-70.5 -68.5q-8 -6 -16.5 -10t-15.5 -4q-8 0 -14.5 5.5t-6.5 21.5q0 55 10 106t27 103t39 107l49 118q8 19 9.5 26t1.5 12q0 15 -9 24t-22 9q-9 0 -19 -5.5t-18 -18.5q-39 -61 -89 -125.5t-102.5 -125 t-104.5 -113.5l-92 -92l56 105q31 59 58 119.5t45.5 118t18.5 103.5q0 48 -25.5 76.5t-89.5 28.5q-42 0 -80 -31t-66.5 -77t-45 -97.5t-16.5 -93.5q0 -20 4.5 -31t20.5 -11q13 0 18.5 8t5.5 38q0 21 7 47.5t19.5 54t29 53.5t34.5 46.5t37 33t37 12.5q29 0 43 -12.5t14 -47.5 q0 -32 -12.5 -75.5t-31.5 -92t-42.5 -98.5t-46 -93t-41.5 -76l-28 -48q-17 -27 -17 -45q0 -22 22 -22q23 0 55 27z" />
<glyph unicode="X" horiz-adv-x="580" d="M335 329l-67 -73l-70 -75q-38 -38 -83.5 -77t-104.5 -81q-9 -6 -12 -12t-3 -12q0 -11 7 -17.5t15 -6.5q5 0 10 1.5t14 8.5q54 38 93.5 70.5t73 64.5t64.5 67l70 77q7 -50 22 -100t37 -97t51 -88t64 -72q8 -8 13.5 -10.5t10.5 -2.5q11 0 19 7t8 16q0 6 -2.5 11t-10.5 13 q-41 36 -71.5 86.5t-51 103.5t-32 101.5t-12.5 80.5q42 46 74.5 89.5t63.5 80.5t65.5 65.5t81.5 43.5q17 6 17 22q0 11 -6.5 19t-15.5 8q-8 0 -12 -1.5t-10 -3.5q-43 -15 -77.5 -41.5t-65 -60.5t-59.5 -73l-61 -79q0 30 2 62.5t2 63.5q0 28 -3 52.5t-11.5 43.5t-23.5 30 t-40 11q-36 0 -64 -11.5t-50 -29.5t-38.5 -38.5t-29.5 -38.5q-4 -6 -7.5 -12t-3.5 -14q0 -11 7 -16.5t17 -5.5q7 0 13 3.5t14 14.5q13 19 27.5 36.5t31.5 31t37 22t43 8.5q20 0 25.5 -24.5t5.5 -64.5v-31q0 -22 -0.5 -48.5t-0.5 -53.5v-44z" />
<glyph unicode="Y" d="M117 -18q39 0 83 23.5t86 57.5t78 70l62 62l-40 -74l-38 -75q-31 -62 -70.5 -118.5t-91.5 -100t-117.5 -69.5t-147.5 -26q-20 0 -29.5 -3.5t-13 -8t-3 -8.5t0.5 -6q0 -16 9.5 -20t36.5 -4q92 0 165 30t130.5 78t100 109.5t74.5 124.5l105 200l102 190q15 29 22 47t7 38 q0 27 -30 27q-14 0 -24 -13.5t-20 -36t-20.5 -50.5t-25.5 -56q-26 -38 -58.5 -77t-68 -75t-72 -68t-69.5 -56t-60 -37.5t-44 -13.5q-27 0 -27 30q0 15 9 41q8 23 27 56l41 73l48 81q24 43 44 85t33 80.5t13 68.5q0 36 -21.5 57.5t-75.5 21.5q-48 0 -87 -27t-66.5 -67.5 t-42.5 -88.5t-15 -89q0 -29 6.5 -37.5t20.5 -8.5q10 0 17.5 6t7.5 17q0 9 -1 14.5t-1 10.5q0 30 13 68t35 71.5t52 57t63 23.5q18 0 26 -9.5t8 -26.5q0 -22 -11 -54t-28 -69.5t-38 -78.5l-44 -80l-40 -75q-18 -35 -30 -62q-18 -42 -18 -78q0 -32 16 -52t47 -20z" />
<glyph unicode="Z" horiz-adv-x="453" d="M406 175q0 44 -14.5 73.5t-35.5 47.5t-45 26t-43 8q115 42 164 94t49 112q0 45 -29 76t-85 31q-43 0 -79.5 -10.5t-66.5 -27.5t-52.5 -37t-37.5 -39t-23 -34t-8 -22q0 -25 22 -25q11 0 17.5 3.5t11.5 14.5q11 23 31.5 45.5t49 40.5t63.5 29.5t74 11.5q29 0 46 -15.5 t17 -45.5q0 -43 -47 -84.5t-138 -77.5q-27 -11 -42.5 -23t-15.5 -28q0 -11 13 -17.5t33 -9.5q18 -3 39 -9.5t39.5 -20t30.5 -35t12 -54.5q0 -34 -12.5 -74.5t-34 -80.5t-50 -77.5t-60.5 -66.5t-65.5 -46.5t-65.5 -17.5q-26 0 -41 15.5t-15 47.5q0 30 11.5 66t31.5 67.5 t47 52.5t57 21q11 0 16 8t5 16q0 10 -7 18t-22 8q-36 0 -69.5 -25.5t-59.5 -63.5t-41.5 -82.5t-15.5 -83.5q0 -54 26.5 -82t75.5 -28q47 0 90.5 20.5t81 54.5t68.5 77t53 89t34 90t12 79z" />
<glyph unicode="[" horiz-adv-x="230" d="M257 626q0 8 -4 16t-14 13q-9 5 -30 6t-38 1q-9 0 -19.5 -1t-20 -4.5t-17 -11.5t-10.5 -22l-34 -137q-19 -78 -35.5 -166t-28 -180.5t-11.5 -178.5q0 -16 16 -25.5t43 -9.5q18 0 38.5 2.5t33.5 5.5q20 5 20 19q0 11 -9 21t-24 10q-6 -5 -16 -6t-21 -1q-17 0 -23 3t-6 14 q0 74 11 158t26.5 165.5t33.5 154.5l30 126q4 14 20 14q23 0 40.5 -2t21.5 -4q6 -3 10 -3q8 0 12.5 7t4.5 16z" />
<glyph unicode="\" horiz-adv-x="360" d="M354 -30q0 5 -2 12l-6 15l-68 174l-64 160q-32 77 -65.5 150t-72.5 146q-7 13 -20 13q-10 0 -18.5 -7t-8.5 -18q0 -3 1.5 -8t9.5 -20q35 -65 66 -135l64 -146l64 -162l72 -183q3 -8 9 -11.5t12 -3.5q10 0 18.5 6t8.5 18z" />
<glyph unicode="]" horiz-adv-x="230" d="M-7 -38q0 -8 4 -16t14 -13q9 -5 30 -6t38 -1q9 0 19.5 1t20 4.5t17 11.5t10.5 22l34 137q19 78 35.5 166t28 180.5t11.5 178.5q0 16 -16 25.5t-43 9.5q-18 0 -38.5 -2.5t-33.5 -5.5q-20 -5 -20 -19q0 -11 9 -21t24 -10q6 5 16 6t21 1q17 0 23 -3t6 -14q0 -74 -11 -158 t-26.5 -166t-33.5 -155l-30 -125q-4 -14 -20 -14q-23 0 -40.5 2t-21.5 4q-6 3 -10 3q-8 0 -12.5 -7t-4.5 -16z" />
<glyph unicode="^" horiz-adv-x="345" d="M55 310q10 0 19 10q15 18 33 48l35 60q18 30 32.5 51.5t22.5 21.5q7 0 17 -19t21 -45l23 -55q11 -28 20 -46q7 -13 18 -13q10 0 18 8.5t8 21.5q0 3 -0.5 5.5t-1.5 5.5q-6 18 -17.5 49.5t-27.5 63t-35.5 56t-40.5 27.5q-14 -3 -30 -16.5t-32 -33.5t-31.5 -43l-29.5 -45 l-24 -42q-11 -19 -18 -30q-4 -7 -4 -15q0 -11 7.5 -18t17.5 -7z" />
<glyph unicode="_" horiz-adv-x="310" d="M-16 -40q0 -6 4 -11.5t12 -5.5h322q8 0 12 5.5t4 11.5t-4 11.5t-12 5.5h-322q-8 0 -12 -5.5t-4 -11.5z" />
<glyph unicode="`" horiz-adv-x="210" d="M24 526q0 -6 3.5 -12t11.5 -9q29 -13 51.5 -32.5t57.5 -43.5q10 -7 19 -7q11 0 16.5 7.5t5.5 18.5q0 13 -11 21q-31 22 -55.5 43.5t-59.5 37.5q-9 3 -14 3q-11 0 -18 -8.5t-7 -18.5z" />
<glyph unicode="a" horiz-adv-x="410" d="M58 -32q34 0 63.5 15.5t54.5 38.5q0 -20 14 -34.5t33 -14.5q27 0 55 11.5t54 29.5t49.5 39t41.5 39q11 13 11 23q0 11 -5.5 18.5t-16.5 7.5q-8 0 -13 -2t-11 -8q-12 -14 -33 -32t-43.5 -35t-43.5 -28.5t-32 -11.5q-10 0 -10 16q0 12 10.5 34t23.5 45.5t25.5 43.5t15.5 28 q7 14 11 25.5t4 20.5q0 22 -22 22q-13 0 -18.5 -6.5t-17.5 -26.5q-14 -25 -36.5 -60.5t-49.5 -68.5t-55.5 -56t-53.5 -23q-18 0 -28.5 12t-10.5 35t12 64t44.5 81.5t90 70t148.5 29.5q20 0 28 7.5t8 17.5t-7 17.5t-24 7.5q-96 0 -162.5 -29.5t-107.5 -73.5t-59.5 -95 t-18.5 -95q0 -46 18.5 -72.5t63.5 -26.5z" />
<glyph unicode="b" horiz-adv-x="375" d="M182 234q0 -73 45 -123q-22 -42 -48.5 -66t-58.5 -24q-35 0 -35 59q0 43 17 117q12 20 45.5 69t74.5 131l21 44q11 24 20.5 49.5t16 51t6.5 46.5q0 23 -10.5 42.5t-30.5 19.5q-28 0 -53.5 -30.5t-49 -86.5t-45 -135.5t-41.5 -177.5q-20 -29 -38 -50t-29 -31 q-8 -7 -11 -12t-3 -10q0 -11 7 -18.5t18 -7.5q8 0 18 8.5t17 16.5q-3 -23 -3 -43q0 -45 17.5 -73.5t62.5 -28.5q36 0 62.5 11t45 27.5t30.5 34.5l22 32q22 -12 48 -12q20 0 39.5 9t33.5 26q5 6 6 10t1 7q0 10 -7 17t-18 7q-12 0 -21 -10q-8 -10 -16 -13t-18 -3q-14 0 -25 8 q16 40 26 82t10 75q0 44 -20.5 60t-44.5 16q-36 0 -60 -32t-24 -89zM279 281q0 -17 -6.5 -48t-21.5 -70q-10 14 -15.5 33t-5.5 42q0 21 3.5 33.5t8.5 20t10.5 10t10.5 2.5q8 0 12 -7.5t4 -15.5zM239 568q0 -8 -8.5 -31t-22.5 -55.5t-32 -70t-38 -73.5q2 12 8.5 35.5 t15.5 51.5l18 57q9 30 18 53.5t17 39t13 15.5q7 0 9 -4t2 -18z" />
<glyph unicode="c" horiz-adv-x="325" d="M227 247q0 -17 25 -17q28 0 28 42q0 33 -26.5 56t-66.5 23q-39 0 -76 -24t-66 -60t-47 -79t-18 -82q0 -60 32.5 -98t97.5 -38q42 0 77 13t63.5 32.5t50.5 40.5l39 39q6 7 8 11.5t2 8.5q0 10 -8 18t-17 8q-5 0 -10.5 -3t-14.5 -12q-15 -16 -35 -34.5t-44 -34.5t-52 -26.5 t-59 -10.5q-37 0 -58.5 23t-21.5 61q0 36 16 71.5t40 63.5t52 45.5t52 17.5q20 0 30.5 -11.5t10.5 -21.5q0 -4 -2 -9.5t-2 -12.5z" />
<glyph unicode="d" horiz-adv-x="425" d="M492 637q-27 0 -50 -17.5t-42 -45t-35 -63t-30 -71t-25 -68.5t-21 -56q-15 10 -34 16t-42 6q-59 0 -104 -23.5t-76 -60t-46.5 -82t-15.5 -89.5q0 -23 5.5 -43.5t17 -36t29.5 -24.5t44 -9q41 0 78 22.5t66 51.5q0 -38 10.5 -54t33.5 -16t50.5 14t53.5 34t49 41.5t37 36.5 q6 7 6 15q0 11 -8 18.5t-18 7.5q-11 0 -18 -9q-11 -13 -30.5 -31.5t-40.5 -35.5t-40 -29t-29 -12q-6 0 -6 13t5.5 36.5t16.5 55.5l46 61l59 82q30 43 58.5 89t48.5 87q17 35 25.5 69.5t8.5 61.5q0 26 -8.5 42t-28.5 16zM213 288q20 0 33.5 -6t24.5 -15l-23 -64 q-11 -32 -19 -62q-12 -17 -31.5 -37.5t-42 -39.5t-45.5 -31.5t-43 -12.5q-21 0 -33 20.5t-12 51.5q0 42 16.5 78t43 62t61 41t70.5 15zM449 469q-19 -41 -49 -88l-63 -92l20 59q11 33 23.5 66.5t25.5 65t25 56t23 39t20 14.5q10 0 10 -17q0 -14 -7.5 -40t-27.5 -63z" />
<glyph unicode="e" horiz-adv-x="305" d="M168 279q0 -13 -11.5 -27.5t-30.5 -28t-42 -26t-46 -22.5q10 30 25.5 52t31.5 36.5t31 22t25 7.5q8 0 12.5 -2t4.5 -12zM27 103q0 4 0.5 7t1.5 8q29 13 62 29.5t61.5 36.5t47.5 45t19 55q0 29 -17.5 44t-43.5 15q-32 0 -64.5 -19.5t-59 -52t-43 -75.5t-16.5 -90 q0 -67 30.5 -102.5t82.5 -35.5q43 0 78.5 14.5t64 34t49 40.5t33.5 33q6 7 10 13t4 12q0 11 -7.5 18.5t-15.5 7.5q-6 0 -11 -2t-12 -9l-34 -34q-19 -20 -42.5 -37.5t-52.5 -29.5t-63 -12q-32 0 -47 24.5t-15 61.5z" />
<glyph unicode="f" horiz-adv-x="205" d="M1 91q7 0 12 4t10 9l-41 -96l-41.5 -101.5t-32.5 -94t-13 -76.5q0 -49 22 -71t54 -22q25 0 47 11.5t38 31t25.5 46.5t9.5 57q0 42 -8 81t-8 70q0 20 5.5 34.5t20.5 23.5q24 14 58.5 41.5t63.5 59.5q7 7 7 17t-7.5 17.5t-18.5 7.5q-10 0 -17 -8q-26 -29 -59.5 -53 t-53.5 -40q-27 -20 -36.5 -47.5t-9.5 -57.5q0 -39 8.5 -78.5t8.5 -70.5q0 -20 -7 -36.5t-18.5 -29t-24.5 -19.5t-25 -7q-13 0 -19.5 9t-6.5 32q0 27 12 65t29.5 82.5t38.5 92.5t39 96q14 38 35 83l43 88q65 81 105 139.5t61.5 100t29 67.5t7.5 43t-7.5 32t-24.5 15 q-35 0 -66.5 -37t-58.5 -93t-50 -121.5t-41 -122.5l-64 -76q-29 -34 -50 -56q-6 -8 -6 -16q0 -10 6.5 -18t18.5 -8zM300 586q0 -5 -2.5 -17t-13.5 -34.5t-32.5 -57.5t-59.5 -86q13 36 30 72t32.5 65.5t27 47.5t14.5 18q4 0 4 -8z" />
<glyph unicode="g" horiz-adv-x="376" d="M0 -290q0 18 11 42t26.5 47.5t32.5 44.5l27 34q-5 -15 -14.5 -40t-22 -51t-26 -49.5t-25.5 -36.5q-9 -9 -9 9zM60 -28q29 0 52 15t46 40q-5 -12 -11 -24.5t-11 -24.5q-16 -14 -46.5 -44.5t-60.5 -68t-52 -77t-22 -71.5q0 -24 9.5 -42.5t41.5 -18.5q26 0 48.5 26t43 67.5 t40.5 93.5l39 105l46 22q24 12 50.5 28.5t56.5 40.5t65 60q7 7 7 16q0 10 -8 18t-18 8q-9 0 -17 -8q-29 -30 -68.5 -61t-81.5 -52l49 114q23 52 38 94q2 5 3 9t1 9q0 11 -7 18t-18 7q-5 0 -11.5 -2.5t-10.5 -9.5l-45 -81q-25 -43 -49.5 -77.5t-47.5 -57t-42 -22.5t-31.5 18 t-12.5 49q0 55 24 93.5t60.5 61.5t80 33.5t82.5 10.5q23 0 32.5 6t9.5 20q0 9 -6 16.5t-18 7.5q-63 0 -120 -15t-100 -46.5t-68.5 -79t-25.5 -112.5q0 -22 5 -42t15.5 -35.5t26 -25t37.5 -9.5z" />
<glyph unicode="h" horiz-adv-x="500" d="M388 346q-23 0 -50 -11.5t-53.5 -29.5t-51.5 -40.5t-45 -44.5l25 56l23 56q46 46 78 83.5t51.5 67.5t28 53t8.5 41q0 64 -48 64q-29 0 -52.5 -27.5t-43 -69.5t-35.5 -91l-29 -92l-52 -58l-50 -55l-50 -53l-53 -55q-11 -11 -11 -22q0 -12 7 -19t17 -7q9 0 17 8l61 64 l54 61l-28 -59l-28 -64q-14 -31 -23.5 -56.5t-9.5 -35.5q0 -12 8 -17.5t21 -5.5q20 0 35 31q11 23 21 46l27 62q18 24 48 54t62 56t60 43.5t42 17.5q12 0 12 -13q0 -7 -2.5 -13.5t-9.5 -19.5q-13 -26 -29.5 -54t-30.5 -55.5t-24 -54.5t-10 -50q0 -28 14.5 -45.5t46.5 -17.5 q18 0 42 12t49.5 30.5t49.5 41t43 42.5q7 7 7 16q0 11 -7.5 18.5t-14.5 7.5q-9 0 -12 -1.5t-7 -6.5q-17 -18 -39 -37.5t-43 -36t-38.5 -27.5t-24.5 -11q-11 0 -13.5 17.5t12.5 51.5q10 24 32 61l41 76q9 17 14.5 37t5.5 34q0 19 -11 33t-34 14zM355 580q0 -17 -21.5 -60 t-72.5 -101q6 20 16 46.5t21.5 52t22.5 46t19 28.5q15 15 15 -12z" />
<glyph unicode="i" horiz-adv-x="224" d="M-5 91q2 0 8 1.5t8 2.5q-7 -16 -10.5 -34.5t-3.5 -32.5q0 -25 12.5 -38.5t41.5 -13.5q26 0 54.5 14.5t55 34.5t47.5 41l34 33q7 7 7 17q0 11 -7.5 18.5t-17.5 7.5q-11 0 -18 -9q-13 -15 -34.5 -34t-44 -35.5t-41.5 -28t-27 -11.5q-12 0 -12 13q0 8 4 20t11 30 q10 25 20 47l20 44l23 46l26 49q3 6 5.5 12t2.5 12q0 11 -8 18t-16 7q-11 0 -19 -6.5t-16 -18.5q-11 -16 -25 -39l-29 -47q-15 -24 -31 -44.5t-32 -31.5q-5 -4 -8 -8.5t-3 -12.5q0 -9 7 -16t16 -7zM178 424q12 0 23 3.5t20 8.5t14.5 11.5t5.5 12.5q0 9 -5 18.5t-13 17 t-17.5 12t-18.5 4.5q-20 0 -31.5 -17t-11.5 -36q0 -14 8 -24.5t26 -10.5z" />
<glyph unicode="j" horiz-adv-x="224" d="M222 457q23 0 37.5 10t14.5 22q0 9 -5 18t-12 16t-15.5 11t-15.5 4q-17 0 -29 -15.5t-12 -32.5q0 -14 8.5 -23.5t28.5 -9.5zM-93 -257q0 13 4.5 33t15 42.5t26.5 46.5t39 46q-9 -23 -19.5 -54t-21.5 -59t-21 -47.5t-18 -19.5q-5 0 -5 12zM-9 -243q17 44 35 100l37 110 q48 25 95 57t84 76q6 7 6 16q0 11 -7.5 18t-18.5 7q-9 0 -18 -9q-10 -11 -23.5 -24t-29 -26t-31.5 -24.5t-31 -20.5q32 87 54.5 140t38.5 87q4 8 7 18.5t3 19.5q0 16 -8 20.5t-17 4.5q-11 0 -24.5 -8t-25.5 -25t-29 -38l-35 -42l-35 -41q-16 -19 -28 -31q-15 -15 -15 -24 t7 -17t18 -8q4 0 9 1.5t12 9.5q10 13 29 34l41 43l-31 -79q-17 -45 -37 -105q-45 -30 -77.5 -65t-53.5 -69.5t-31 -65.5t-10 -54q0 -36 12 -56t31 -20q31 0 55.5 23t41.5 67z" />
<glyph unicode="k" horiz-adv-x="460" d="M339 591q0 -5 -6 -19.5t-16 -35t-24 -44t-30 -45.5q9 25 19 49l19 42l16 34q7 14 11 20q2 5 7 5q4 0 4 -6zM18 98l17 18l20 21l19 22q10 11 18 19l-25 -56q-12 -27 -21 -50.5t-14.5 -41t-5.5 -24.5q0 -11 6 -14.5t17 -3.5q19 0 25 5.5t14 24.5l24 58l24 57l24 53 q12 26 24 45q13 16 29.5 32.5t35 30t39 22t41.5 8.5q17 0 21 -8.5t4 -18.5q0 -36 -41 -74t-129 -70q-11 -4 -20.5 -15t-9.5 -27q0 -24 8 -48t24 -44t39 -32.5t52 -12.5q31 0 62 14.5t58 35t48.5 41.5t34.5 35q7 7 7 16q0 11 -8 17t-19 6q-5 0 -10.5 -2.5t-9.5 -7.5 q-10 -12 -29 -30t-42.5 -34.5t-47.5 -28.5t-44 -12q-29 0 -48.5 25t-24.5 63q30 6 66 23.5t66.5 43t51.5 58t21 68.5q0 13 -4 25.5t-13.5 22t-25.5 15.5t-41 6q-32 0 -57.5 -14t-45.5 -31q32 37 61 74.5t50.5 72t34.5 64.5t13 52q0 25 -10 39t-31 14q-23 0 -44 -23t-42 -64 t-44 -98l-50 -128l-88 -102q-47 -53 -90 -96q-7 -7 -7 -17t8 -18t18 -8t17 7z" />
<glyph unicode="l" horiz-adv-x="228" d="M292 589q0 -31 -17 -69.5t-40.5 -75.5t-47.5 -68.5t-39 -49.5q17 43 37 87t40 80.5t37.5 62.5t29.5 33zM17 98l3 3q-9 -35 -9 -63q0 -29 12.5 -46t41.5 -17q22 0 46 12.5t48 31t47 40.5l40 40q7 7 7 16q0 10 -8 18t-19 8q-9 0 -16 -8q-15 -16 -36 -35t-42.5 -35 t-39.5 -27t-25 -11h-2q-5 2 -5 16q0 19 11.5 61t25.5 88q117 122 179 222.5t62 169.5q0 23 -6.5 40t-25.5 17q-38 0 -72 -39t-65 -100.5t-59 -137.5l-55 -150l-39 -44l-33 -34q-8 -7 -8 -17q0 -11 7.5 -18.5t18.5 -7.5q9 0 16 7z" />
<glyph unicode="m" horiz-adv-x="698" d="M345 326q-12 0 -35.5 -11.5t-52 -30.5t-58.5 -44t-54 -52l15 62q7 31 7 49q0 11 -6 13.5t-14 2.5q-11 0 -16 -2.5t-10 -13.5q-22 -42 -61 -83l-78 -83q-7 -7 -7 -16q0 -10 8 -18t18 -8q9 0 17 8l29 29q18 19 29 33q-11 -30 -25 -63t-20 -53q-5 -18 -5 -27q0 -29 38 -29 q30 54 59.5 95.5t62 75t69.5 61t84 52.5q0 -12 -8 -40t-20 -62.5t-27 -70.5l-27 -67q-6 -14 -6 -22q0 -23 37 -24l52 74q29 41 64.5 80.5t77.5 74.5t89 56q-6 -17 -14.5 -38.5t-18.5 -43.5l-20 -43l-21 -39q-24 -45 -24 -79q0 -25 13.5 -39.5t38.5 -14.5q28 0 55 12.5 t51.5 31t46.5 40.5l38 40q7 7 7 17t-7.5 17.5t-18.5 7.5q-10 0 -17 -8q-15 -16 -35 -35t-40.5 -35t-38 -26.5t-26.5 -10.5q-7 0 -9 3.5t-2 7.5q0 6 9 25l23 47l27 58q14 31 23 60q6 17 9.5 31t3.5 26q0 20 -10.5 31t-33.5 11q-22 0 -51.5 -15.5t-60 -39t-59 -51.5t-49.5 -52 q10 26 18 54.5t8 50.5q0 29 -11.5 41t-29.5 12z" />
<glyph unicode="n" horiz-adv-x="460" d="M443 132q-9 -12 -29 -30t-42 -35.5t-42 -30t-29 -12.5q13 27 28 63.5t27.5 72.5t21 66.5t8.5 46.5q0 29 -11.5 41t-29.5 12q-12 0 -35.5 -11.5t-52 -30.5t-58.5 -44t-54 -52l15 62q7 31 7 49q0 11 -6 13.5t-14 2.5q-11 0 -16 -2.5t-10 -13.5q-22 -42 -61 -83l-78 -83 q-7 -7 -7 -18t8 -17.5t18 -6.5q9 0 17 8l29 29q18 19 29 33q-9 -30 -20 -57l-20 -49q-3 -8 -6.5 -20t-3.5 -17q0 -29 38 -29q28 54 57 96t61.5 76t70 62t84.5 53q0 -12 -7.5 -40.5t-19.5 -63.5t-26 -72t-27 -67q-3 -7 -4.5 -14t-1.5 -12q0 -32 43 -32q23 0 49.5 14t51 33 t45.5 39l33 32q10 10 10 22q0 11 -7 18.5t-17 7.5q-9 0 -16 -9z" />
<glyph unicode="o" horiz-adv-x="368" d="M185 289q24 0 44 -6q-26 -8 -41.5 -31.5t-15.5 -51.5q0 -18 6.5 -34.5t15.5 -30t19 -23t18 -15.5q-26 -33 -57.5 -55t-71.5 -22q-36 0 -55.5 25t-19.5 63q0 28 10 60t30 59t49.5 44.5t68.5 17.5zM334 208q0 25 -9 41t-21 24t-25 11t-20 3q8 8 8 20q0 16 -17 22 q-14 5 -30 7.5t-34 2.5q-54 0 -93 -24t-65 -59.5t-38.5 -76t-12.5 -74.5q0 -27 7.5 -51.5t22.5 -43t38.5 -29.5t56.5 -11q30 0 55.5 8.5t47.5 23t39.5 33t32.5 39.5q18 -5 34 -5q25 0 46 9.5t32 24.5q5 8 5 14q0 10 -8 16.5t-18 6.5q-13 0 -21 -11q-4 -4 -12 -6.5t-24 -2.5 h-4q5 7 10 18t8.5 23.5t6 25t2.5 21.5zM284 208q0 -22 -6.5 -38t-18.5 -33q-22 15 -29.5 35.5t-7.5 32.5q0 32 34 32q18 0 23 -7t5 -22z" />
<glyph unicode="p" horiz-adv-x="478" d="M200 -35q13 0 25 2t23 7q12 -3 26 -3q27 0 57.5 11.5t59 29t54 38.5t42.5 39q11 11 13.5 16.5t2.5 10.5q0 10 -7.5 17.5t-18.5 7.5q-5 0 -10 -2.5t-14 -13.5q-20 -22 -51 -47t-66 -43q15 14 30 32.5t27.5 40.5t20.5 46t8 48q0 57 -32 93.5t-89 36.5q-38 0 -72 -14.5 t-64 -40.5q2 8 2.5 20t0.5 23q0 4 -6.5 5.5t-14.5 1.5q-10 0 -14 -1q-18 -36 -36 -62.5t-37 -48.5t-38 -41l-40 -41q-7 -7 -7 -17t7.5 -17.5t18.5 -7.5q10 0 17 8l28 29l31 32l-41 -113l-36 -103l-33 -98l-32 -97q-3 -11 -4.5 -17t-1.5 -12q0 -8 8.5 -12t18.5 -4 q11 0 20 2.5t12 13.5q35 103 69 216t81 231q30 51 73 83t88 32q27 0 41.5 -9.5t21.5 -22t8.5 -26t1.5 -21.5q0 -35 -17.5 -67t-42.5 -56.5t-52 -40.5t-45 -19q-8 3 -16 8l-17 10q-8 6 -15.5 10t-13.5 4q-17 0 -29.5 -14.5t-12.5 -31.5q0 -21 27 -31t62 -10z" />
<glyph unicode="q" horiz-adv-x="400" d="M48 -28q27 0 52.5 11.5t47.5 27.5l-28 -51q-16 -27 -30 -54.5t-26.5 -55t-19.5 -51.5q-6 -23 -6 -43q0 -24 10 -40t33 -16q26 0 51.5 16.5t46 45.5t33 68t12.5 84q0 17 -1 30t-1 15q0 4 5 6q22 5 49 20.5t54 35t51 41t39 39.5q6 7 6 16q0 11 -7.5 18t-18.5 7q-9 0 -18 -9 q-11 -14 -32 -32t-43.5 -35t-44 -30.5t-34.5 -17.5q-17 -6 -27 -16t-14.5 -22.5t-5.5 -26.5t-1 -26q0 -22 -3.5 -46.5t-12 -47.5t-23.5 -43t-38 -33q-5 -3 -10 -3q-11 0 -11 6t1.5 11t4.5 14q6 17 17 41l25 53l28 57l28 56l26 47q11 21 18 32l9 19q5 11 13 26t18.5 37 t24.5 55q1 29 -22 29q-11 0 -22 -13.5t-28 -43.5l-31 -52q-17 -28 -37 -52t-43.5 -39.5t-50.5 -15.5q-43 0 -43 40q0 30 14 69t48 73t89.5 57.5t139.5 23.5q13 0 19 7.5t6 17.5t-6 17.5t-19 7.5q-94 0 -159.5 -28.5t-106 -70t-58.5 -89t-18 -85.5q0 -42 20 -65.5t61 -23.5z " />
<glyph unicode="r" horiz-adv-x="340" d="M100 332q0 -17 19 -32q-11 -20 -31 -46l-40 -50q-20 -24 -38 -43.5t-27 -25.5t-9 -17t8 -19.5t19 -8.5q9 0 16 7q12 11 31 32t40 47t40.5 54t31.5 54q24 -9 42 -13.5t25 -4.5q-2 -8 -11 -27l-24 -44l-28 -53l-31 -54q-10 -17 -13.5 -31.5t-3.5 -25.5q0 -29 15 -42.5 t42 -13.5q18 0 45 14.5t55 35t52 41.5t35 34q6 7 6 15q0 10 -8.5 17.5t-19.5 7.5t-18 -8q-11 -13 -31.5 -31t-42 -35t-40.5 -29t-27 -12t-10 1.5t-2 6.5q0 11 14 40l29 55l31 60q15 30 25.5 54t10.5 36t-4 18.5t-10 9.5t-13 4t-13 2l-25 4q-14 3 -34 11q-3 21 -14.5 30 t-25.5 9q-16 0 -27 -10t-11 -24z" />
<glyph unicode="s" horiz-adv-x="324" d="M306 133q-17 -18 -40 -38t-52 -37q2 11 3 23.5t1 26.5q0 43 -10.5 91t-31.5 93l4 14q2 6 2 17q0 19 -11 27t-25 8q-19 0 -30 -8.5t-11 -24.5q0 -11 6 -20l11 -17q-20 -29 -59 -70l-81 -85q-7 -7 -7 -17t7.5 -17.5t17.5 -7.5t18 8l71 73q33 35 57 66q11 -35 15.5 -69 t4.5 -62q0 -27 -3 -46.5t-6 -27.5q-8 -5 -20 -8t-23 -3q-25 1 -53 6.5t-48 5.5q-30 0 -30 -28q0 -13 5.5 -18.5t16.5 -8.5q20 -5 39 -7.5t37 -2.5q45 0 84.5 12.5t72.5 32t59.5 42.5t44.5 43q7 7 7 16q0 11 -7.5 18.5t-18.5 7.5q-9 0 -17 -8z" />
<glyph unicode="t" horiz-adv-x="295" d="M17 102q4 4 7.5 7t6.5 6q-11 -38 -11 -66q0 -36 20 -57t68 -21q27 0 57 14t58 34t52 42t39 39q7 7 7 16q0 11 -8 18t-18 7t-19 -9q-6 -7 -26 -25.5t-44.5 -37.5t-48.5 -33.5t-38 -14.5q-22 0 -33.5 9t-11.5 31t10 52q20 59 52.5 131.5t72.5 147.5q35 0 63 2.5t51 5.5 q11 2 16.5 8.5t5.5 14.5q0 10 -7 18.5t-21 8.5q-17 0 -36 -3.5t-42 -3.5q16 29 28.5 54.5t20.5 45.5q5 13 5 20q0 21 -27 21q-17 0 -31 -27l-27 -52q-15 -30 -30 -64q-30 0 -57.5 2t-47.5 2q-14 0 -21 -9t-7 -19q0 -9 5.5 -15.5t16.5 -6.5q18 0 39.5 -2t44.5 -2l-19 -40 l-20 -39l-34 -57q-15 -24 -29 -43.5t-30 -37t-36 -36.5q-8 -8 -8 -18t7.5 -17.5t17.5 -7.5t17 7z" />
<glyph unicode="u" horiz-adv-x="495" d="M60 -22q21 0 43.5 6t48.5 20t54.5 38t61.5 59q-11 -33 -11 -58q0 -30 13.5 -49t41.5 -19q29 0 59 14.5t57 35t48.5 43t32.5 38.5q6 9 6 17q0 10 -6 16t-14 6q-10 0 -18 -11q-7 -10 -26 -29.5t-42 -38.5t-45.5 -33.5t-36.5 -14.5q-13 0 -18.5 9.5t-5.5 23.5q0 22 10 50 q15 42 40 87l53 95q2 3 2 8q0 9 -8.5 15t-17.5 6q-11 0 -15 -8q-38 -63 -77 -115t-77 -89t-74 -57t-68 -20q-11 0 -11 16q0 19 17 61q8 20 19 44l23 51l25 52l25 50q2 4 2 6q0 8 -7.5 13t-15.5 5q-6 0 -9 -4q-9 -15 -27.5 -39t-41 -50t-46 -50.5t-41.5 -40.5q-10 -9 -10 -19 q0 -9 6.5 -15.5t16.5 -6.5q8 0 16 6q2 2 7 6l11 10l10 10q5 4 8 7q-32 -64 -32 -107q0 -50 44 -50z" />
<glyph unicode="v" horiz-adv-x="430" d="M12 100q5 5 14.5 16t19.5 25q-8 -32 -8 -63q0 -21 3 -40.5t8.5 -34.5t13.5 -24t17 -9q16 0 39 14t49.5 37t54.5 54t54 64q0 -38 22 -60t61 -22q23 0 47.5 10t42.5 34q6 7 6 16q0 10 -7 16.5t-15 6.5q-10 0 -19 -10q-11 -16 -24 -23t-26 -7q-20 0 -34.5 11t-14.5 37t11 54 q17 24 29 48t12 41q0 15 -7 23.5t-24 8.5q-12 0 -21 -9t-15.5 -23t-11 -32.5t-7.5 -37.5q-28 -44 -57 -80.5t-54.5 -63.5t-46 -42t-31.5 -15q-6 0 -8.5 12.5t-2.5 33.5q0 42 11 92.5t34 99.5q5 9 10.5 17.5t5.5 19.5t-9 16t-20 5q-10 0 -17.5 -12.5t-15.5 -29.5 q-8 -18 -19.5 -38.5t-25 -39.5t-27 -35t-24.5 -25q-13 -12 -13 -22q0 -9 6.5 -14.5t14.5 -5.5q3 0 8 0.5t11 5.5z" />
<glyph unicode="w" horiz-adv-x="644" d="M210 33q0 -25 15.5 -41.5t38.5 -16.5q16 0 43.5 13t59 35.5t63.5 52.5t58 63q0 -38 22 -60t61 -22q23 0 47.5 10t42.5 34q6 7 6 16q0 10 -7 16.5t-15 6.5q-10 0 -19 -10q-11 -16 -24 -23t-26 -7q-20 0 -34.5 11t-14.5 37t11 54q17 24 29 48t12 41q0 15 -7 23.5t-24 8.5 q-12 0 -21 -9t-15.5 -23t-11 -32.5t-7.5 -37.5q-28 -44 -60.5 -81t-62.5 -64t-54.5 -42.5t-36.5 -15.5q-13 0 -18.5 9.5t-5.5 23.5q0 22 10 50q15 42 40 87l53 95q2 3 2 8q0 9 -8.5 15t-17.5 6q-11 0 -15 -8l-69 -115q-32 -52 -61 -89t-57.5 -57t-60.5 -20q-11 0 -11 16 q0 19 17 61q8 20 19 44l23 50l24 52q12 25 24 47q3 6 3 11q0 8 -7 12.5t-15 4.5q-12 0 -17 -8q-8 -13 -25.5 -36.5t-38.5 -49t-43.5 -50t-40.5 -40.5q-10 -9 -10 -19q0 -9 6.5 -15.5t16.5 -6.5q8 0 16 6q2 2 7 6l11 10l10 10q5 4 8 7q-32 -64 -32 -107q0 -50 44 -50 q42 0 79 18.5t76 64.5q-5 -17 -5 -28z" />
<glyph unicode="x" horiz-adv-x="480" d="M198 279q5 0 9.5 -11.5t8.5 -30.5t8 -44l10 -51q-41 -37 -78 -67l-76 -60q-10 -7 -10 -19q0 -10 7 -18.5t18 -8.5q7 0 15 6l66 53q34 26 69 57q11 -45 25.5 -78t37.5 -33q25 0 53.5 14.5t54.5 34.5t48 41.5t35 35.5q7 7 7 16q0 10 -8 17.5t-19 7.5t-18 -9 q-8 -11 -28.5 -29t-42.5 -35.5t-41.5 -30.5t-25.5 -13q-10 0 -18 29.5t-17 71.5q35 32 72 72.5t79 91.5q6 7 6 15q0 11 -8 18.5t-18 7.5q-11 0 -18 -9l-65 -75l-59 -62q-10 67 -28.5 106.5t-42.5 39.5q-20 0 -45.5 -19t-54 -48t-59 -63.5t-61.5 -65.5q-8 -7 -8 -18 q0 -10 7.5 -17.5t16.5 -7.5t16 7l62 64l54 59q24 26 41 42t23 16z" />
<glyph unicode="y" horiz-adv-x="460" d="M72 -252q0 22 21 58t81 83l-17 -37l-18 -38l-17 -35q-7 -16 -13 -26q-8 -14 -14 -23.5t-12 -9.5q-11 0 -11 28zM265 91l-1 -2l-24 -53l-25 -56q-52 -34 -88.5 -63t-59 -57.5t-33 -59t-10.5 -68.5q0 -28 11.5 -50t41.5 -22q16 0 35.5 11t27.5 28l59 121l57 123l48 25 q29 16 59.5 35.5t61 43.5t54.5 53q8 9 6 19t-9 16t-17 6t-18 -9q-16 -20 -35.5 -37t-40 -31t-39 -24.5t-33.5 -16.5q31 60 53 114t40 91q10 20 15.5 34t5.5 26q0 6 -5.5 11t-12.5 7.5t-13.5 2t-9.5 -5.5q-30 -55 -62 -97t-64.5 -72.5t-63 -51t-57.5 -32.5q-21 -9 -23 10 t8 53.5t28 76.5t36 79q11 22 3 34.5t-22 12.5q-8 0 -14.5 -9.5t-14.5 -19.5q-25 -34 -62 -75l-76 -79q-8 -9 -6.5 -18.5t8 -16t16.5 -7.5t18 8l45 45q-14 -34 -17 -66t5 -54t27 -29.5t51 6.5t66.5 36t69.5 54z" />
<glyph unicode="z" horiz-adv-x="404" d="M88 -248q0 13 6 29t15 32t19.5 31t19.5 25q-3 -15 -8.5 -36t-13 -40.5t-15.5 -33t-17 -13.5q-6 0 -6 6zM198 -16l-4 14q-1 7 -3 14q26 15 55 41.5t53.5 59.5t40.5 70.5t16 74.5q0 36 -20 56.5t-55 20.5q-50 0 -90.5 -19.5t-76 -49.5t-68 -65.5t-64.5 -66.5q-7 -7 -7 -16 q0 -11 8 -19t19 -8q9 0 16 7l64 68q31 33 62.5 60t64 43.5t67.5 16.5q13 0 20.5 -8.5t7.5 -28.5q0 -24 -13.5 -53t-34.5 -56.5t-45.5 -50t-45.5 -34.5q-13 13 -31.5 20.5t-35.5 7.5q-24 0 -36.5 -16.5t-12.5 -36.5q0 -18 11 -33t34 -15q14 0 29.5 4t21.5 6q6 -21 8 -47 q-57 -52 -88.5 -108.5t-31.5 -101.5q0 -27 12.5 -41t31.5 -14q21 0 42.5 15t39 45t29 75t13.5 105q28 25 59 48l60 44q30 22 56.5 44t47.5 45q6 7 6 15q0 11 -8 18.5t-18 7.5q-11 0 -18 -9q-15 -17 -36 -34.5t-46 -35.5l-52 -37zM93 30q0 2 4.5 4t10.5 2t10.5 -2t4.5 -4 t-4.5 -4t-10.5 -2t-10.5 2t-4.5 4z" />
<glyph unicode="{" horiz-adv-x="285" d="M305 639q0 26 -25 26q-27 0 -55.5 -15t-52.5 -41t-41 -61t-21 -75q-3 -23 -9 -40.5t-14 -30.5q-9 -17 -19 -29l-20 -22l-18 -19q-8 -9 -12 -18q6 -11 13 -21t12.5 -21t9.5 -24.5t4 -30.5q0 -12 -1 -27t-5 -34q-5 -23 -10 -50.5t-5 -61.5q0 -30 10.5 -51.5t25.5 -35.5 t31.5 -20.5t27.5 -6.5t17 8t6 18q0 8 -4 14.5t-13 8.5q-29 7 -40 26t-11 48q0 20 4 43t9 49q4 18 6.5 36.5t2.5 33.5q0 22 -4.5 38t-10.5 27.5t-12.5 19.5t-11.5 13l31 23q18 15 34 44q9 16 15.5 37t10.5 50q8 59 39 97t87 52q10 2 14.5 8.5t4.5 14.5z" />
<glyph unicode="|" horiz-adv-x="210" d="M149 715q-9 0 -15.5 -5t-8.5 -16l-104 -711q-1 -5 -1 -8q0 -25 26 -25q21 0 24 21l104 711v9q0 11 -6 17.5t-19 6.5z" />
<glyph unicode="}" horiz-adv-x="285" d="M-9 -53q0 -26 25 -26q27 0 55 14t52 38.5t41 58.5t22 73q4 33 15.5 59.5t27 47.5t33.5 37.5t35 30.5l-19 20l-19 21.5t-14.5 22t-5.5 25.5q0 12 1 27t5 34q5 23 10 50.5t5 61.5q0 30 -10.5 51.5t-25.5 35.5t-31.5 20.5t-27.5 6.5t-17 -8t-6 -18q0 -8 4 -14.5t13 -8.5 q29 -7 40 -26t11 -48q0 -20 -4 -43t-9 -49q-4 -18 -6.5 -36.5t-2.5 -33.5q0 -22 5 -37t12 -24.5t14.5 -16t12.5 -11.5l-24 -19q-14 -11 -28.5 -30t-26 -46.5t-17.5 -67.5q-8 -59 -39 -97t-87 -52q-10 -2 -14.5 -8.5t-4.5 -14.5z" />
<glyph unicode="~" horiz-adv-x="395" d="M57 251q10 0 17 7l35 33q16 15 33 15q13 0 24 -6t25 -17q12 -10 28.5 -21t42.5 -11q35 0 65 14t50 41q5 8 5 14q0 11 -8 18.5t-18 7.5q-12 0 -19 -10q-14 -18 -31.5 -26.5t-43.5 -8.5q-12 0 -22 9l-25 20q-12 11 -29.5 18.5t-43.5 7.5q-21 0 -37 -7.5t-28 -17.5 t-21 -20.5t-16 -16.5q-8 -8 -8 -18t7.5 -17.5t17.5 -7.5z" />
<glyph unicode="&#xa1;" horiz-adv-x="290" d="M13 -75q13 0 20 13q23 41 45.5 94t44.5 113l45 125l46 131q1 2 1.5 5t0.5 10t-8 13t-18 6q-16 0 -22 -16l-48 -131l-44 -126q-22 -59 -43.5 -110.5t-43.5 -89.5q-3 -6 -3 -12q0 -11 8.5 -18t18.5 -7zM248 572q-10 0 -23.5 -3.5t-30.5 -12.5q-17 0 -17 -14t6.5 -24.5 t15 -18t18 -11.5t15.5 -4q21 0 34.5 18.5t13.5 38.5q0 13 -7.5 22t-24.5 9z" />
<glyph unicode="&#xa2;" horiz-adv-x="325" d="M286 552q-3 -7 -8 -20l-11 -29l-11 -29q-5 -13 -8 -20h-9q-40 0 -79.5 -19.5t-71 -53.5t-51.5 -80t-20 -98q0 -42 17.5 -76.5t52.5 -51.5l-11 -27l-15 -40l-15 -39q-7 -18 -10 -24q-2 -4 -2 -10q0 -11 8.5 -18.5t19.5 -7.5q14 0 20 14l11 27l16 42q8 22 16 41.5t11 27.5 q4 -1 9 -1q49 0 90 18t71.5 41t50 46t25.5 32q4 5 4 13q0 11 -8.5 18t-18.5 7q-12 0 -21 -12q-11 -16 -27.5 -34.5t-39 -35t-51.5 -28t-63 -14.5l60 143l59 140q5 -6 5 -14q0 -6 -2 -8q-3 -5 -3 -9q0 -7 10 -13.5t23 -6.5q6 0 9.5 5t5.5 11.5t2.5 14t0.5 12.5q0 34 -32 53 q3 7 8 20l11 27l10 27q5 13 8 19q2 4 2 10q0 11 -8.5 18t-18.5 7q-6 0 -12 -3.5t-9 -11.5zM68 204q0 44 15.5 80.5t39 63t51.5 42t53 17.5l-61 -145l-60 -143q-18 11 -28 33.5t-10 51.5z" />
<glyph unicode="&#xa3;" horiz-adv-x="565" d="M14 25q15 0 27.5 -4t26.5 -12q-17 -8 -32 -10t-26 -2q-28 0 -28 13q0 15 32 15zM240 243q-34 -81 -65 -128.5t-60 -73.5q-26 14 -52.5 23.5t-48.5 9.5q-34 0 -56.5 -18.5t-22.5 -45.5q0 -17 7 -29t18.5 -19.5t25.5 -11t28 -3.5q28 0 55 7.5t53 26.5q34 -17 74 -31t82 -14 q77 0 134 16.5t101 48.5q10 7 10 18q0 10 -7.5 18t-18.5 8q-7 0 -14 -4q-36 -26 -84.5 -40.5t-120.5 -14.5q-29 0 -57.5 9t-56.5 22q32 35 65.5 90.5t66.5 138.5q30 0 56 4.5t46 4.5q11 0 16.5 6.5t5.5 15.5q0 10 -7 19t-21 9q-15 0 -34 -4t-41 -4l39 113q19 53 32 105 q7 28 14.5 45.5t15.5 27t17.5 12.5t20.5 3q10 0 19.5 -7t16.5 -19t11 -27t4 -31q0 -24 -11 -46.5t-33 -35.5q-12 -8 -12 -19q0 -10 8 -18t19 -8q3 0 6.5 0.5t6.5 2.5q33 23 48 58.5t15 71.5q0 24 -7 47t-20 40.5t-31.5 28t-41.5 10.5q-26 0 -45 -10t-33 -27.5t-24 -40.5 t-16 -50q-11 -45 -29.5 -101.5t-44.5 -128.5q-23 0 -46.5 -1.5t-45.5 -1.5q-12 0 -18.5 -7.5t-6.5 -17.5t6.5 -17.5t18.5 -7.5q17 0 34.5 1.5t35.5 1.5z" />
<glyph unicode="&#xa5;" d="M357 293q8 0 12 1l-23 -32l-23 -29q-29 -4 -59 -7.5t-68 -3.5q-12 0 -18.5 -7.5t-6.5 -17.5t6.5 -17.5t18.5 -7.5q27 0 49.5 2.5t42.5 2.5q-5 -7 -8 -13l-8 -14h-79q-13 0 -19 -7.5t-6 -17.5t6 -17.5t19 -7.5h54l-49 -94q-27 -50 -72 -113q-5 -8 -5 -14q0 -11 8 -18.5 t19 -7.5t18 10q27 37 47 69.5t36 61.5t29 55l25 50q29 0 59 -0.5t67 -0.5q13 0 19 7.5t6 17.5t-6 17.5t-19 7.5q-29 0 -53 0.5t-47 0.5q5 9 11 18l12 18q26 5 54 6t63 1q13 0 19.5 8t6.5 18q0 9 -6 16.5t-18 7.5q-23 0 -43 -0.5t-37 -0.5l60 79l64 86l62 86l54 80q4 7 4 13 q0 11 -9.5 17t-20.5 6q-13 0 -20 -9q-17 -21 -39 -51l-44 -62l-44 -62q-23 -29 -43 -48q-26 -26 -48 -26q-18 0 -23 20q-8 37 -18 70l-21 65l-23 68q-11 35 -22 76q-2 10 -8.5 14.5t-14.5 4.5q-10 0 -18 -6.5t-8 -17.5q0 -2 0.5 -5t4.5 -17q9 -37 20 -70l22 -64l20 -64 q10 -32 18 -66q8 -35 24 -50t37 -15z" />
<glyph unicode="&#xa6;" horiz-adv-x="133" d="M89 327h-35v-327h35v327zM54 436h35v319h-35v-319z" />
<glyph unicode="&#xa7;" horiz-adv-x="458" d="M62 229q0 -39 20 -76t61 -60q28 -17 53.5 -31t45 -28.5t31 -31.5t11.5 -41q0 -22 -7.5 -41t-20 -32.5t-29.5 -21.5t-36 -8q-21 0 -44.5 10.5t-44.5 35.5q-7 8 -18 8q-10 0 -18 -7.5t-8 -17.5q0 -8 6 -15q27 -34 60.5 -49t65.5 -15q28 0 54.5 10.5t46.5 29.5t32 45t12 58 q0 40 -15 66t-32 42q69 16 104.5 57t35.5 101q0 40 -14.5 67t-37 45t-48.5 30t-48 24q-43 22 -70.5 47t-27.5 63q0 15 6.5 31t18.5 29.5t30 22.5t41 9q20 0 44 -8t52 -26q7 -4 14 -4q11 0 18 6.5t7 16.5q0 13 -11 21q-32 23 -62.5 33.5t-58.5 10.5q-32 0 -59.5 -12 t-47.5 -32.5t-31 -46.5t-11 -54q0 -45 19 -71.5t49 -46.5q-35 -5 -61 -18.5t-43 -33t-25.5 -43t-8.5 -48.5zM378 217q0 -21 -6 -39.5t-21.5 -33.5t-42 -25.5t-66.5 -16.5q-57 17 -93 53t-36 76q0 18 8 36.5t25.5 33.5t45.5 24t68 9q39 -15 62 -29.5t35.5 -29t16.5 -29 t4 -29.5z" />
<glyph unicode="&#xa8;" horiz-adv-x="290" d="M58 424q9 0 20.5 3t21 8t16.5 11.5t7 14.5q0 9 -6 18.5t-14.5 16.5t-18 11.5t-17.5 4.5q-20 0 -31.5 -17t-11.5 -36q0 -14 8 -24.5t26 -10.5zM220 424q10 0 21.5 3t21 8t16 11.5t6.5 14.5q0 9 -5.5 18.5t-14 16.5t-18.5 11.5t-18 4.5q-20 0 -31.5 -17t-11.5 -36 q0 -14 8 -24.5t26 -10.5z" />
<glyph unicode="&#xa9;" horiz-adv-x="555" d="M345 386q0 1 -0.5 2t-0.5 2q-12 24 -30.5 35t-39.5 11q-24 0 -45.5 -12t-38 -31t-26.5 -43t-10 -49q0 -19 6 -37t18 -32.5t30 -23t42 -8.5q31 0 53.5 6.5t40.5 16.5t31.5 23t26.5 27q2 2 2 6q0 10 -10 10q-4 0 -6 -2l-31 -27q-14 -12 -29 -21t-33.5 -14t-42.5 -5 q-19 0 -33.5 7.5t-24.5 19t-15 26.5t-5 30q0 16 7 35.5t20.5 37t31.5 29t41 11.5q34 0 52 -36q3 -5 7 -5q5 0 8.5 3t3.5 8zM500 318q0 42 -13 81.5t-38 71t-61.5 50.5t-82.5 19q-61 0 -108.5 -22t-79.5 -57.5t-49 -80t-17 -89.5q0 -43 14 -79t41 -62t65 -40.5t86 -14.5 q64 0 110 19t75.5 50.5t43.5 71.5t14 82zM71 291q0 41 15 82t45 73.5t73.5 53t100.5 20.5q40 0 72.5 -17.5t55 -46.5t34.5 -66t12 -75t-12.5 -74t-39 -64t-68 -45t-98.5 -17q-94 0 -142 49t-48 127z" />
<glyph unicode="&#xaa;" horiz-adv-x="315" d="M34 305q-13 0 -18.5 -6.5t-5.5 -14.5t6 -13.5t18 -5.5h270q12 0 18 6t6 14t-5.5 14t-18.5 6h-270zM111 331q20 0 38 9t33 23q0 -12 8.5 -20.5t19.5 -8.5q16 0 33 7t33 17.5t30 23.5l25 24q7 7 7 14q0 6 -3.5 10.5t-10.5 4.5q-8 0 -14 -6q-7 -8 -20 -19t-26.5 -21t-26 -17 t-19.5 -7q-6 0 -6 9q0 7 6.5 20.5t14.5 27.5l15 26q7 12 9 17q9 16 9 28q0 14 -13 14q-8 0 -11 -4t-11 -16q-8 -15 -21.5 -37t-30 -41.5t-33.5 -33.5t-32 -14q-11 0 -17.5 7t-6.5 21t7.5 39t27 49t54 42t89.5 18q13 0 17.5 5t4.5 11q0 5 -4 10t-15 5q-58 0 -98 -18 t-64.5 -44.5t-35.5 -57.5t-11 -57q0 -28 11 -44t38 -16z" />
<glyph unicode="&#xab;" horiz-adv-x="560" d="M532 445q-6 0 -13 -4q-20 -13 -55 -29l-75 -36l-80 -37q-40 -19 -70 -37q-23 -14 -36 -27t-13 -24q0 -13 4.5 -27t17.5 -30q17 -22 45 -46t59 -47l62 -44l52 -37q8 -5 15 -5q11 0 18.5 8t7.5 18q0 12 -11 19l-66 44q-37 26 -71.5 53t-58.5 50.5t-24 35.5q0 6 17.5 17 t44.5 24l62 30l68 32l64 29q30 14 49 24q12 7 12 20q0 10 -7 18t-18 8zM350 455q-6 0 -13 -4q-20 -13 -55 -29l-75 -36l-80 -37q-40 -19 -70 -37q-23 -14 -36 -27t-13 -24q0 -13 4.5 -27t17.5 -30q17 -22 45 -46t59 -47l62 -44l52 -37q8 -5 15 -5q11 0 18.5 8t7.5 18 q0 12 -11 19l-66 44q-37 26 -71.5 53t-58.5 50.5t-24 35.5q0 6 17.5 17t44.5 24l62 30l68 32l64 29q30 14 49 24q12 7 12 20q0 10 -7 18t-18 8z" />
<glyph unicode="&#xac;" horiz-adv-x="305" d="M178 526q14 0 26 6l22 13q-11 -26 -20.5 -52.5t-17.5 -51.5l-15 -47q-7 -21 -13 -37q-3 -5 -3 -10q0 -9 11 -9q5 0 8 6q9 24 18 54l21 62q11 32 24 65.5t29 63.5q-2 6 -5.5 8.5t-6.5 2.5q-7 0 -15 -11t-19 -22q-9 -9 -20 -15t-26 -6q-9 0 -9 -9q0 -4 3 -7.5t8 -3.5z M66 312q-12 0 -18 -1t-6 -9t5.5 -9.5t18.5 -1.5h210q11 0 17.5 1t6.5 9t-5 9.5t-19 1.5h-210zM162 46q0 12 -4 22.5t-8.5 18.5t-9 13.5t-5.5 7.5l24 18q49 34 65 81q1 5 1 7q0 10 -10 10q-8 0 -9 -7q-8 -24 -21.5 -41t-37.5 -34l-24 -18q-16 20 -27.5 36.5t-11.5 31.5 q0 23 22 34t54 11t43 -7q2 0 2.5 -0.5t2.5 -0.5q4 0 6.5 3.5t2.5 7.5q0 6 -6 9q-7 4 -21.5 6t-31.5 2q-26 0 -44 -6.5t-29.5 -16t-17 -21t-5.5 -21.5q0 -23 14.5 -43t30.5 -37q-29 -23 -41.5 -40.5t-12.5 -43.5q0 -18 13.5 -29t36.5 -11t41 16t18 42zM73 31q0 4 1.5 10t6 14 t13.5 18t25 23q17 -20 20 -32t3 -18q0 -19 -11.5 -28.5t-27.5 -9.5q-13 0 -21.5 6t-8.5 17z" />
<glyph unicode="&#xad;" horiz-adv-x="350" d="M45 255q0 -10 6.5 -17.5t18.5 -7.5h210q12 0 18.5 7.5t6.5 17.5t-6.5 17.5t-18.5 7.5h-210q-12 0 -18.5 -7.5t-6.5 -17.5z" />
<glyph unicode="&#xae;" horiz-adv-x="476" d="M215 393q5 0 7 5q4 20 7.5 41t7 39.5t8 32.5t10.5 20q8 8 21 13t28 5q20 0 27.5 -11.5t7.5 -24.5q0 -15 -13 -19l-27 -8q-8 -2 -16.5 -5.5t-8.5 -14.5q0 -20 12.5 -45t38.5 -48q2 -2 5 -2t5 3t2 6t-2 4q-25 20 -36 44t-11 35q0 5 9.5 7.5t24.5 7.5q14 5 22.5 12.5 t8.5 22.5q0 20 -11.5 35t-37.5 15q-19 0 -34.5 -6t-24.5 -16q-9 -9 -14 -25t-8.5 -35t-6.5 -40t-8 -40v-2q0 -6 7 -6zM449 480q0 28 -9.5 54.5t-27.5 47t-44.5 33t-60.5 12.5q-43 0 -76.5 -15.5t-56 -40t-34.5 -55t-12 -61.5q0 -60 38.5 -96.5t107.5 -36.5q45 0 78 13.5 t54.5 36t32 50.5t10.5 58zM142 457q0 28 10.5 56t31.5 50t51.5 36t70.5 14q31 0 55 -11.5t40.5 -30.5t25 -43t8.5 -49q0 -27 -9.5 -52.5t-29.5 -45.5t-50 -32.5t-72 -12.5q-38 0 -63.5 11t-40.5 28.5t-21.5 39t-6.5 42.5z" />
<glyph unicode="&#xaf;" horiz-adv-x="270" d="M5 425q0 -10 5 -17.5t15 -7.5h222q10 0 15 7.5t5 17.5t-5 17.5t-15 7.5h-222q-10 0 -15 -7.5t-5 -17.5z" />
<glyph unicode="&#xb0;" horiz-adv-x="260" d="M133 434q15 0 29 6t24.5 16.5t16.5 23.5t6 28q0 19 -8 32t-19 21t-22.5 11t-17.5 3q-31 0 -53 -23t-22 -57q0 -16 6.5 -27.5t16.5 -19t21.5 -11t21.5 -3.5zM86 496q0 23 17 41t40 18q17 0 31.5 -13.5t14.5 -29.5q0 -21 -15 -39.5t-41 -18.5q-22 0 -34.5 12.5t-12.5 29.5z " />
<glyph unicode="&#xb2;" horiz-adv-x="330" d="M101 339q17 0 31 9l20 13l31 -13q16 -6 34 -6q21 0 44.5 5t39.5 22q5 5 5 9q0 10 -11 10q-4 0 -7 -3q-12 -14 -31.5 -18.5t-39.5 -4.5q-11 0 -22 4t-23 9l37 29l31 25l29 26q15 14 27 29.5t19.5 32.5t7.5 36q0 24 -17.5 43t-46.5 19q-18 0 -32 -5.5t-23.5 -13t-15 -15.5 t-7.5 -14q-2 -3 -2 -8q0 -10 10 -10q5 0 8 6q5 11 19 25.5t43 14.5q23 0 33.5 -12.5t10.5 -29.5q0 -29 -22 -54.5t-48 -48.5l-41 -33q-24 -19 -44 -33q-10 3 -20.5 5t-21.5 2q-14 0 -22.5 -8t-8.5 -18t7 -18t19 -8zM114 372q5 0 13 -2q-13 -9 -22 -9q-8 0 -8 4t5 5.5t12 1.5 z" />
<glyph unicode="&#xb3;" horiz-adv-x="359" d="M312 540q0 -10 -6.5 -26.5t-26.5 -26.5q-10 6 -20 7.5t-22 1.5q-9 0 -15.5 -5t-6.5 -13q0 -7 7 -12.5t18 -5.5q8 0 16.5 1t18.5 4q13 -11 13 -36q0 -34 -24 -56.5t-62 -22.5q-17 0 -32.5 12t-15.5 26v7q0 9 -10 9t-10 -13q0 -27 21.5 -44t46.5 -17q54 0 80 28.5t26 70.5 q0 17 -6 29l-7 15q25 16 31 36.5t6 30.5q0 23 -15.5 40.5t-41.5 17.5q-31 0 -48.5 -14t-23.5 -28q-1 -1 -1 -4q0 -10 10 -10q6 0 9 6q5 8 17.5 19t36.5 11q17 0 27 -11t10 -27z" />
<glyph unicode="&#xb4;" horiz-adv-x="210" d="M179 552q-2 0 -5 -0.5t-10 -4.5q-32 -17 -59 -37l-55 -42q-11 -8 -11 -19t7.5 -19t18.5 -8q6 0 13 4q34 23 58 44t53 34q15 7 15 22q0 10 -7 18t-18 8z" />
<glyph unicode="&#xb5;" horiz-adv-x="359" d="M214 526q14 0 26 6l22 13q-11 -26 -20.5 -52.5t-17.5 -51.5l-15 -47q-7 -21 -13 -37q-3 -5 -3 -10q0 -9 11 -9q5 0 8 6q9 24 18 54l21 62q11 32 24 65.5t29 63.5q-2 6 -5.5 8.5t-6.5 2.5q-7 0 -15 -11t-19 -22q-9 -9 -20 -15t-26 -6q-9 0 -9 -9q0 -4 3 -7.5t8 -3.5z M8 -16q17 0 31 9l20 13l31 -12q16 -7 34 -7q21 0 44.5 5t39.5 22q5 5 5 9q0 10 -11 10q-4 0 -7 -3q-12 -14 -31.5 -18.5t-39.5 -4.5q-11 0 -22 4t-23 9l37 28l31 26l29 26q15 14 27 29.5t19.5 32.5t7.5 36q0 24 -17.5 43t-46.5 19q-18 0 -32 -5.5t-23.5 -13t-15 -15.5 t-7.5 -14q-2 -3 -2 -8q0 -10 10 -10q5 0 8 6q5 11 19 25.5t43 14.5q23 0 33.5 -12.5t10.5 -29.5q0 -29 -22 -54.5t-48 -48.5l-41 -33q-24 -19 -44 -33q-10 3 -20.5 5t-21.5 2q-14 0 -22.5 -8t-8.5 -18t7 -18t19 -8zM21 17q5 0 13 -2q-13 -9 -22 -9q-8 0 -8 4t5 5.5t12 1.5z M72 312q-12 0 -18 -1t-6 -9t5.5 -9.5t18.5 -1.5h210q11 0 17.5 1t6.5 9t-5 9.5t-19 1.5h-210z" />
<glyph unicode="&#xb6;" horiz-adv-x="370" d="M469 571q-6 0 -12 -3.5t-10 -11.5l-36 -78l-53 -112l-62 -132l-60 -132l-51 -116q-22 -52 -31 -80q-3 -8 -3 -16q0 -10 8 -16.5t19 -6.5q16 0 22 17q9 28 31 80l51 114l60 134l62 132l53 115l36 77q3 6 3 11q0 11 -8 17.5t-19 6.5zM255 435l-20 -41l-15 -28l-14 -28 l-15 -35q-47 0 -88 9.5t-71.5 28t-48 46.5t-17.5 64q0 27 10 52t29 43.5t47 29.5t64 11q25 0 50 -7t45 -22.5t32.5 -40t12.5 -60.5v-12q0 -5 -1 -10zM85 -88q25 38 56 99t61 130t55 139t39 127l51 107q21 44 26 58q2 6 2 10q0 11 -8 17.5t-18 6.5q-16 0 -22 -16 q-3 -8 -11 -25l-18 -40q-10 31 -29 52t-43 34t-52 19t-55 6q-48 0 -85.5 -15.5t-63.5 -41t-39.5 -59t-13.5 -69.5q0 -51 24 -88.5t60.5 -62t80.5 -36.5t84 -12l-56 -117l-46 -107q-21 -48 -33.5 -84t-12.5 -52q0 -11 4.5 -13.5t10.5 -2.5q17 0 29 9.5t23 26.5z" />
<glyph unicode="&#xb7;" horiz-adv-x="180" d="M150 242q0 10 -7 17q1 2 1.5 2.5t1.5 2.5q-13 18 -25 25.5t-23 7.5q-20 0 -33.5 -18.5t-13.5 -37.5q0 -14 8 -23.5t25 -9.5q26 0 46 11.5t20 22.5z" />
<glyph unicode="&#x2219;" horiz-adv-x="180" d="M150 242q0 10 -7 17q1 2 1.5 2.5t1.5 2.5q-13 18 -25 25.5t-23 7.5q-20 0 -33.5 -18.5t-13.5 -37.5q0 -14 8 -23.5t25 -9.5q26 0 46 11.5t20 22.5z" />
<glyph unicode="&#xb8;" horiz-adv-x="230" d="M132 -6q0 -14 12 -23q17 -14 17 -43q0 -26 -14.5 -42.5t-43.5 -16.5q-23 0 -46 13q-6 3 -12 3q-11 0 -18 -8t-7 -18q0 -14 13 -21q33 -19 69 -19q56 0 82.5 32.5t26.5 78.5q0 23 -9 43.5t-26 35.5q-8 6 -16 6q-11 0 -19.5 -7t-8.5 -14z" />
<glyph unicode="&#xb9;" horiz-adv-x="359" d="M217 526q14 0 25 6l23 13q-11 -26 -20.5 -52.5t-17.5 -51.5l-15 -47q-7 -21 -13 -37q-3 -5 -3 -10q0 -9 11 -9q5 0 8 6q9 24 19 54l20 62q11 32 24 65.5t29 63.5q-2 6 -5.5 8.5t-6.5 2.5q-7 0 -15 -11t-19 -22q-9 -9 -20 -15t-26 -6q-9 0 -9 -9q0 -4 3 -7.5t8 -3.5z" />
<glyph unicode="&#xba;" horiz-adv-x="315" d="M41 305q-13 0 -18.5 -6.5t-5.5 -14.5t6 -13.5t18 -5.5h270q12 0 18 6t6 14t-5.5 14t-18.5 6h-270zM288 479q0 15 -5 24t-12.5 14.5t-15 7t-11.5 1.5q4 4 4 12q0 10 -10 13q-15 6 -38 6q-32 0 -55.5 -14.5t-39 -35.5t-23 -45.5t-7.5 -44.5q0 -33 18 -57t57 -24 q36 0 61.5 18.5t42.5 43.5q5 -1 10.5 -2t10.5 -1q14 0 26.5 6t19.5 15q3 4 3 8q0 6 -4.5 10t-10.5 4q-7 0 -13 -7q-5 -5 -21 -5h-3q7 8 11.5 25t4.5 28zM199 527q16 0 27 -4q-16 -5 -25 -18.5t-9 -30.5q0 -23 13 -39t22 -23q-15 -20 -34 -33t-43 -13q-22 0 -33.5 15 t-11.5 38q0 17 6 36t18 35t29.5 26.5t40.5 10.5zM259 479q0 -14 -4 -23t-11 -20q-14 9 -18 21t-4 20q0 19 20 19q11 0 14 -4t3 -13z" />
<glyph unicode="&#xbb;" horiz-adv-x="560" d="M35 42q6 0 13 4q19 13 54 30l76 34l80 38q40 19 70 37q23 14 36 27t13 24q0 13 -4.5 27t-17.5 30q-17 22 -45 46t-60 47l-61 44l-52 37q-8 5 -15 5q-11 0 -18.5 -8t-7.5 -18q0 -12 11 -19l65 -44q38 -26 72.5 -53t58.5 -50.5t24 -35.5q0 -6 -17.5 -17t-45.5 -25l-61 -29 l-68 -31l-64 -30q-30 -14 -49 -24q-12 -7 -12 -20q0 -10 7 -18t18 -8zM217 32q6 0 13 4q19 13 54 30l76 34l80 38q40 19 70 37q23 14 36 27t13 24q0 13 -4.5 27t-17.5 30q-17 22 -45 46t-60 47l-61 44l-52 37q-8 5 -15 5q-11 0 -18.5 -8t-7.5 -18q0 -12 11 -19l65 -44 q38 -26 72.5 -53t58.5 -50.5t24 -35.5q0 -6 -17.5 -17t-45.5 -25l-61 -29l-68 -31l-64 -30q-30 -14 -49 -24q-12 -7 -12 -20q0 -10 7 -18t18 -8z" />
<glyph unicode="&#xbc;" horiz-adv-x="359" d="M34 56q8 0 17.5 3t15.5 8q17 -4 39.5 -10.5t46.5 -11.5q-5 -14 -8.5 -30t-3.5 -24q0 -4 3.5 -6.5t7.5 -2.5q3 0 6 2t3 6q2 11 5 25.5t7 26.5q7 -2 13 -2h13q15 0 25 2q11 2 11 12q0 8 -8 8q-4 0 -7 -1q-8 -2 -19 -2q-5 0 -11 0.5t-11 1.5q13 46 31 87l29 62q2 5 2 6v2 q0 10 -10 10q-5 0 -9 -6q-4 -7 -24 -49.5t-39 -107.5q-19 4 -37 9l-36 10q15 15 31.5 39.5t31 50t23.5 46.5t9 29q0 9 -10 9q-8 0 -9 -7q-5 -13 -16 -35.5t-25.5 -46.5t-29.5 -46t-28 -34q-5 1 -10 1h-12q-24 0 -24 -20q0 -14 17 -14zM217 526q14 0 25 6l23 13 q-11 -26 -20.5 -52.5t-17.5 -51.5l-15 -47q-7 -21 -13 -37q-3 -5 -3 -10q0 -9 11 -9q5 0 8 6q9 24 19 54l20 62q11 32 24 65.5t29 63.5q-2 6 -5.5 8.5t-6.5 2.5q-7 0 -15 -11t-19 -22q-9 -9 -20 -15t-26 -6q-9 0 -9 -9q0 -4 3 -7.5t8 -3.5zM107 312q-12 0 -18 -1t-6 -9 t5.5 -9.5t18.5 -1.5h210q11 0 17.5 1t6.5 9t-5 9.5t-19 1.5h-210z" />
<glyph unicode="&#xbd;" horiz-adv-x="359" d="M214 526q14 0 26 6l22 13q-11 -26 -20.5 -52.5t-17.5 -51.5l-15 -47q-7 -21 -13 -37q-3 -5 -3 -10q0 -9 11 -9q5 0 8 6q9 24 18 54l21 62q11 32 24 65.5t29 63.5q-2 6 -5.5 8.5t-6.5 2.5q-7 0 -15 -11t-19 -22q-9 -9 -20 -15t-26 -6q-9 0 -9 -9q0 -4 3 -7.5t8 -3.5z M8 -16q17 0 31 9l20 13l31 -12q16 -7 34 -7q21 0 44.5 5t39.5 22q5 5 5 9q0 10 -11 10q-4 0 -7 -3q-12 -14 -31.5 -18.5t-39.5 -4.5q-11 0 -22 4t-23 9l37 28l31 26l29 26q15 14 27 29.5t19.5 32.5t7.5 36q0 24 -17.5 43t-46.5 19q-18 0 -32 -5.5t-23.5 -13t-15 -15.5 t-7.5 -14q-2 -3 -2 -8q0 -10 10 -10q5 0 8 6q5 11 19 25.5t43 14.5q23 0 33.5 -12.5t10.5 -29.5q0 -29 -22 -54.5t-48 -48.5l-41 -33q-24 -19 -44 -33q-10 3 -20.5 5t-21.5 2q-14 0 -22.5 -8t-8.5 -18t7 -18t19 -8zM21 17q5 0 13 -2q-13 -9 -22 -9q-8 0 -8 4t5 5.5t12 1.5z M72 312q-12 0 -18 -1t-6 -9t5.5 -9.5t18.5 -1.5h210q11 0 17.5 1t6.5 9t-5 9.5t-19 1.5h-210z" />
<glyph unicode="&#xbe;" horiz-adv-x="359" d="M312 540q0 -10 -6.5 -26.5t-26.5 -26.5q-10 6 -20 7.5t-22 1.5q-9 0 -15.5 -5t-6.5 -13q0 -7 7 -12.5t18 -5.5q8 0 16.5 1t18.5 4q13 -11 13 -36q0 -34 -24 -56.5t-62 -22.5q-17 0 -32.5 12t-15.5 26v7q0 9 -10 9t-10 -13q0 -27 21.5 -44t46.5 -17q54 0 80 28.5t26 70.5 q0 17 -6 29l-7 15q25 16 31 36.5t6 30.5q0 23 -15.5 40.5t-41.5 17.5q-31 0 -48.5 -14t-23.5 -28q-1 -1 -1 -4q0 -10 10 -10q6 0 9 6q5 8 17.5 19t36.5 11q17 0 27 -11t10 -27zM35 56q8 0 17.5 3t15.5 8q17 -4 39.5 -10.5t46.5 -11.5q-5 -14 -8.5 -30t-3.5 -24 q0 -4 3.5 -6.5t7.5 -2.5q3 0 6 2t3 6q2 11 5 25.5t7 26.5q7 -2 13 -2h13q15 0 25 2q11 2 11 12q0 8 -8 8q-4 0 -7 -1q-8 -2 -19 -2q-5 0 -11 0.5t-11 1.5q13 46 32 87l28 62q2 5 2 6v2q0 10 -10 10q-5 0 -9 -6q-4 -7 -24 -49.5t-39 -107.5q-19 4 -38 9l-35 10 q15 15 31.5 39.5t31 50t23.5 46.5t9 29q0 9 -10 9q-8 0 -9 -7q-5 -13 -16 -35.5t-25.5 -46.5t-29.5 -46t-28 -34q-5 1 -10 1h-12q-24 0 -24 -20q0 -14 17 -14zM97 312q-12 0 -18 -1t-6 -9t5.5 -9.5t18.5 -1.5h210q11 0 17.5 1t6.5 9t-5 9.5t-19 1.5h-210z" />
<glyph unicode="&#xbf;" horiz-adv-x="470" d="M361 72q-5 0 -11 -3.5t-12 -13.5q-12 -20 -24.5 -36.5t-30 -28.5t-41.5 -19t-58 -7q-37 0 -59.5 10t-35 24t-16.5 30.5t-4 28.5q0 29 16.5 57.5t48.5 43.5q60 28 99 54t64.5 52.5t41 54.5t28.5 61q4 11 5 14.5t1 5.5q0 11 -8.5 18.5t-18.5 7.5q-14 0 -21 -15 q-16 -37 -29 -63t-34 -48.5t-56 -44.5t-94 -51q-47 -23 -70 -63t-23 -84q0 -29 9.5 -54.5t29.5 -45.5t51 -31.5t75 -11.5q40 0 72 10t56 25.5t40.5 35t27.5 39.5q5 10 6.5 14.5t1.5 7.5q0 11 -8 18.5t-19 7.5zM403 573q-10 0 -23.5 -3.5t-30.5 -12.5q-17 0 -17 -14 t6.5 -24.5t15 -18t18 -11.5t15.5 -4q21 0 34.5 18.5t13.5 38.5q0 13 -7.5 22t-24.5 9z" />
<glyph unicode="&#xc0;" horiz-adv-x="485" d="M396 730q0 -13 14 -19q26 -11 46 -28.5t52 -39.5q7 -6 17 -6q20 0 20 23q0 12 -10 19q-28 20 -50 39.5t-54 33.5q-4 2 -7 2h-5q-11 0 -17 -7.5t-6 -16.5zM167 249q76 -32 121.5 -79.5t61.5 -94.5q-2 -17 -3 -35t-1 -38q0 -16 11 -24t24 -8q11 0 19.5 6t8.5 19 q0 17 -1 42.5t-7 42.5q9 97 31.5 171.5t46.5 132.5l43 102q20 45 23 83v1q0 35 -19.5 50.5t-46.5 15.5q-41 0 -86.5 -29.5t-90.5 -76.5t-86 -105t-73 -115q-32 9 -66.5 14.5t-71.5 5.5q-13 0 -19 -7.5t-6 -17.5t6 -17.5t19 -7.5q35 0 64.5 -4t49.5 -11q-18 -33 -36.5 -74 t-33.5 -79.5t-24.5 -69t-9.5 -42.5q0 -11 8.5 -18t18.5 -7q17 0 22 18q19 69 45.5 133t57.5 123zM495 570q0 -23 -15 -59l-38 -87q-21 -50 -44 -115t-37 -147q-28 40 -70.5 74t-98.5 57q43 75 85.5 130.5t80 92t68.5 54t52 17.5q10 0 13.5 -5t3.5 -12z" />
<glyph unicode="&#xc1;" horiz-adv-x="485" d="M592 779q-6 0 -12 -3q-19 -9 -34 -19t-28 -21l-28 -21q-13 -11 -29 -21q-11 -7 -11 -20q0 -9 6 -16t15 -7q8 0 15 7l60 44q25 19 51 34q15 9 15 23q0 8 -5.5 14t-14.5 6zM167 249q76 -32 121.5 -79.5t61.5 -94.5q-2 -17 -3 -35t-1 -38q0 -16 11 -24t24 -8q11 0 19.5 6 t8.5 19q0 17 -1 42.5t-7 42.5q9 97 31.5 171.5t46.5 132.5l43 102q20 45 23 83v1q0 35 -19.5 50.5t-46.5 15.5q-41 0 -86.5 -29.5t-90.5 -76.5t-86 -105t-73 -115q-32 9 -66.5 14.5t-71.5 5.5q-13 0 -19 -7.5t-6 -17.5t6 -17.5t19 -7.5q35 0 64.5 -4t49.5 -11 q-18 -33 -36.5 -74t-33.5 -79.5t-24.5 -69t-9.5 -42.5q0 -11 8.5 -18t18.5 -7q17 0 22 18q19 69 45.5 133t57.5 123zM495 570q0 -23 -15 -59l-38 -87q-21 -50 -44 -115t-37 -147q-28 40 -70.5 74t-98.5 57q43 75 85.5 130.5t80 92t68.5 54t52 17.5q10 0 13.5 -5t3.5 -12z " />
<glyph unicode="&#xc2;" horiz-adv-x="485" d="M384 633q8 0 16 9q11 13 24.5 24.5t25.5 20t21.5 13.5t12.5 6q6 -2 26 -21.5t40 -48.5q7 -11 19 -11q9 0 16.5 6.5t7.5 17.5q0 6 -5 14q-23 34 -43 52l-33 29q-11 9 -25 9q-11 0 -21 -4t-18 -10q-19 -14 -37 -29l-43 -36q-8 -7 -8 -16t7.5 -17t16.5 -8zM167 249 q76 -32 121.5 -79.5t61.5 -94.5q-2 -17 -3 -35t-1 -38q0 -16 11 -24t24 -8q11 0 19.5 6t8.5 19q0 17 -1 42.5t-7 42.5q9 97 31.5 171.5t46.5 132.5l43 102q20 45 23 83v1q0 35 -19.5 50.5t-46.5 15.5q-41 0 -86.5 -29.5t-90.5 -76.5t-86 -105t-73 -115q-32 9 -66.5 14.5 t-71.5 5.5q-13 0 -19 -7.5t-6 -17.5t6 -17.5t19 -7.5q35 0 64.5 -4t49.5 -11q-18 -33 -36.5 -74t-33.5 -79.5t-24.5 -69t-9.5 -42.5q0 -11 8.5 -18t18.5 -7q17 0 22 18q19 69 45.5 133t57.5 123zM495 570q0 -23 -15 -59l-38 -87q-21 -50 -44 -115t-37 -147q-28 40 -70.5 74 t-98.5 57q43 75 85.5 130.5t80 92t68.5 54t52 17.5q10 0 13.5 -5t3.5 -12z" />
<glyph unicode="&#xc3;" horiz-adv-x="485" d="M389 661q9 0 15 7l32 30q15 13 30 13q11 0 20.5 -5t23.5 -16q11 -9 26 -19t38 -10q32 0 58.5 12.5t44.5 37.5q5 7 5 12q0 10 -7.5 17t-16.5 7q-10 0 -17 -9q-13 -17 -28.5 -24.5t-38.5 -7.5q-11 0 -20.5 8.5t-22.5 17.5q-11 10 -26.5 17t-38.5 7q-19 0 -33.5 -6.5 t-25.5 -15.5t-19 -18.5t-14 -15.5q-8 -8 -8 -16q0 -9 7 -16t16 -7zM167 249q76 -32 121.5 -79.5t61.5 -94.5q-2 -17 -3 -35t-1 -38q0 -16 11 -24t24 -8q11 0 19.5 6t8.5 19q0 17 -1 42.5t-7 42.5q9 97 31.5 171.5t46.5 132.5l43 102q20 45 23 83v1q0 35 -19.5 50.5 t-46.5 15.5q-41 0 -86.5 -29.5t-90.5 -76.5t-86 -105t-73 -115q-32 9 -66.5 14.5t-71.5 5.5q-13 0 -19 -7.5t-6 -17.5t6 -17.5t19 -7.5q35 0 64.5 -4t49.5 -11q-18 -33 -36.5 -74t-33.5 -79.5t-24.5 -69t-9.5 -42.5q0 -11 8.5 -18t18.5 -7q17 0 22 18q19 69 45.5 133 t57.5 123zM495 570q0 -23 -15 -59l-38 -87q-21 -50 -44 -115t-37 -147q-28 40 -70.5 74t-98.5 57q43 75 85.5 130.5t80 92t68.5 54t52 17.5q10 0 13.5 -5t3.5 -12z" />
<glyph unicode="&#xc4;" horiz-adv-x="485" d="M398 650q9 0 20.5 3t21 8t16.5 11.5t7 14.5q0 9 -6 18.5t-14.5 16.5t-18 11.5t-17.5 4.5q-20 0 -31.5 -17t-11.5 -36q0 -14 8 -24.5t26 -10.5zM560 650q10 0 21.5 3t21 8t16 11.5t6.5 14.5q0 9 -5.5 18.5t-14 16.5t-18.5 11.5t-18 4.5q-20 0 -31.5 -17t-11.5 -36 q0 -14 8 -24.5t26 -10.5zM167 249q76 -32 121.5 -79.5t61.5 -94.5q-2 -17 -3 -35t-1 -38q0 -16 11 -24t24 -8q11 0 19.5 6t8.5 19q0 17 -1 42.5t-7 42.5q9 97 31.5 171.5t46.5 132.5l43 102q20 45 23 83v1q0 35 -19.5 50.5t-46.5 15.5q-41 0 -86.5 -29.5t-90.5 -76.5 t-86 -105t-73 -115q-32 9 -66.5 14.5t-71.5 5.5q-13 0 -19 -7.5t-6 -17.5t6 -17.5t19 -7.5q35 0 64.5 -4t49.5 -11q-18 -33 -36.5 -74t-33.5 -79.5t-24.5 -69t-9.5 -42.5q0 -11 8.5 -18t18.5 -7q17 0 22 18q19 69 45.5 133t57.5 123zM495 570q0 -23 -15 -59l-38 -87 q-21 -50 -44 -115t-37 -147q-28 40 -70.5 74t-98.5 57q43 75 85.5 130.5t80 92t68.5 54t52 17.5q10 0 13.5 -5t3.5 -12z" />
<glyph unicode="&#xc5;" horiz-adv-x="485" d="M520 631q4 0 7 2q25 14 35.5 30.5t10.5 37.5q0 15 -6 28.5t-16.5 24t-24 17t-28.5 6.5q-20 0 -34.5 -8t-23.5 -20t-13 -25.5t-4 -23.5q0 -25 11 -38t39 -13q10 0 16.5 5t6.5 9q0 7 -6 15.5t-14 4.5q-6 -3 -10 -3q-9 0 -9 18q0 20 11.5 33t27.5 13q20 0 31.5 -14t11.5 -31 q0 -10 -6.5 -19.5t-21.5 -16.5q-9 -5 -9 -13q0 -7 5 -13t13 -6zM167 249q76 -32 121.5 -79.5t61.5 -94.5q-2 -17 -3 -35t-1 -38q0 -16 11 -24t24 -8q11 0 19.5 6t8.5 19q0 17 -1 42.5t-7 42.5q9 97 31.5 171.5t46.5 132.5l43 102q20 45 23 83v1q0 35 -19.5 50.5t-46.5 15.5 q-41 0 -86.5 -29.5t-90.5 -76.5t-86 -105t-73 -115q-32 9 -66.5 14.5t-71.5 5.5q-13 0 -19 -7.5t-6 -17.5t6 -17.5t19 -7.5q35 0 64.5 -4t49.5 -11q-18 -33 -36.5 -74t-33.5 -79.5t-24.5 -69t-9.5 -42.5q0 -11 8.5 -18t18.5 -7q17 0 22 18q19 69 45.5 133t57.5 123zM495 570 q0 -23 -15 -59l-38 -87q-21 -50 -44 -115t-37 -147q-28 40 -70.5 74t-98.5 57q43 75 85.5 130.5t80 92t68.5 54t52 17.5q10 0 13.5 -5t3.5 -12z" />
<glyph unicode="&#xc6;" horiz-adv-x="745" d="M528 323q-16 19 -28 32t-12 33q0 41 23 78t56 65t69.5 44.5t63.5 16.5q5 0 8.5 -0.5t7.5 -1.5q2 0 2 -2q0 -5 -8.5 -17.5t-22.5 -29.5t-33.5 -36.5t-41.5 -37.5q-8 -7 -8 -16q0 -10 8 -17.5t19 -7.5q10 0 17 7q63 54 93.5 92t30.5 68q0 20 -21 34.5t-50 14.5 q-40 0 -81 -18.5t-76 -47.5q-2 32 -20 45.5t-44 13.5q-21 0 -44.5 -8t-43.5 -21q-60 -39 -125.5 -116.5t-123.5 -178.5q-31 9 -65.5 14t-72.5 5q-13 0 -19 -7.5t-6 -17.5t6 -17.5t19 -7.5q61 0 114 -14q-32 -60 -58 -125t-45 -134q-1 -2 -1 -7q0 -11 8.5 -18t18.5 -7 q17 0 22 18q18 67 44.5 132t58.5 125q64 -27 110 -74.5t67 -108.5q0 -14 -4 -30t-4 -32v-3q0 -15 10 -23t22 -8q11 0 20.5 7.5t9.5 23.5q41 -27 97 -27q41 0 82 18t77 47.5t66 67t48 77.5q3 6 3 11q0 11 -8.5 17.5t-18.5 6.5q-16 0 -22 -15q-15 -34 -41.5 -66t-58.5 -57.5 t-65.5 -41t-61.5 -15.5q-38 0 -63 13.5t-36 34.5q-10 17 -10 38q0 29 10.5 50.5t28.5 39t41 31.5l46 27q27 16 27 37q0 15 -11 27zM479 505q-21 -32 -30.5 -57.5t-9.5 -47.5q0 -40 13.5 -63.5t27.5 -36.5q-20 -10 -39.5 -22t-37.5 -27.5t-32 -36t-22 -46.5 q-26 37 -65.5 69.5t-92.5 55.5q28 48 57.5 90.5t59 77t57.5 61t54 42.5q21 14 35.5 19t22.5 5q11 0 14.5 -5t3.5 -13q0 -22 -16 -65z" />
<glyph unicode="&#xc7;" horiz-adv-x="475" d="M58 132q0 -41 10.5 -70.5t30 -49.5t46 -30.5t58.5 -14.5q-2 -18 -6 -35.5t-13 -31.5q-6 -9 -17.5 -13t-25 -6t-28.5 -2.5t-29 -0.5q-17 -1 -27 -3t-10 -16q0 -20 19.5 -25t54.5 -5q42 0 68 10.5t39.5 28.5t18.5 43t5 55q36 3 68 14.5t60.5 28.5t54 37.5t48.5 41.5 q12 11 15 16.5t3 10.5q0 11 -7.5 18.5t-18.5 7.5q-4 0 -8.5 -2t-11.5 -9q-26 -24 -52 -44.5t-53 -36.5t-56 -25t-60 -9q-66 0 -96 27.5t-30 89.5q0 37 13.5 85t38.5 98.5t59.5 99t76.5 86.5t90.5 61.5t100.5 23.5q18 0 30.5 -7.5t12.5 -30.5q0 -31 -14 -61t-38 -57 t-55.5 -48.5t-67.5 -34.5q-21 -10 -21 -27q0 -9 6.5 -16.5t17.5 -7.5q6 0 11.5 3t11.5 5q42 16 79 43t64 60t43 70t16 75q0 42 -26 65.5t-68 23.5q-55 0 -108.5 -24t-101 -63.5t-88.5 -92t-70.5 -109t-46 -113.5t-16.5 -107z" />
<glyph unicode="&#xc8;" horiz-adv-x="422" d="M294 752q0 -13 14 -19q26 -11 46 -28.5t52 -39.5q7 -6 17 -6q20 0 20 23q0 12 -10 19q-28 20 -50 39.5t-54 33.5q-4 2 -7 2h-5q-11 0 -17 -7.5t-6 -16.5zM296 392q8 0 14 2.5t13 6.5q18 10 40.5 28.5t42.5 41.5t33.5 50t13.5 55q0 32 -15.5 49t-50.5 17 q-47 0 -93.5 -23.5t-84 -60t-60.5 -80.5t-23 -85q0 -58 38 -91q-74 -38 -108 -83.5t-34 -108.5q0 -31 12.5 -56t34 -42.5t50.5 -27t61 -9.5q51 0 90 11.5t68.5 28t51.5 35.5l37 35q8 8 12.5 14.5t4.5 14.5q0 11 -6.5 19t-17.5 8q-4 0 -8.5 -2t-10.5 -8l-41 -39 q-20 -19 -45.5 -34t-58 -24t-76.5 -9q-52 0 -80 23t-28 64q0 28 9 49.5t23.5 39t33.5 31.5t40 26q24 15 32 23t8 19q0 15 -7.5 25.5t-12.5 15.5q-22 25 -22 51q0 27 11 52.5t29 48t40.5 41t45.5 31.5t44 20.5t36 7.5q11 0 16 -7t5 -15q0 -19 -14 -40t-33.5 -40t-39 -34 t-29.5 -21q-12 -8 -12 -22q0 -9 6.5 -15.5t14.5 -6.5z" />
<glyph unicode="&#xc9;" horiz-adv-x="422" d="M498 779q-6 0 -12 -3q-19 -9 -34 -19t-28 -21l-28 -21q-13 -11 -29 -21q-11 -7 -11 -20q0 -9 6 -16t15 -7q8 0 15 7l60 44q25 19 51 34q15 9 15 23q0 8 -5.5 14t-14.5 6zM296 392q8 0 14 2.5t13 6.5q18 10 40.5 28.5t42.5 41.5t33.5 50t13.5 55q0 32 -15.5 49t-50.5 17 q-47 0 -93.5 -23.5t-84 -60t-60.5 -80.5t-23 -85q0 -58 38 -91q-74 -38 -108 -83.5t-34 -108.5q0 -31 12.5 -56t34 -42.5t50.5 -27t61 -9.5q51 0 90 11.5t68.5 28t51.5 35.5l37 35q8 8 12.5 14.5t4.5 14.5q0 11 -6.5 19t-17.5 8q-4 0 -8.5 -2t-10.5 -8l-41 -39 q-20 -19 -45.5 -34t-58 -24t-76.5 -9q-52 0 -80 23t-28 64q0 28 9 49.5t23.5 39t33.5 31.5t40 26q24 15 32 23t8 19q0 15 -7.5 25.5t-12.5 15.5q-22 25 -22 51q0 27 11 52.5t29 48t40.5 41t45.5 31.5t44 20.5t36 7.5q11 0 16 -7t5 -15q0 -19 -14 -40t-33.5 -40t-39 -34 t-29.5 -21q-12 -8 -12 -22q0 -9 6.5 -15.5t14.5 -6.5z" />
<glyph unicode="&#xca;" horiz-adv-x="422" d="M294 645q8 0 16 9q11 13 24.5 24.5t25.5 20t21.5 13.5t12.5 6q6 -2 26 -21.5t40 -48.5q7 -11 19 -11q9 0 16.5 6.5t7.5 17.5q0 6 -5 14q-23 34 -43 52l-33 29q-11 9 -25 9q-11 0 -21 -4t-18 -10q-19 -14 -37 -29l-43 -36q-8 -7 -8 -16t7.5 -17t16.5 -8zM296 392 q8 0 14 2.5t13 6.5q18 10 40.5 28.5t42.5 41.5t33.5 50t13.5 55q0 32 -15.5 49t-50.5 17q-47 0 -93.5 -23.5t-84 -60t-60.5 -80.5t-23 -85q0 -58 38 -91q-74 -38 -108 -83.5t-34 -108.5q0 -31 12.5 -56t34 -42.5t50.5 -27t61 -9.5q51 0 90 11.5t68.5 28t51.5 35.5l37 35 q8 8 12.5 14.5t4.5 14.5q0 11 -6.5 19t-17.5 8q-4 0 -8.5 -2t-10.5 -8l-41 -39q-20 -19 -45.5 -34t-58 -24t-76.5 -9q-52 0 -80 23t-28 64q0 28 9 49.5t23.5 39t33.5 31.5t40 26q24 15 32 23t8 19q0 15 -7.5 25.5t-12.5 15.5q-22 25 -22 51q0 27 11 52.5t29 48t40.5 41 t45.5 31.5t44 20.5t36 7.5q11 0 16 -7t5 -15q0 -19 -14 -40t-33.5 -40t-39 -34t-29.5 -21q-12 -8 -12 -22q0 -9 6.5 -15.5t14.5 -6.5z" />
<glyph unicode="&#xcb;" horiz-adv-x="422" d="M302 666q9 0 20.5 3t21 8t16.5 11.5t7 14.5q0 9 -6 18.5t-14.5 16.5t-18 11.5t-17.5 4.5q-20 0 -31.5 -17t-11.5 -36q0 -14 8 -24.5t26 -10.5zM464 666q10 0 21.5 3t21 8t16 11.5t6.5 14.5q0 9 -5.5 18.5t-14 16.5t-18.5 11.5t-18 4.5q-20 0 -31.5 -17t-11.5 -36 q0 -14 8 -24.5t26 -10.5zM296 392q8 0 14 2.5t13 6.5q18 10 40.5 28.5t42.5 41.5t33.5 50t13.5 55q0 32 -15.5 49t-50.5 17q-47 0 -93.5 -23.5t-84 -60t-60.5 -80.5t-23 -85q0 -58 38 -91q-74 -38 -108 -83.5t-34 -108.5q0 -31 12.5 -56t34 -42.5t50.5 -27t61 -9.5 q51 0 90 11.5t68.5 28t51.5 35.5l37 35q8 8 12.5 14.5t4.5 14.5q0 11 -6.5 19t-17.5 8q-4 0 -8.5 -2t-10.5 -8l-41 -39q-20 -19 -45.5 -34t-58 -24t-76.5 -9q-52 0 -80 23t-28 64q0 28 9 49.5t23.5 39t33.5 31.5t40 26q24 15 32 23t8 19q0 15 -7.5 25.5t-12.5 15.5 q-22 25 -22 51q0 27 11 52.5t29 48t40.5 41t45.5 31.5t44 20.5t36 7.5q11 0 16 -7t5 -15q0 -19 -14 -40t-33.5 -40t-39 -34t-29.5 -21q-12 -8 -12 -22q0 -9 6.5 -15.5t14.5 -6.5z" />
<glyph unicode="&#xcc;" horiz-adv-x="440" d="M294 730q0 -13 14 -19q26 -11 46 -28.5t52 -39.5q7 -6 17 -6q20 0 20 23q0 12 -10 19q-28 20 -50 39.5t-54 33.5q-4 2 -7 2h-5q-11 0 -17 -7.5t-6 -16.5zM203 370q10 0 18.5 7t8.5 20q0 32 13 67t34.5 64t48.5 48t56 19q24 0 34.5 -14t10.5 -38t-7.5 -54.5t-19.5 -64.5 t-28 -68l-30 -67q-21 -42 -48 -88.5t-57 -85t-61.5 -63.5t-60.5 -25q-32 0 -44.5 8t-15.5 25q-5 25 -25 25q-9 0 -17 -6.5t-8 -18.5q0 -44 31 -63.5t79 -19.5q38 0 75.5 25t72.5 66.5t66.5 94t58.5 108.5l33 73q16 37 28 73t19 70.5t7 65.5q0 16 -5.5 32.5t-16.5 30 t-27.5 21.5t-37.5 8q-52 0 -91 -26.5t-65 -64.5t-39 -80t-13 -73q0 -18 7 -24.5t16 -6.5z" />
<glyph unicode="&#xcd;" horiz-adv-x="440" d="M488 787q-6 0 -12 -3q-19 -9 -34 -19t-28 -21l-28 -21q-13 -11 -29 -21q-11 -7 -11 -20q0 -9 6 -16t15 -7q8 0 15 7l60 44q25 19 51 34q15 9 15 23q0 8 -5.5 14t-14.5 6zM203 370q10 0 18.5 7t8.5 20q0 32 13 67t34.5 64t48.5 48t56 19q24 0 34.5 -14t10.5 -38 t-7.5 -54.5t-19.5 -64.5t-28 -68l-30 -67q-21 -42 -48 -88.5t-57 -85t-61.5 -63.5t-60.5 -25q-32 0 -44.5 8t-15.5 25q-5 25 -25 25q-9 0 -17 -6.5t-8 -18.5q0 -44 31 -63.5t79 -19.5q38 0 75.5 25t72.5 66.5t66.5 94t58.5 108.5l33 73q16 37 28 73t19 70.5t7 65.5 q0 16 -5.5 32.5t-16.5 30t-27.5 21.5t-37.5 8q-52 0 -91 -26.5t-65 -64.5t-39 -80t-13 -73q0 -18 7 -24.5t16 -6.5z" />
<glyph unicode="&#xce;" horiz-adv-x="440" d="M294 649q8 0 16 9q11 13 24.5 24.5t25.5 20t21.5 13.5t12.5 6q6 -2 26 -21.5t40 -48.5q7 -11 19 -11q9 0 16.5 6.5t7.5 17.5q0 6 -5 14q-23 34 -43 52l-33 29q-11 9 -25 9q-11 0 -21 -4t-18 -10q-19 -14 -37 -29l-43 -36q-8 -7 -8 -16t7.5 -17t16.5 -8zM203 370 q10 0 18.5 7t8.5 20q0 32 13 67t34.5 64t48.5 48t56 19q24 0 34.5 -14t10.5 -38t-7.5 -54.5t-19.5 -64.5t-28 -68l-30 -67q-21 -42 -48 -88.5t-57 -85t-61.5 -63.5t-60.5 -25q-32 0 -44.5 8t-15.5 25q-5 25 -25 25q-9 0 -17 -6.5t-8 -18.5q0 -44 31 -63.5t79 -19.5 q38 0 75.5 25t72.5 66.5t66.5 94t58.5 108.5l33 73q16 37 28 73t19 70.5t7 65.5q0 16 -5.5 32.5t-16.5 30t-27.5 21.5t-37.5 8q-52 0 -91 -26.5t-65 -64.5t-39 -80t-13 -73q0 -18 7 -24.5t16 -6.5z" />
<glyph unicode="&#xcf;" horiz-adv-x="440" d="M294 664q9 0 20.5 3t21 8t16.5 11.5t7 14.5q0 9 -6 18.5t-14.5 16.5t-18 11.5t-17.5 4.5q-20 0 -31.5 -17t-11.5 -36q0 -14 8 -24.5t26 -10.5zM456 664q10 0 21.5 3t21 8t16 11.5t6.5 14.5q0 9 -5.5 18.5t-14 16.5t-18.5 11.5t-18 4.5q-20 0 -31.5 -17t-11.5 -36 q0 -14 8 -24.5t26 -10.5zM203 370q10 0 18.5 7t8.5 20q0 32 13 67t34.5 64t48.5 48t56 19q24 0 34.5 -14t10.5 -38t-7.5 -54.5t-19.5 -64.5t-28 -68l-30 -67q-21 -42 -48 -88.5t-57 -85t-61.5 -63.5t-60.5 -25q-32 0 -44.5 8t-15.5 25q-5 25 -25 25q-9 0 -17 -6.5t-8 -18.5 q0 -44 31 -63.5t79 -19.5q38 0 75.5 25t72.5 66.5t66.5 94t58.5 108.5l33 73q16 37 28 73t19 70.5t7 65.5q0 16 -5.5 32.5t-16.5 30t-27.5 21.5t-37.5 8q-52 0 -91 -26.5t-65 -64.5t-39 -80t-13 -73q0 -18 7 -24.5t16 -6.5z" />
<glyph unicode="&#xd0;" horiz-adv-x="720" d="M125 38q8 0 26.5 -4t32.5 -10q-15 -8 -33.5 -11t-30.5 -3q-14 0 -27.5 2.5t-13.5 10.5t14.5 11.5t31.5 3.5zM478 270q56 89 93 179q28 -36 50.5 -73t38 -72.5t24 -66.5t8.5 -53q0 -86 -55 -129t-154 -43q-45 0 -89 11l-90 22l32 35l36 42l36 48l37 50h85q12 0 18.5 7.5 t6.5 17.5t-6.5 17.5t-18.5 7.5h-52zM384 220q-35 -50 -67 -86.5t-73 -74.5q-33 8 -62.5 14.5t-67.5 6.5q-54 0 -80.5 -16.5t-26.5 -44.5q0 -22 25.5 -35.5t84.5 -13.5q77 0 137 36q57 -13 112 -28t114 -15q54 0 101.5 12t83.5 38t56.5 68.5t20.5 103.5q0 39 -15 84.5t-38 89 t-49.5 81.5t-48.5 64q6 14 9 24t5 21l1 7q1 3 1 8q0 8 -8.5 14.5t-18.5 6.5q-8 0 -14 -4.5t-8 -13.5q-3 -12 -6 -21q-26 25 -55 43.5t-59 30.5t-60 18t-56 6q-54 0 -80.5 -23t-26.5 -57q0 -27 12.5 -48.5t32.5 -39t46 -32.5l54 -29q5 -2 9.5 -4t9.5 -2q9 0 16 8.5t7 19.5 q0 6 -4.5 12.5t-18.5 12.5q-58 25 -83.5 50.5t-25.5 42.5q0 20 10.5 30t42.5 10q27 0 55 -7t56 -20.5t53.5 -32t46.5 -42.5q-21 -56 -49 -111t-66 -112h-99q-12 0 -18.5 -7.5t-6.5 -17.5t6.5 -17.5t18.5 -7.5h64z" />
<glyph unicode="&#xd1;" horiz-adv-x="612" d="M389 661q9 0 15 7l32 30q15 13 30 13q11 0 20.5 -5t23.5 -16q11 -9 26 -19t38 -10q32 0 58.5 12.5t44.5 37.5q5 7 5 12q0 10 -7.5 17t-16.5 7q-10 0 -17 -9q-13 -17 -28.5 -24.5t-38.5 -7.5q-11 0 -20.5 8.5t-22.5 17.5q-11 10 -26.5 17t-38.5 7q-19 0 -33.5 -6.5 t-25.5 -15.5t-19 -18.5t-14 -15.5q-8 -8 -8 -16q0 -9 7 -16t16 -7zM27 -24q58 69 110 150t93.5 158.5t70 144t39.5 105.5q7 -55 14 -127l15 -146q7 -74 11.5 -142.5t6.5 -116.5q1 -15 9 -28t24 -13q20 0 28.5 6.5t14.5 21.5q11 27 26 75l33 108l36 124q20 64 41.5 122 t44 105t45.5 72q13 14 13 25t-7 18t-18 7q-5 0 -10 -2t-12 -10q-24 -28 -46 -70.5t-42.5 -93.5t-38.5 -107l-36 -112l-30 -104l-27 -88q-1 38 -4 85.5t-7.5 98.5t-10 103t-11.5 99l-12 88q-5 40 -10 68q-4 18 -15 28.5t-24 10.5q-11 0 -21 -9t-15 -29q-20 -83 -56 -168 t-80 -163t-90.5 -144.5t-86.5 -113.5q-9 -12 -9 -22t7.5 -16.5t15.5 -6.5q12 0 21 9z" />
<glyph unicode="&#xd2;" d="M412 732q0 -13 14 -19q26 -11 46 -28.5t52 -39.5q7 -6 17 -6q20 0 20 23q0 12 -10 19q-28 20 -50 39.5t-54 33.5q-4 2 -7 2h-5q-11 0 -17 -7.5t-6 -16.5zM529 608q0 9 -6 17t-19 8q-74 0 -139 -20.5t-119.5 -55.5t-97 -82t-72 -100t-45 -109.5t-15.5 -109.5q0 -41 10 -76 t31 -61t53 -41t77 -15q60 0 112.5 21.5t96 56.5t77.5 80.5t57.5 94.5t36 97.5t12.5 88.5q0 45 -12.5 73.5t-32 44.5t-43 22t-44.5 6q-57 0 -104 -23t-80.5 -55t-52.5 -65.5t-19 -54.5q0 -11 8 -17t18 -6q8 0 14.5 4t8.5 13q7 27 27 54.5t47.5 50t61 36.5t68.5 14 q42 0 62.5 -26t20.5 -71q0 -32 -11 -73.5t-32 -84.5t-51.5 -84.5t-68.5 -74t-83 -52.5t-96 -20q-58 0 -89 41t-31 107q0 44 13.5 92.5t40 95.5t64.5 89.5t87 74.5t107.5 51t126.5 19q13 0 19 8t6 17z" />
<glyph unicode="&#xd3;" d="M580 779q-6 0 -12 -3q-19 -9 -34 -19t-28 -21l-28 -21q-13 -11 -29 -21q-11 -7 -11 -20q0 -9 6 -16t15 -7q8 0 15 7l60 44q25 19 51 34q15 9 15 23q0 8 -5.5 14t-14.5 6zM529 608q0 9 -6 17t-19 8q-74 0 -139 -20.5t-119.5 -55.5t-97 -82t-72 -100t-45 -109.5 t-15.5 -109.5q0 -41 10 -76t31 -61t53 -41t77 -15q60 0 112.5 21.5t96 56.5t77.5 80.5t57.5 94.5t36 97.5t12.5 88.5q0 45 -12.5 73.5t-32 44.5t-43 22t-44.5 6q-57 0 -104 -23t-80.5 -55t-52.5 -65.5t-19 -54.5q0 -11 8 -17t18 -6q8 0 14.5 4t8.5 13q7 27 27 54.5t47.5 50 t61 36.5t68.5 14q42 0 62.5 -26t20.5 -71q0 -32 -11 -73.5t-32 -84.5t-51.5 -84.5t-68.5 -74t-83 -52.5t-96 -20q-58 0 -89 41t-31 107q0 44 13.5 92.5t40 95.5t64.5 89.5t87 74.5t107.5 51t126.5 19q13 0 19 8t6 17z" />
<glyph unicode="&#xd4;" d="M366 649q8 0 16 9q11 13 24.5 24.5t25.5 20t21.5 13.5t12.5 6q6 -2 26 -21.5t40 -48.5q7 -11 19 -11q9 0 16.5 6.5t7.5 17.5q0 6 -5 14q-23 34 -43 52l-33 29q-11 9 -25 9q-11 0 -21 -4t-18 -10q-19 -14 -37 -29l-43 -36q-8 -7 -8 -16t7.5 -17t16.5 -8zM529 608 q0 9 -6 17t-19 8q-74 0 -139 -20.5t-119.5 -55.5t-97 -82t-72 -100t-45 -109.5t-15.5 -109.5q0 -41 10 -76t31 -61t53 -41t77 -15q60 0 112.5 21.5t96 56.5t77.5 80.5t57.5 94.5t36 97.5t12.5 88.5q0 45 -12.5 73.5t-32 44.5t-43 22t-44.5 6q-57 0 -104 -23t-80.5 -55 t-52.5 -65.5t-19 -54.5q0 -11 8 -17t18 -6q8 0 14.5 4t8.5 13q7 27 27 54.5t47.5 50t61 36.5t68.5 14q42 0 62.5 -26t20.5 -71q0 -32 -11 -73.5t-32 -84.5t-51.5 -84.5t-68.5 -74t-83 -52.5t-96 -20q-58 0 -89 41t-31 107q0 44 13.5 92.5t40 95.5t64.5 89.5t87 74.5 t107.5 51t126.5 19q13 0 19 8t6 17z" />
<glyph unicode="&#xd5;" d="M339 661q9 0 15 7l32 30q15 13 30 13q11 0 20.5 -5t23.5 -16q11 -9 26 -19t38 -10q32 0 58.5 12.5t44.5 37.5q5 7 5 12q0 10 -7.5 17t-16.5 7q-10 0 -17 -9q-13 -17 -28.5 -24.5t-38.5 -7.5q-11 0 -20.5 8.5t-22.5 17.5q-11 10 -26.5 17t-38.5 7q-19 0 -33.5 -6.5 t-25.5 -15.5t-19 -18.5t-14 -15.5q-8 -8 -8 -16q0 -9 7 -16t16 -7zM529 608q0 9 -6 17t-19 8q-74 0 -139 -20.5t-119.5 -55.5t-97 -82t-72 -100t-45 -109.5t-15.5 -109.5q0 -41 10 -76t31 -61t53 -41t77 -15q60 0 112.5 21.5t96 56.5t77.5 80.5t57.5 94.5t36 97.5t12.5 88.5 q0 45 -12.5 73.5t-32 44.5t-43 22t-44.5 6q-57 0 -104 -23t-80.5 -55t-52.5 -65.5t-19 -54.5q0 -11 8 -17t18 -6q8 0 14.5 4t8.5 13q7 27 27 54.5t47.5 50t61 36.5t68.5 14q42 0 62.5 -26t20.5 -71q0 -32 -11 -73.5t-32 -84.5t-51.5 -84.5t-68.5 -74t-83 -52.5t-96 -20 q-58 0 -89 41t-31 107q0 44 13.5 92.5t40 95.5t64.5 89.5t87 74.5t107.5 51t126.5 19q13 0 19 8t6 17z" />
<glyph unicode="&#xd6;" d="M398 650q9 0 20.5 3t21 8t16.5 11.5t7 14.5q0 9 -6 18.5t-14.5 16.5t-18 11.5t-17.5 4.5q-20 0 -31.5 -17t-11.5 -36q0 -14 8 -24.5t26 -10.5zM560 650q10 0 21.5 3t21 8t16 11.5t6.5 14.5q0 9 -5.5 18.5t-14 16.5t-18.5 11.5t-18 4.5q-20 0 -31.5 -17t-11.5 -36 q0 -14 8 -24.5t26 -10.5zM529 608q0 9 -6 17t-19 8q-74 0 -139 -20.5t-119.5 -55.5t-97 -82t-72 -100t-45 -109.5t-15.5 -109.5q0 -41 10 -76t31 -61t53 -41t77 -15q60 0 112.5 21.5t96 56.5t77.5 80.5t57.5 94.5t36 97.5t12.5 88.5q0 45 -12.5 73.5t-32 44.5t-43 22 t-44.5 6q-57 0 -104 -23t-80.5 -55t-52.5 -65.5t-19 -54.5q0 -11 8 -17t18 -6q8 0 14.5 4t8.5 13q7 27 27 54.5t47.5 50t61 36.5t68.5 14q42 0 62.5 -26t20.5 -71q0 -32 -11 -73.5t-32 -84.5t-51.5 -84.5t-68.5 -74t-83 -52.5t-96 -20q-58 0 -89 41t-31 107q0 44 13.5 92.5 t40 95.5t64.5 89.5t87 74.5t107.5 51t126.5 19q13 0 19 8t6 17z" />
<glyph unicode="&#xd7;" horiz-adv-x="361" d="M67 413l-33 -22l123 -183l-125 -185l33 -23l117 173l117 -173l34 21l-126 188l123 183l-34 21l-114 -171z" />
<glyph unicode="&#xd8;" d="M22 30q-35 -34 -77 -65q-10 -7 -10 -19q0 -10 7.5 -18t18.5 -8q8 0 14 5q23 17 43 35l40 35q26 -17 56 -24.5t58 -7.5q66 0 124 23.5t106.5 62t86.5 87t64.5 98.5t40.5 97.5t14 82.5q0 85 -65 105q26 20 52.5 37t55.5 32q14 7 14 21q0 10 -6.5 18t-17.5 8q-6 0 -12 -3 q-44 -23 -82 -49.5t-73 -56.5q-40 -2 -79 -14t-73.5 -32.5t-61 -48t-41.5 -60.5q-2 -4 -2 -10q0 -11 8.5 -18t18.5 -7q6 0 12 3.5t9 11.5q7 18 21.5 35t33.5 32t42 26.5t47 19.5q-44 -45 -85 -95l-83 -101l-87 -103q-44 -52 -95 -102q-14 25 -14 65q0 65 26 135t77.5 129.5 t129 101.5t180.5 52q19 1 19 20q0 10 -6.5 18.5t-18.5 8.5q-54 0 -108.5 -16.5t-105.5 -46.5t-95 -72t-77 -94t-52 -111.5t-19 -124.5q0 -28 6.5 -53t20.5 -45zM94 28q61 59 112 119l98 117l92 112q46 53 96 100q4 0 7.5 -0.5t7.5 -0.5q20 -3 33 -19.5t13 -46.5 q0 -39 -15.5 -83.5t-43 -88.5t-64 -84.5t-78.5 -72t-87.5 -50t-89.5 -18.5q-29 0 -50.5 5t-30.5 11z" />
<glyph unicode="&#xd9;" horiz-adv-x="650" d="M396 730q0 -13 14 -19q26 -11 46 -28.5t52 -39.5q7 -6 17 -6q20 0 20 23q0 12 -10 19q-28 20 -50 39.5t-54 33.5q-4 2 -7 2h-5q-11 0 -17 -7.5t-6 -16.5zM222 -33q38 0 72.5 14t65.5 38t59 56t54 68q-2 -14 -3 -26.5t-1 -25.5q0 -47 16 -82.5t39 -55.5l14 -11q6 -4 15 -4 q8 0 15 7t7 15q0 11 -3.5 17.5t-16.5 14.5q-15 9 -25.5 35t-10.5 60q0 56 24.5 127t59.5 148q16 29 36.5 60t37.5 60t29 53.5t12 40.5q0 24 -30 24q-14 0 -30 -16.5t-32.5 -42t-32.5 -58t-30 -64.5t-25 -61l-18 -46q-30 -54 -66 -107t-74 -95t-76 -67.5t-74 -25.5 q-23 0 -32.5 10.5t-9.5 28.5q0 24 9 50t23 54.5t32.5 60.5t36.5 68q25 47 40.5 81.5t24.5 61t12.5 46t3.5 37.5q0 25 -5.5 47t-18.5 38.5t-33 26t-48 9.5q-36 0 -68 -15t-58.5 -39.5t-47.5 -55t-35.5 -62t-22.5 -60.5t-8 -50q0 -14 8 -21t18 -7q8 0 15.5 5.5t8.5 16.5 q3 35 19.5 76.5t42 77.5t59 60t69.5 24q26 0 39.5 -19.5t13.5 -52.5q0 -50 -24 -105t-65 -125l-33 -57q-17 -29 -31.5 -58.5t-23.5 -58.5t-9 -56q0 -45 23 -66t67 -21z" />
<glyph unicode="&#xda;" horiz-adv-x="650" d="M642 761q-6 0 -12 -3q-19 -9 -34 -19t-28 -21l-28 -21q-13 -11 -29 -21q-11 -7 -11 -20q0 -9 6 -16t15 -7q8 0 15 7l60 44q25 19 51 34q15 9 15 23q0 8 -5.5 14t-14.5 6zM222 -33q38 0 72.5 14t65.5 38t59 56t54 68q-2 -14 -3 -26.5t-1 -25.5q0 -47 16 -82.5t39 -55.5 l14 -11q6 -4 15 -4q8 0 15 7t7 15q0 11 -3.5 17.5t-16.5 14.5q-15 9 -25.5 35t-10.5 60q0 56 24.5 127t59.5 148q16 29 36.5 60t37.5 60t29 53.5t12 40.5q0 24 -30 24q-14 0 -30 -16.5t-32.5 -42t-32.5 -58t-30 -64.5t-25 -61l-18 -46q-30 -54 -66 -107t-74 -95t-76 -67.5 t-74 -25.5q-23 0 -32.5 10.5t-9.5 28.5q0 24 9 50t23 54.5t32.5 60.5t36.5 68q25 47 40.5 81.5t24.5 61t12.5 46t3.5 37.5q0 25 -5.5 47t-18.5 38.5t-33 26t-48 9.5q-36 0 -68 -15t-58.5 -39.5t-47.5 -55t-35.5 -62t-22.5 -60.5t-8 -50q0 -14 8 -21t18 -7q8 0 15.5 5.5 t8.5 16.5q3 35 19.5 76.5t42 77.5t59 60t69.5 24q26 0 39.5 -19.5t13.5 -52.5q0 -50 -24 -105t-65 -125l-33 -57q-17 -29 -31.5 -58.5t-23.5 -58.5t-9 -56q0 -45 23 -66t67 -21z" />
<glyph unicode="&#xdb;" horiz-adv-x="650" d="M436 649q8 0 16 9q11 13 24.5 24.5t25.5 20t21.5 13.5t12.5 6q6 -2 26 -21.5t40 -48.5q7 -11 19 -11q9 0 16.5 6.5t7.5 17.5q0 6 -5 14q-23 34 -43 52l-33 29q-11 9 -25 9q-11 0 -21 -4t-18 -10q-19 -14 -37 -29l-43 -36q-8 -7 -8 -16t7.5 -17t16.5 -8zM222 -33 q38 0 72.5 14t65.5 38t59 56t54 68q-2 -14 -3 -26.5t-1 -25.5q0 -47 16 -82.5t39 -55.5l14 -11q6 -4 15 -4q8 0 15 7t7 15q0 11 -3.5 17.5t-16.5 14.5q-15 9 -25.5 35t-10.5 60q0 56 24.5 127t59.5 148q16 29 36.5 60t37.5 60t29 53.5t12 40.5q0 24 -30 24q-14 0 -30 -16.5 t-32.5 -42t-32.5 -58t-30 -64.5t-25 -61l-18 -46q-30 -54 -66 -107t-74 -95t-76 -67.5t-74 -25.5q-23 0 -32.5 10.5t-9.5 28.5q0 24 9 50t23 54.5t32.5 60.5t36.5 68q25 47 40.5 81.5t24.5 61t12.5 46t3.5 37.5q0 25 -5.5 47t-18.5 38.5t-33 26t-48 9.5q-36 0 -68 -15 t-58.5 -39.5t-47.5 -55t-35.5 -62t-22.5 -60.5t-8 -50q0 -14 8 -21t18 -7q8 0 15.5 5.5t8.5 16.5q3 35 19.5 76.5t42 77.5t59 60t69.5 24q26 0 39.5 -19.5t13.5 -52.5q0 -50 -24 -105t-65 -125l-33 -57q-17 -29 -31.5 -58.5t-23.5 -58.5t-9 -56q0 -45 23 -66t67 -21z" />
<glyph unicode="&#xdc;" horiz-adv-x="650" d="M422 650q9 0 20.5 3t21 8t16.5 11.5t7 14.5q0 9 -6 18.5t-14.5 16.5t-18 11.5t-17.5 4.5q-20 0 -31.5 -17t-11.5 -36q0 -14 8 -24.5t26 -10.5zM584 650q10 0 21.5 3t21 8t16 11.5t6.5 14.5q0 9 -5.5 18.5t-14 16.5t-18.5 11.5t-18 4.5q-20 0 -31.5 -17t-11.5 -36 q0 -14 8 -24.5t26 -10.5zM222 -33q38 0 72.5 14t65.5 38t59 56t54 68q-2 -14 -3 -26.5t-1 -25.5q0 -47 16 -82.5t39 -55.5l14 -11q6 -4 15 -4q8 0 15 7t7 15q0 11 -3.5 17.5t-16.5 14.5q-15 9 -25.5 35t-10.5 60q0 56 24.5 127t59.5 148q16 29 36.5 60t37.5 60t29 53.5 t12 40.5q0 24 -30 24q-14 0 -30 -16.5t-32.5 -42t-32.5 -58t-30 -64.5t-25 -61l-18 -46q-30 -54 -66 -107t-74 -95t-76 -67.5t-74 -25.5q-23 0 -32.5 10.5t-9.5 28.5q0 24 9 50t23 54.5t32.5 60.5t36.5 68q25 47 40.5 81.5t24.5 61t12.5 46t3.5 37.5q0 25 -5.5 47 t-18.5 38.5t-33 26t-48 9.5q-36 0 -68 -15t-58.5 -39.5t-47.5 -55t-35.5 -62t-22.5 -60.5t-8 -50q0 -14 8 -21t18 -7q8 0 15.5 5.5t8.5 16.5q3 35 19.5 76.5t42 77.5t59 60t69.5 24q26 0 39.5 -19.5t13.5 -52.5q0 -50 -24 -105t-65 -125l-33 -57q-17 -29 -31.5 -58.5 t-23.5 -58.5t-9 -56q0 -45 23 -66t67 -21z" />
<glyph unicode="&#xdd;" d="M117 -18q39 0 83 23.5t86 57.5t78 70l62 62l-40 -74l-38 -75q-31 -62 -70.5 -118.5t-91.5 -100t-117.5 -69.5t-147.5 -26q-20 0 -29.5 -3.5t-13 -8t-3 -8.5t0.5 -6q0 -16 9.5 -20t36.5 -4q92 0 165 30t130.5 78t100 109.5t74.5 124.5l105 200l102 190q15 29 22 47t7 38 q0 27 -30 27q-14 0 -24 -13.5t-20 -36t-20.5 -50.5t-25.5 -56q-26 -38 -58.5 -77t-68 -75t-72 -68t-69.5 -56t-60 -37.5t-44 -13.5q-27 0 -27 30q0 15 9 41q8 23 27 56l41 73l48 81q24 43 44 85t33 80.5t13 68.5q0 36 -21.5 57.5t-75.5 21.5q-48 0 -87 -27t-66.5 -67.5 t-42.5 -88.5t-15 -89q0 -29 6.5 -37.5t20.5 -8.5q10 0 17.5 6t7.5 17q0 9 -1 14.5t-1 10.5q0 30 13 68t35 71.5t52 57t63 23.5q18 0 26 -9.5t8 -26.5q0 -22 -11 -54t-28 -69.5t-38 -78.5l-44 -80l-40 -75q-18 -35 -30 -62q-18 -42 -18 -78q0 -32 16 -52t47 -20zM583 779 q-6 0 -12 -3q-19 -9 -34 -19t-29 -21l-26 -21q-14 -11 -30 -21q-11 -7 -11 -20q0 -9 6 -16t15 -7q8 0 15 7l61 44q24 19 50 34q15 9 15 23q0 8 -5.5 14t-14.5 6z" />
<glyph unicode="&#xde;" horiz-adv-x="370" d="M129 603q0 -25 -5.5 -69t-12.5 -91t-15 -89l-11 -64q-15 -24 -30.5 -54.5t-29 -63.5t-22 -67t-8.5 -65q0 -26 7.5 -46.5t25.5 -20.5q29 0 45 50l18 60q8 27 15 54.5t13 59.5l14 75q18 46 45.5 86.5t59 70.5t64.5 47.5t63 17.5q29 0 46.5 -29t17.5 -71q0 -56 -27 -98 t-66.5 -71t-83.5 -43.5t-78 -14.5q-12 0 -18.5 -8t-6.5 -17q0 -11 7 -18t22 -7q24 0 56 7t65.5 21.5t66 37t58 54.5t41 74t15.5 94q0 28 -7 53.5t-21.5 44.5t-36 30t-50.5 11q-30 0 -59.5 -10.5t-57 -29.5t-52.5 -44.5t-47 -55.5q4 15 9 41.5t9.5 56.5t7.5 58.5t3 46.5 q0 20 -3.5 35.5t-19.5 15.5q-11 0 -19.5 -5.5t-8.5 -17.5q0 -8 1 -17t1 -15z" />
<glyph unicode="&#xdf;" horiz-adv-x="499" d="M301 587q0 -11 -10 -33t-25.5 -50t-35.5 -58l-39 -56q13 36 29.5 72.5t31.5 65.5t27 47.5t17 18.5t5 -7zM481 132q-14 -15 -36 -34t-51 -36q3 21 3 44q0 44 -10.5 92t-31.5 93q6 16 6 35q0 17 -10.5 25t-23.5 8q-19 0 -31 -9t-12 -25q0 -10 6 -19t12 -17 q-16 -30 -36.5 -59t-48.5 -59t-63.5 -62t-81.5 -69q9 29 20 60l22 61l18 53l14 35q91 109 144 195t53 137q0 23 -7.5 40.5t-24.5 17.5q-27 0 -49.5 -16.5t-41.5 -44.5t-35.5 -64.5t-31 -77t-27.5 -82.5l-25 -81q-35 -45 -66.5 -81t-53.5 -59q-6 -8 -6 -16q0 -10 7.5 -18 t17.5 -8q9 0 17 8l17 17l18 21l-23 -69l-13 -40l-8 -24q-3 -9 -6 -20q-57 -45 -93 -81t-56.5 -64.5t-28 -51.5t-7.5 -42q0 -47 18.5 -65.5t47.5 -18.5q28 0 48 16.5t37 52t34 90.5l42 133q57 43 101 79.5t77.5 70t59 65t45.5 64.5q11 -35 15 -68.5t4 -61.5q0 -27 -3 -45.5 t-8 -23.5q-23 -10 -49 -10q-20 0 -38 2.5t-36 2.5q-14 0 -23 -5.5t-9 -19.5q0 -11 2.5 -17t11 -10t23 -5t38.5 -1q46 0 86.5 13.5t74.5 33t59.5 42t41.5 39.5q7 7 7 17t-7.5 17.5t-18.5 7.5q-10 0 -17 -8zM-131 -258q0 22 9.5 43t25 40.5t34 37t36.5 32.5 q-29 -94 -47 -136.5t-34 -42.5q-8 0 -16 3.5t-8 22.5z" />
<glyph unicode="&#xe0;" horiz-adv-x="410" d="M138 526q0 -6 3.5 -12t11.5 -9q29 -13 51.5 -32.5t57.5 -43.5q10 -7 19 -7q11 0 16.5 7.5t5.5 18.5q0 13 -11 21q-31 22 -55.5 43.5t-59.5 37.5q-9 3 -14 3q-11 0 -18 -8.5t-7 -18.5zM58 -32q34 0 63.5 15.5t54.5 38.5q0 -20 14 -34.5t33 -14.5q27 0 55 11.5t54 29.5 t49.5 39t41.5 39q11 13 11 23q0 11 -5.5 18.5t-16.5 7.5q-8 0 -13 -2t-11 -8q-12 -14 -33 -32t-43.5 -35t-43.5 -28.5t-32 -11.5q-10 0 -10 16q0 12 10.5 34t23.5 45.5t25.5 43.5t15.5 28q7 14 11 25.5t4 20.5q0 22 -22 22q-13 0 -18.5 -6.5t-17.5 -26.5 q-14 -25 -36.5 -60.5t-49.5 -68.5t-55.5 -56t-53.5 -23q-18 0 -28.5 12t-10.5 35t12 64t44.5 81.5t90 70t148.5 29.5q20 0 28 7.5t8 17.5t-7 17.5t-24 7.5q-96 0 -162.5 -29.5t-107.5 -73.5t-59.5 -95t-18.5 -95q0 -46 18.5 -72.5t63.5 -26.5z" />
<glyph unicode="&#xe1;" horiz-adv-x="410" d="M403 552q-2 0 -10 -2q-19 -9 -34 -19t-29 -21l-26 -21q-14 -11 -30 -21q-11 -7 -11 -19q0 -11 7.5 -19t18.5 -8q6 0 13 4q18 13 32 24.5l27 21.5l25 18q13 8 27 14q15 7 15 22q0 10 -7 18t-18 8zM58 -32q34 0 63.5 15.5t54.5 38.5q0 -20 14 -34.5t33 -14.5q27 0 55 11.5 t54 29.5t49.5 39t41.5 39q11 13 11 23q0 11 -5.5 18.5t-16.5 7.5q-8 0 -13 -2t-11 -8q-12 -14 -33 -32t-43.5 -35t-43.5 -28.5t-32 -11.5q-10 0 -10 16q0 12 10.5 34t23.5 45.5t25.5 43.5t15.5 28q7 14 11 25.5t4 20.5q0 22 -22 22q-13 0 -18.5 -6.5t-17.5 -26.5 q-14 -25 -36.5 -60.5t-49.5 -68.5t-55.5 -56t-53.5 -23q-18 0 -28.5 12t-10.5 35t12 64t44.5 81.5t90 70t148.5 29.5q20 0 28 7.5t8 17.5t-7 17.5t-24 7.5q-96 0 -162.5 -29.5t-107.5 -73.5t-59.5 -95t-18.5 -95q0 -46 18.5 -72.5t63.5 -26.5z" />
<glyph unicode="&#xe2;" horiz-adv-x="410" d="M164 381q8 0 16 9q13 18 28.5 33t28.5 25.5t23 16.5t13 7q6 -2 26 -21.5t40 -48.5q7 -11 19 -11q9 0 16.5 6.5t7.5 17.5q0 6 -5 14q-23 34 -43 52l-33 29q-11 9 -25 9q-11 0 -21 -4t-18 -10q-19 -14 -41.5 -38.5t-47.5 -44.5q-8 -7 -8 -16t7.5 -17t16.5 -8zM58 -32 q34 0 63.5 15.5t54.5 38.5q0 -20 14 -34.5t33 -14.5q27 0 55 11.5t54 29.5t49.5 39t41.5 39q11 13 11 23q0 11 -5.5 18.5t-16.5 7.5q-8 0 -13 -2t-11 -8q-12 -14 -33 -32t-43.5 -35t-43.5 -28.5t-32 -11.5q-10 0 -10 16q0 12 10.5 34t23.5 45.5t25.5 43.5t15.5 28 q7 14 11 25.5t4 20.5q0 22 -22 22q-13 0 -18.5 -6.5t-17.5 -26.5q-14 -25 -36.5 -60.5t-49.5 -68.5t-55.5 -56t-53.5 -23q-18 0 -28.5 12t-10.5 35t12 64t44.5 81.5t90 70t148.5 29.5q20 0 28 7.5t8 17.5t-7 17.5t-24 7.5q-96 0 -162.5 -29.5t-107.5 -73.5t-59.5 -95 t-18.5 -95q0 -46 18.5 -72.5t63.5 -26.5z" />
<glyph unicode="&#xe3;" horiz-adv-x="410" d="M138 390q10 0 17 7l35 33q16 15 33 15q13 0 24 -6t25 -17q12 -10 28.5 -21t42.5 -11q35 0 65 14t50 41q5 8 5 14q0 11 -8 18.5t-18 7.5q-12 0 -19 -10q-14 -18 -31.5 -26.5t-43.5 -8.5q-12 0 -23 9l-24 20q-12 11 -29.5 18.5t-43.5 7.5q-21 0 -37 -7.5t-28 -17.5 t-21 -20.5t-16 -16.5q-8 -8 -8 -18t7.5 -17.5t17.5 -7.5zM58 -32q34 0 63.5 15.5t54.5 38.5q0 -20 14 -34.5t33 -14.5q27 0 55 11.5t54 29.5t49.5 39t41.5 39q11 13 11 23q0 11 -5.5 18.5t-16.5 7.5q-8 0 -13 -2t-11 -8q-12 -14 -33 -32t-43.5 -35t-43.5 -28.5t-32 -11.5 q-10 0 -10 16q0 12 10.5 34t23.5 45.5t25.5 43.5t15.5 28q7 14 11 25.5t4 20.5q0 22 -22 22q-13 0 -18.5 -6.5t-17.5 -26.5q-14 -25 -36.5 -60.5t-49.5 -68.5t-55.5 -56t-53.5 -23q-18 0 -28.5 12t-10.5 35t12 64t44.5 81.5t90 70t148.5 29.5q20 0 28 7.5t8 17.5t-7 17.5 t-24 7.5q-96 0 -162.5 -29.5t-107.5 -73.5t-59.5 -95t-18.5 -95q0 -46 18.5 -72.5t63.5 -26.5z" />
<glyph unicode="&#xe4;" horiz-adv-x="410" d="M176 424q9 0 20.5 3t21 8t16.5 11.5t7 14.5q0 9 -6 18.5t-14.5 16.5t-18 11.5t-17.5 4.5q-20 0 -31.5 -17t-11.5 -36q0 -14 8 -24.5t26 -10.5zM338 424q10 0 21.5 3t21 8t16 11.5t6.5 14.5q0 9 -5.5 18.5t-14 16.5t-18.5 11.5t-18 4.5q-20 0 -31.5 -17t-11.5 -36 q0 -14 8 -24.5t26 -10.5zM58 -32q34 0 63.5 15.5t54.5 38.5q0 -20 14 -34.5t33 -14.5q27 0 55 11.5t54 29.5t49.5 39t41.5 39q11 13 11 23q0 11 -5.5 18.5t-16.5 7.5q-8 0 -13 -2t-11 -8q-12 -14 -33 -32t-43.5 -35t-43.5 -28.5t-32 -11.5q-10 0 -10 16q0 12 10.5 34 t23.5 45.5t25.5 43.5t15.5 28q7 14 11 25.5t4 20.5q0 22 -22 22q-13 0 -18.5 -6.5t-17.5 -26.5q-14 -25 -36.5 -60.5t-49.5 -68.5t-55.5 -56t-53.5 -23q-18 0 -28.5 12t-10.5 35t12 64t44.5 81.5t90 70t148.5 29.5q20 0 28 7.5t8 17.5t-7 17.5t-24 7.5q-96 0 -162.5 -29.5 t-107.5 -73.5t-59.5 -95t-18.5 -95q0 -46 18.5 -72.5t63.5 -26.5z" />
<glyph unicode="&#xe5;" horiz-adv-x="410" d="M269 389q4 0 7 2q25 14 35.5 30.5t10.5 37.5q0 15 -6 28.5t-16.5 24t-24 17t-28.5 6.5q-20 0 -34.5 -8t-23.5 -20t-13 -25.5t-4 -23.5q0 -25 11 -38t39 -13q10 0 16.5 5t6.5 9q0 7 -6 15.5t-14 4.5q-6 -3 -10 -3q-9 0 -9 18q0 20 11.5 33t27.5 13q20 0 31.5 -14t11.5 -31 q0 -10 -6.5 -19.5t-21.5 -16.5q-9 -5 -9 -13q0 -7 5 -13t13 -6zM58 -32q34 0 63.5 15.5t54.5 38.5q0 -20 14 -34.5t33 -14.5q27 0 55 11.5t54 29.5t49.5 39t41.5 39q11 13 11 23q0 11 -5.5 18.5t-16.5 7.5q-8 0 -13 -2t-11 -8q-12 -14 -33 -32t-43.5 -35t-43.5 -28.5 t-32 -11.5q-10 0 -10 16q0 12 10.5 34t23.5 45.5t25.5 43.5t15.5 28q7 14 11 25.5t4 20.5q0 22 -22 22q-13 0 -18.5 -6.5t-17.5 -26.5q-14 -25 -36.5 -60.5t-49.5 -68.5t-55.5 -56t-53.5 -23q-18 0 -28.5 12t-10.5 35t12 64t44.5 81.5t90 70t148.5 29.5q20 0 28 7.5t8 17.5 t-7 17.5t-24 7.5q-96 0 -162.5 -29.5t-107.5 -73.5t-59.5 -95t-18.5 -95q0 -46 18.5 -72.5t63.5 -26.5z" />
<glyph unicode="&#xe6;" horiz-adv-x="540" d="M330 18q-29 0 -45.5 26t-16.5 65q5 4 21.5 13t38 22t45 29t43.5 34.5t33 38.5t13 40q0 26 -21.5 41.5t-50.5 15.5q-35 0 -63 -19.5t-49 -48t-35 -59.5t-20 -54q-38 -77 -78 -110.5t-85 -33.5q-17 0 -25 12.5t-8 34.5q0 16 4.5 40.5t16 51.5t31 54.5t49.5 49.5t71 35.5 t96 13.5q13 0 19 7.5t6 17.5t-6 17.5t-19 7.5q-60 0 -106.5 -15t-82 -39.5t-60.5 -56.5t-40.5 -65t-22.5 -64.5t-7 -56.5q0 -19 4.5 -36.5t14.5 -30.5t26.5 -20.5t40.5 -7.5q21 0 43.5 8t43.5 21t39.5 30t32.5 36q4 -19 13 -36t22.5 -30t32 -21t41.5 -8q42 0 80.5 16 t69 38.5t52.5 45t33 36.5q5 6 5 15q0 10 -8 17.5t-18 7.5q-12 0 -19 -10q-8 -11 -28 -30t-47 -38.5t-58.5 -33.5t-61.5 -14zM406 283q0 -18 -17.5 -35.5t-39.5 -32.5t-43 -25l-26 -14q9 27 23.5 49t30.5 38t31 24.5t26 8.5q15 0 15 -13z" />
<glyph unicode="&#xe7;" horiz-adv-x="325" d="M59 -143q31 0 51 7t32 22t17 37.5t5 53.5q31 7 57 21.5t48 31t39 34.5l32 31q6 7 8 11.5t2 8.5q0 10 -8 18t-17 8q-5 0 -10.5 -3t-14.5 -12q-15 -16 -35 -34.5t-44 -34.5t-52 -26.5t-59 -10.5q-37 0 -58.5 23t-21.5 61q0 36 16 71.5t40 63.5t52 45.5t52 17.5 q20 0 30.5 -11.5t10.5 -21.5q0 -4 -2 -9.5t-2 -12.5q0 -17 25 -17q28 0 28 42q0 33 -26.5 56t-66.5 23q-39 0 -76 -24t-66 -60t-47 -79t-18 -82q0 -42 12.5 -68.5t32 -41.5t43 -20.5t46.5 -5.5l-4 -26q-1 -11 -4 -19q-7 -15 -16.5 -17.5t-37.5 -3.5q-22 -1 -30.5 -4 t-8.5 -17q0 -16 11 -21t35 -5z" />
<glyph unicode="&#xe8;" horiz-adv-x="305" d="M168 279q0 -13 -11.5 -27.5t-30.5 -28t-42 -26t-46 -22.5q10 30 25.5 52t31.5 36.5t31 22t25 7.5q8 0 12.5 -2t4.5 -12zM27 103q0 4 0.5 7t1.5 8q29 13 62 29.5t61.5 36.5t47.5 45t19 55q0 29 -17.5 44t-43.5 15q-32 0 -64.5 -19.5t-59 -52t-43 -75.5t-16.5 -90 q0 -67 30.5 -102.5t82.5 -35.5q43 0 78.5 14.5t64 34t49 40.5t33.5 33q6 7 10 13t4 12q0 11 -7.5 18.5t-15.5 7.5q-6 0 -11 -2t-12 -9l-34 -34q-19 -20 -42.5 -37.5t-52.5 -29.5t-63 -12q-32 0 -47 24.5t-15 61.5zM56 526q0 -6 3.5 -12t11.5 -9q29 -13 51.5 -32.5 t57.5 -43.5q10 -7 19 -7q11 0 16.5 7.5t5.5 18.5q0 13 -11 21q-31 22 -55.5 43.5t-59.5 37.5q-9 3 -14 3q-11 0 -18 -8.5t-7 -18.5z" />
<glyph unicode="&#xe9;" horiz-adv-x="305" d="M271 552q-2 0 -10 -2q-19 -9 -34 -19t-29 -21l-26 -21q-14 -11 -30 -21q-11 -7 -11 -19q0 -11 7.5 -19t18.5 -8q6 0 13 4q18 13 32 24.5l27 21.5l25 18q13 8 27 14q15 7 15 22q0 10 -7 18t-18 8zM168 279q0 -13 -11.5 -27.5t-30.5 -28t-42 -26t-46 -22.5q10 30 25.5 52 t31.5 36.5t31 22t25 7.5q8 0 12.5 -2t4.5 -12zM27 103q0 4 0.5 7t1.5 8q29 13 62 29.5t61.5 36.5t47.5 45t19 55q0 29 -17.5 44t-43.5 15q-32 0 -64.5 -19.5t-59 -52t-43 -75.5t-16.5 -90q0 -67 30.5 -102.5t82.5 -35.5q43 0 78.5 14.5t64 34t49 40.5t33.5 33q6 7 10 13 t4 12q0 11 -7.5 18.5t-15.5 7.5q-6 0 -11 -2t-12 -9l-34 -34q-19 -20 -42.5 -37.5t-52.5 -29.5t-63 -12q-32 0 -47 24.5t-15 61.5z" />
<glyph unicode="&#xea;" horiz-adv-x="305" d="M84 381q8 0 16 9q27 37 49.5 58.5t28.5 23.5q6 -2 26 -21.5t40 -48.5q7 -11 19 -11q9 0 16.5 6.5t7.5 17.5q0 6 -5 14q-23 34 -43 52l-33 29q-11 9 -25 9q-11 0 -21 -4t-18 -10q-19 -14 -34 -38.5t-40 -44.5q-8 -7 -8 -16t7.5 -17t16.5 -8zM168 279q0 -13 -11.5 -27.5 t-30.5 -28t-42 -26t-46 -22.5q10 30 25.5 52t31.5 36.5t31 22t25 7.5q8 0 12.5 -2t4.5 -12zM27 103q0 4 0.5 7t1.5 8q29 13 62 29.5t61.5 36.5t47.5 45t19 55q0 29 -17.5 44t-43.5 15q-32 0 -64.5 -19.5t-59 -52t-43 -75.5t-16.5 -90q0 -67 30.5 -102.5t82.5 -35.5 q43 0 78.5 14.5t64 34t49 40.5t33.5 33q6 7 10 13t4 12q0 11 -7.5 18.5t-15.5 7.5q-6 0 -11 -2t-12 -9l-34 -34q-19 -20 -42.5 -37.5t-52.5 -29.5t-63 -12q-32 0 -47 24.5t-15 61.5z" />
<glyph unicode="&#xeb;" horiz-adv-x="305" d="M98 424q9 0 20.5 3t21 8t16.5 11.5t7 14.5q0 9 -6 18.5t-14.5 16.5t-18 11.5t-17.5 4.5q-20 0 -31.5 -17t-11.5 -36q0 -14 8 -24.5t26 -10.5zM260 424q10 0 21.5 3t21 8t16 11.5t6.5 14.5q0 9 -5.5 18.5t-14 16.5t-18.5 11.5t-18 4.5q-20 0 -31.5 -17t-11.5 -36 q0 -14 8 -24.5t26 -10.5zM168 279q0 -13 -11.5 -27.5t-30.5 -28t-42 -26t-46 -22.5q10 30 25.5 52t31.5 36.5t31 22t25 7.5q8 0 12.5 -2t4.5 -12zM27 103q0 4 0.5 7t1.5 8q29 13 62 29.5t61.5 36.5t47.5 45t19 55q0 29 -17.5 44t-43.5 15q-32 0 -64.5 -19.5t-59 -52 t-43 -75.5t-16.5 -90q0 -67 30.5 -102.5t82.5 -35.5q43 0 78.5 14.5t64 34t49 40.5t33.5 33q6 7 10 13t4 12q0 11 -7.5 18.5t-15.5 7.5q-6 0 -11 -2t-12 -9l-34 -34q-19 -20 -42.5 -37.5t-52.5 -29.5t-63 -12q-32 0 -47 24.5t-15 61.5z" />
<glyph unicode="&#xec;" horiz-adv-x="224" d="M-5 91q2 0 8 1.5t8 2.5q-7 -16 -10.5 -34.5t-3.5 -32.5q0 -25 12.5 -38.5t41.5 -13.5q26 0 54.5 14.5t55 34.5t47.5 41l34 33q7 7 7 17q0 11 -7.5 18.5t-17.5 7.5q-11 0 -18 -9q-13 -15 -34.5 -34t-44 -35.5t-41.5 -28t-27 -11.5q-12 0 -12 13q0 8 4 20t11 30 q10 25 20 47l20 44l23 46l26 49q3 6 5.5 12t2.5 12q0 11 -8 18t-16 7q-11 0 -19 -6.5t-16 -18.5q-11 -16 -25 -39l-29 -47q-15 -24 -31 -44.5t-32 -31.5q-5 -4 -8 -8.5t-3 -12.5q0 -9 7 -16t16 -7zM34 526q0 -6 3.5 -12t11.5 -9q29 -13 51.5 -32.5t57.5 -43.5q10 -7 19 -7 q11 0 16.5 7.5t5.5 18.5q0 13 -11 21q-31 22 -55.5 43.5t-59.5 37.5q-9 3 -14 3q-11 0 -18 -8.5t-7 -18.5z" />
<glyph unicode="&#xed;" horiz-adv-x="224" d="M-5 91q2 0 8 1.5t8 2.5q-7 -16 -10.5 -34.5t-3.5 -32.5q0 -25 12.5 -38.5t41.5 -13.5q26 0 54.5 14.5t55 34.5t47.5 41l34 33q7 7 7 17q0 11 -7.5 18.5t-17.5 7.5q-11 0 -18 -9q-13 -15 -34.5 -34t-44 -35.5t-41.5 -28t-27 -11.5q-12 0 -12 13q0 8 4 20t11 30 q10 25 20 47l20 44l23 46l26 49q3 6 5.5 12t2.5 12q0 11 -8 18t-16 7q-11 0 -19 -6.5t-16 -18.5q-11 -16 -25 -39l-29 -47q-15 -24 -31 -44.5t-32 -31.5q-5 -4 -8 -8.5t-3 -12.5q0 -9 7 -16t16 -7zM277 552q-2 0 -10 -2q-19 -9 -34 -19t-29 -21l-26 -21q-14 -11 -30 -21 q-11 -7 -11 -19q0 -11 7.5 -19t18.5 -8q6 0 13 4q18 13 32 24.5l27 21.5l25 18q13 8 27 14q15 7 15 22q0 10 -7 18t-18 8z" />
<glyph unicode="&#xee;" horiz-adv-x="224" d="M-5 91q2 0 8 1.5t8 2.5q-7 -16 -10.5 -34.5t-3.5 -32.5q0 -25 12.5 -38.5t41.5 -13.5q26 0 54.5 14.5t55 34.5t47.5 41l34 33q7 7 7 17q0 11 -7.5 18.5t-17.5 7.5q-11 0 -18 -9q-13 -15 -34.5 -34t-44 -35.5t-41.5 -28t-27 -11.5q-12 0 -12 13q0 8 4 20t11 30 q10 25 20 47l20 44l23 46l26 49q3 6 5.5 12t2.5 12q0 11 -8 18t-16 7q-11 0 -19 -6.5t-16 -18.5q-11 -16 -25 -39l-29 -47q-15 -24 -31 -44.5t-32 -31.5q-5 -4 -8 -8.5t-3 -12.5q0 -9 7 -16t16 -7zM47 381q8 0 16 9q13 18 30 33t32.5 25.5t27 16.5t14.5 7q6 -2 26 -21.5 t40 -48.5q7 -11 19 -11q9 0 16.5 6.5t7.5 17.5q0 6 -5 14q-23 34 -43 52l-33 29q-11 9 -25 9q-11 0 -21 -4t-18 -10q-19 -14 -47 -39l-53 -44q-8 -7 -8 -16t7.5 -17t16.5 -8z" />
<glyph unicode="&#xef;" horiz-adv-x="224" d="M-5 91q2 0 8 1.5t8 2.5q-7 -16 -10.5 -34.5t-3.5 -32.5q0 -25 12.5 -38.5t41.5 -13.5q26 0 54.5 14.5t55 34.5t47.5 41l34 33q7 7 7 17q0 11 -7.5 18.5t-17.5 7.5q-11 0 -18 -9q-13 -15 -34.5 -34t-44 -35.5t-41.5 -28t-27 -11.5q-12 0 -12 13q0 8 4 20t11 30 q10 25 20 47l20 44l23 46l26 49q3 6 5.5 12t2.5 12q0 11 -8 18t-16 7q-11 0 -19 -6.5t-16 -18.5q-11 -16 -25 -39l-29 -47q-15 -24 -31 -44.5t-32 -31.5q-5 -4 -8 -8.5t-3 -12.5q0 -9 7 -16t16 -7zM88 424q9 0 20.5 3t21 8t16.5 11.5t7 14.5q0 9 -6 18.5t-14.5 16.5 t-18 11.5t-17.5 4.5q-20 0 -31.5 -17t-11.5 -36q0 -14 8 -24.5t26 -10.5zM250 424q10 0 21.5 3t21 8t16 11.5t6.5 14.5q0 9 -5.5 18.5t-14 16.5t-18.5 11.5t-18 4.5q-20 0 -31.5 -17t-11.5 -36q0 -14 8 -24.5t26 -10.5z" />
<glyph unicode="&#xf0;" horiz-adv-x="368" d="M185 289q48 0 73 -18.5t25 -50.5q0 -28 -13.5 -63t-38 -65.5t-57.5 -51t-72 -20.5q-36 0 -55.5 25t-19.5 63q0 28 10 60t30 59t49.5 44.5t68.5 17.5zM258 568q-27 38 -65 74q-7 6 -13 10t-12 4q-9 0 -15 -5.5t-6 -14.5q0 -12 10 -22q17 -17 32 -35t29 -38l-36 -25 l-28 -20q-17 -12 -17 -24q0 -9 5 -13t12 -4q8 0 19 8l33 22l33 22q23 -42 36 -93.5t13 -114.5q-16 24 -41.5 32t-60.5 8q-54 0 -93 -24t-65 -59.5t-38.5 -76t-12.5 -74.5q0 -27 7.5 -51.5t22.5 -43t38.5 -29.5t56.5 -11q57 0 101.5 32t76.5 75q10 13 20 30t18 40.5t13 55 t5 75.5q0 78 -13.5 140.5t-42.5 115.5l28 18l27 21t14 22q0 7 -4.5 12t-12.5 5q-4 0 -8.5 -1t-9.5 -5l-28 -18z" />
<glyph unicode="&#xf1;" horiz-adv-x="460" d="M144 390q10 0 17 7l35 33q16 15 33 15q13 0 24 -6t25 -17q12 -10 28.5 -21t42.5 -11q35 0 65 14t50 41q5 8 5 14q0 11 -8 18.5t-18 7.5q-12 0 -19 -10q-14 -18 -31.5 -26.5t-43.5 -8.5q-12 0 -23 9l-24 20q-12 11 -29.5 18.5t-43.5 7.5q-21 0 -37 -7.5t-28 -17.5 t-21 -20.5t-16 -16.5q-8 -8 -8 -18t7.5 -17.5t17.5 -7.5zM443 132q-9 -12 -29 -30t-42 -35.5t-42 -30t-29 -12.5q13 27 28 63.5t27.5 72.5t21 66.5t8.5 46.5q0 29 -11.5 41t-29.5 12q-12 0 -35.5 -11.5t-52 -30.5t-58.5 -44t-54 -52l15 62q7 31 7 49q0 11 -6 13.5t-14 2.5 q-11 0 -16 -2.5t-10 -13.5q-22 -42 -61 -83l-78 -83q-7 -7 -7 -18t8 -17.5t18 -6.5q9 0 17 8l29 29q18 19 29 33q-9 -30 -20 -57l-20 -49q-3 -8 -6.5 -20t-3.5 -17q0 -29 38 -29q28 54 57 96t61.5 76t70 62t84.5 53q0 -12 -7.5 -40.5t-19.5 -63.5t-26 -72t-27 -67 q-3 -7 -4.5 -14t-1.5 -12q0 -32 43 -32q23 0 49.5 14t51 33t45.5 39l33 32q10 10 10 22q0 11 -7 18.5t-17 7.5q-9 0 -16 -9z" />
<glyph unicode="&#xf2;" horiz-adv-x="368" d="M185 289q24 0 44 -6q-26 -8 -41.5 -31.5t-15.5 -51.5q0 -18 6.5 -34.5t15.5 -30t19 -23t18 -15.5q-26 -33 -57.5 -55t-71.5 -22q-36 0 -55.5 25t-19.5 63q0 28 10 60t30 59t49.5 44.5t68.5 17.5zM334 208q0 25 -9 41t-21 24t-25 11t-20 3q8 8 8 20q0 16 -17 22 q-14 5 -30 7.5t-34 2.5q-54 0 -93 -24t-65 -59.5t-38.5 -76t-12.5 -74.5q0 -27 7.5 -51.5t22.5 -43t38.5 -29.5t56.5 -11q30 0 55.5 8.5t47.5 23t39.5 33t32.5 39.5q18 -5 34 -5q25 0 46 9.5t32 24.5q5 8 5 14q0 10 -8 16.5t-18 6.5q-13 0 -21 -11q-4 -4 -12 -6.5t-24 -2.5 h-4q5 7 10 18t8.5 23.5t6 25t2.5 21.5zM284 208q0 -22 -6.5 -38t-18.5 -33q-22 15 -29.5 35.5t-7.5 32.5q0 32 34 32q18 0 23 -7t5 -22zM98 526q0 -6 3.5 -12t11.5 -9q29 -13 51.5 -32.5t57.5 -43.5q10 -7 19 -7q11 0 16.5 7.5t5.5 18.5q0 13 -11 21q-31 22 -55.5 43.5 t-59.5 37.5q-9 3 -14 3q-11 0 -18 -8.5t-7 -18.5z" />
<glyph unicode="&#xf3;" horiz-adv-x="368" d="M369 552q-2 0 -10 -2q-19 -9 -34 -19t-29 -21l-26 -21q-14 -11 -30 -21q-11 -7 -11 -19q0 -11 7.5 -19t18.5 -8q6 0 13 4q18 13 32 24.5l27 21.5l25 18q13 8 27 14q15 7 15 22q0 10 -7 18t-18 8zM185 289q24 0 44 -6q-26 -8 -41.5 -31.5t-15.5 -51.5q0 -18 6.5 -34.5 t15.5 -30t19 -23t18 -15.5q-26 -33 -57.5 -55t-71.5 -22q-36 0 -55.5 25t-19.5 63q0 28 10 60t30 59t49.5 44.5t68.5 17.5zM334 208q0 25 -9 41t-21 24t-25 11t-20 3q8 8 8 20q0 16 -17 22q-14 5 -30 7.5t-34 2.5q-54 0 -93 -24t-65 -59.5t-38.5 -76t-12.5 -74.5 q0 -27 7.5 -51.5t22.5 -43t38.5 -29.5t56.5 -11q30 0 55.5 8.5t47.5 23t39.5 33t32.5 39.5q18 -5 34 -5q25 0 46 9.5t32 24.5q5 8 5 14q0 10 -8 16.5t-18 6.5q-13 0 -21 -11q-4 -4 -12 -6.5t-24 -2.5h-4q5 7 10 18t8.5 23.5t6 25t2.5 21.5zM284 208q0 -22 -6.5 -38 t-18.5 -33q-22 15 -29.5 35.5t-7.5 32.5q0 32 34 32q18 0 23 -7t5 -22z" />
<glyph unicode="&#xf4;" horiz-adv-x="368" d="M108 381q8 0 16 9q13 18 28.5 33t29 25.5t23.5 16.5t13 7q6 -2 26 -21.5t40 -48.5q7 -11 19 -11q9 0 16.5 6.5t7.5 17.5q0 6 -5 14q-23 34 -43 52l-33 29q-11 9 -25 9q-11 0 -21 -4t-18 -10q-19 -14 -42 -38.5t-48 -44.5q-8 -7 -8 -16t7.5 -17t16.5 -8zM185 289 q24 0 44 -6q-26 -8 -41.5 -31.5t-15.5 -51.5q0 -18 6.5 -34.5t15.5 -30t19 -23t18 -15.5q-26 -33 -57.5 -55t-71.5 -22q-36 0 -55.5 25t-19.5 63q0 28 10 60t30 59t49.5 44.5t68.5 17.5zM334 208q0 25 -9 41t-21 24t-25 11t-20 3q8 8 8 20q0 16 -17 22q-14 5 -30 7.5 t-34 2.5q-54 0 -93 -24t-65 -59.5t-38.5 -76t-12.5 -74.5q0 -27 7.5 -51.5t22.5 -43t38.5 -29.5t56.5 -11q30 0 55.5 8.5t47.5 23t39.5 33t32.5 39.5q18 -5 34 -5q25 0 46 9.5t32 24.5q5 8 5 14q0 10 -8 16.5t-18 6.5q-13 0 -21 -11q-4 -4 -12 -6.5t-24 -2.5h-4q5 7 10 18 t8.5 23.5t6 25t2.5 21.5zM284 208q0 -22 -6.5 -38t-18.5 -33q-22 15 -29.5 35.5t-7.5 32.5q0 32 34 32q18 0 23 -7t5 -22z" />
<glyph unicode="&#xf5;" horiz-adv-x="368" d="M70 390q10 0 17 7l35 33q16 15 33 15q13 0 24 -6t25 -17q12 -10 28.5 -21t42.5 -11q35 0 65 14t50 41q5 8 5 14q0 11 -8 18.5t-18 7.5q-12 0 -19 -10q-14 -18 -31.5 -26.5t-43.5 -8.5q-12 0 -23 9l-24 20q-12 11 -29.5 18.5t-43.5 7.5q-21 0 -37 -7.5t-28 -17.5 t-21 -20.5t-16 -16.5q-8 -8 -8 -18t7.5 -17.5t17.5 -7.5zM185 289q24 0 44 -6q-26 -8 -41.5 -31.5t-15.5 -51.5q0 -18 6.5 -34.5t15.5 -30t19 -23t18 -15.5q-26 -33 -57.5 -55t-71.5 -22q-36 0 -55.5 25t-19.5 63q0 28 10 60t30 59t49.5 44.5t68.5 17.5zM334 208q0 25 -9 41 t-21 24t-25 11t-20 3q8 8 8 20q0 16 -17 22q-14 5 -30 7.5t-34 2.5q-54 0 -93 -24t-65 -59.5t-38.5 -76t-12.5 -74.5q0 -27 7.5 -51.5t22.5 -43t38.5 -29.5t56.5 -11q30 0 55.5 8.5t47.5 23t39.5 33t32.5 39.5q18 -5 34 -5q25 0 46 9.5t32 24.5q5 8 5 14q0 10 -8 16.5 t-18 6.5q-13 0 -21 -11q-4 -4 -12 -6.5t-24 -2.5h-4q5 7 10 18t8.5 23.5t6 25t2.5 21.5zM284 208q0 -22 -6.5 -38t-18.5 -33q-22 15 -29.5 35.5t-7.5 32.5q0 32 34 32q18 0 23 -7t5 -22z" />
<glyph unicode="&#xf6;" horiz-adv-x="368" d="M152 424q9 0 20.5 3t21 8t16.5 11.5t7 14.5q0 9 -6 18.5t-14.5 16.5t-18 11.5t-17.5 4.5q-20 0 -31.5 -17t-11.5 -36q0 -14 8 -24.5t26 -10.5zM314 424q10 0 21.5 3t21 8t16 11.5t6.5 14.5q0 9 -5.5 18.5t-14 16.5t-18.5 11.5t-18 4.5q-20 0 -31.5 -17t-11.5 -36 q0 -14 8 -24.5t26 -10.5zM185 289q24 0 44 -6q-26 -8 -41.5 -31.5t-15.5 -51.5q0 -18 6.5 -34.5t15.5 -30t19 -23t18 -15.5q-26 -33 -57.5 -55t-71.5 -22q-36 0 -55.5 25t-19.5 63q0 28 10 60t30 59t49.5 44.5t68.5 17.5zM334 208q0 25 -9 41t-21 24t-25 11t-20 3q8 8 8 20 q0 16 -17 22q-14 5 -30 7.5t-34 2.5q-54 0 -93 -24t-65 -59.5t-38.5 -76t-12.5 -74.5q0 -27 7.5 -51.5t22.5 -43t38.5 -29.5t56.5 -11q30 0 55.5 8.5t47.5 23t39.5 33t32.5 39.5q18 -5 34 -5q25 0 46 9.5t32 24.5q5 8 5 14q0 10 -8 16.5t-18 6.5q-13 0 -21 -11 q-4 -4 -12 -6.5t-24 -2.5h-4q5 7 10 18t8.5 23.5t6 25t2.5 21.5zM284 208q0 -22 -6.5 -38t-18.5 -33q-22 15 -29.5 35.5t-7.5 32.5q0 32 34 32q18 0 23 -7t5 -22z" />
<glyph unicode="&#xf8;" horiz-adv-x="368" d="M232 282q-23 -4 -39.5 -21.5t-19.5 -37.5q-38 -42 -70.5 -83t-67.5 -79q-8 21 -8 45q0 30 10 62t30 59t49.5 44.5t68.5 17.5q13 0 24.5 -2t22.5 -5zM182 157q8 -15 20 -29.5t32 -27.5q-26 -35 -58 -57.5t-74 -22.5q-19 0 -32 5q32 35 59 68zM283 205q0 -13 -5 -29 t-17 -36q-20 13 -29.5 30.5t-11.5 29.5q8 9 20 21l22 21q6 -3 13.5 -12t7.5 -25zM102 -30q31 0 57.5 9t48.5 24t40 35t33 41q15 -3 29 -3q27 0 48.5 9t31.5 22q5 6 5 13q0 10 -8 16t-19 6q-6 0 -10 -3l-12 -8q-7 -5 -30 -5h-5q8 14 15.5 37t7.5 45q0 19 -7.5 36.5 t-25.5 29.5q35 28 80 48q14 6 14 21q0 10 -7 18.5t-18 8.5q-7 0 -11 -2q-53 -26 -93 -57q-2 8 -10.5 13.5t-20.5 8.5t-25 4.5t-24 1.5q-60 0 -100 -26t-64.5 -62.5t-34.5 -76.5t-10 -67q0 -48 21 -82q-38 -35 -80 -58q-12 -7 -12 -20q0 -10 7 -18.5t18 -8.5q5 0 15 6 q49 28 86 64q14 -9 31.5 -14.5t38.5 -5.5z" />
<glyph unicode="&#xf9;" horiz-adv-x="495" d="M144 526q0 -6 3.5 -12t11.5 -9q29 -13 51.5 -32.5t57.5 -43.5q10 -7 19 -7q11 0 16.5 7.5t5.5 18.5q0 13 -11 21q-31 22 -55.5 43.5t-59.5 37.5q-9 3 -14 3q-11 0 -18 -8.5t-7 -18.5zM60 -22q21 0 43.5 6t48.5 20t54.5 38t61.5 59q-11 -33 -11 -58q0 -30 13.5 -49 t41.5 -19q29 0 59 14.5t57 35t48.5 43t32.5 38.5q6 9 6 17q0 10 -6 16t-14 6q-10 0 -18 -11q-7 -10 -26 -29.5t-42 -38.5t-45.5 -33.5t-36.5 -14.5q-13 0 -18.5 9.5t-5.5 23.5q0 22 10 50q15 42 40 87l53 95q2 3 2 8q0 9 -8.5 15t-17.5 6q-11 0 -15 -8q-38 -63 -77 -115 t-77 -89t-74 -57t-68 -20q-11 0 -11 16q0 19 17 61q8 20 19 44l23 51l25 52l25 50q2 4 2 6q0 8 -7.5 13t-15.5 5q-6 0 -9 -4q-9 -15 -27.5 -39t-41 -50t-46 -50.5t-41.5 -40.5q-10 -9 -10 -19q0 -9 6.5 -15.5t16.5 -6.5q8 0 16 6q2 2 7 6l11 10l10 10q5 4 8 7 q-32 -64 -32 -107q0 -50 44 -50z" />
<glyph unicode="&#xfa;" horiz-adv-x="495" d="M435 552q-2 0 -10 -2q-19 -9 -34 -19t-29 -21l-26 -21q-14 -11 -30 -21q-11 -7 -11 -19q0 -11 7.5 -19t18.5 -8q6 0 13 4q18 13 32 24.5l27 21.5l25 18q13 8 27 14q15 7 15 22q0 10 -7 18t-18 8zM60 -22q21 0 43.5 6t48.5 20t54.5 38t61.5 59q-11 -33 -11 -58 q0 -30 13.5 -49t41.5 -19q29 0 59 14.5t57 35t48.5 43t32.5 38.5q6 9 6 17q0 10 -6 16t-14 6q-10 0 -18 -11q-7 -10 -26 -29.5t-42 -38.5t-45.5 -33.5t-36.5 -14.5q-13 0 -18.5 9.5t-5.5 23.5q0 22 10 50q15 42 40 87l53 95q2 3 2 8q0 9 -8.5 15t-17.5 6q-11 0 -15 -8 q-38 -63 -77 -115t-77 -89t-74 -57t-68 -20q-11 0 -11 16q0 19 17 61q8 20 19 44l23 51l25 52l25 50q2 4 2 6q0 8 -7.5 13t-15.5 5q-6 0 -9 -4q-9 -15 -27.5 -39t-41 -50t-46 -50.5t-41.5 -40.5q-10 -9 -10 -19q0 -9 6.5 -15.5t16.5 -6.5q8 0 16 6q2 2 7 6l11 10l10 10 q5 4 8 7q-32 -64 -32 -107q0 -50 44 -50z" />
<glyph unicode="&#xfb;" horiz-adv-x="495" d="M195 381q8 0 16 9q13 18 28.5 33t29.5 25.5t24 16.5t13 7q6 -2 26 -21.5t40 -48.5q7 -11 19 -11q9 0 16.5 6.5t7.5 17.5q0 6 -5 14q-23 34 -43 52l-33 29q-11 9 -25 9q-11 0 -21 -4t-18 -10q-19 -14 -42.5 -38.5t-48.5 -44.5q-8 -7 -8 -16t7.5 -17t16.5 -8zM60 -22 q21 0 43.5 6t48.5 20t54.5 38t61.5 59q-11 -33 -11 -58q0 -30 13.5 -49t41.5 -19q29 0 59 14.5t57 35t48.5 43t32.5 38.5q6 9 6 17q0 10 -6 16t-14 6q-10 0 -18 -11q-7 -10 -26 -29.5t-42 -38.5t-45.5 -33.5t-36.5 -14.5q-13 0 -18.5 9.5t-5.5 23.5q0 22 10 50q15 42 40 87 l53 95q2 3 2 8q0 9 -8.5 15t-17.5 6q-11 0 -15 -8q-38 -63 -77 -115t-77 -89t-74 -57t-68 -20q-11 0 -11 16q0 19 17 61q8 20 19 44l23 51l25 52l25 50q2 4 2 6q0 8 -7.5 13t-15.5 5q-6 0 -9 -4q-9 -15 -27.5 -39t-41 -50t-46 -50.5t-41.5 -40.5q-10 -9 -10 -19 q0 -9 6.5 -15.5t16.5 -6.5q8 0 16 6q2 2 7 6l11 10l10 10q5 4 8 7q-32 -64 -32 -107q0 -50 44 -50z" />
<glyph unicode="&#xfc;" horiz-adv-x="495" d="M236 424q9 0 20.5 3t21 8t16.5 11.5t7 14.5q0 9 -6 18.5t-14.5 16.5t-18 11.5t-17.5 4.5q-20 0 -31.5 -17t-11.5 -36q0 -14 8 -24.5t26 -10.5zM398 424q10 0 21.5 3t21 8t16 11.5t6.5 14.5q0 9 -5.5 18.5t-14 16.5t-18.5 11.5t-18 4.5q-20 0 -31.5 -17t-11.5 -36 q0 -14 8 -24.5t26 -10.5zM60 -22q21 0 43.5 6t48.5 20t54.5 38t61.5 59q-11 -33 -11 -58q0 -30 13.5 -49t41.5 -19q29 0 59 14.5t57 35t48.5 43t32.5 38.5q6 9 6 17q0 10 -6 16t-14 6q-10 0 -18 -11q-7 -10 -26 -29.5t-42 -38.5t-45.5 -33.5t-36.5 -14.5q-13 0 -18.5 9.5 t-5.5 23.5q0 22 10 50q15 42 40 87l53 95q2 3 2 8q0 9 -8.5 15t-17.5 6q-11 0 -15 -8q-38 -63 -77 -115t-77 -89t-74 -57t-68 -20q-11 0 -11 16q0 19 17 61q8 20 19 44l23 51l25 52l25 50q2 4 2 6q0 8 -7.5 13t-15.5 5q-6 0 -9 -4q-9 -15 -27.5 -39t-41 -50t-46 -50.5 t-41.5 -40.5q-10 -9 -10 -19q0 -9 6.5 -15.5t16.5 -6.5q8 0 16 6q2 2 7 6l11 10l10 10q5 4 8 7q-32 -64 -32 -107q0 -50 44 -50z" />
<glyph unicode="&#xfd;" horiz-adv-x="460" d="M399 552q-2 0 -5 -0.5t-10 -4.5q-32 -17 -59 -37l-55 -42q-11 -8 -11 -19t7.5 -19t18.5 -8q6 0 13 4q34 23 58 44t53 34q15 7 15 22q0 10 -7 18t-18 8zM72 -252q0 22 21 58t81 83l-17 -37l-18 -38l-17 -35q-7 -16 -13 -26q-8 -14 -14 -23.5t-12 -9.5q-11 0 -11 28z M265 91l-1 -2l-24 -53l-25 -56q-52 -34 -88.5 -63t-59 -57.5t-33 -59t-10.5 -68.5q0 -28 11.5 -50t41.5 -22q16 0 35.5 11t27.5 28l59 121l57 123l48 25q29 16 59.5 35.5t61 43.5t54.5 53q8 9 6 19t-9 16t-17 6t-18 -9q-16 -20 -35.5 -37t-40 -31t-39 -24.5t-33.5 -16.5 q31 60 53 114t40 91q10 20 15.5 34t5.5 26q0 6 -5.5 11t-12.5 7.5t-13.5 2t-9.5 -5.5q-30 -55 -62 -97t-64.5 -72.5t-63 -51t-57.5 -32.5q-21 -9 -23 10t8 53.5t28 76.5t36 79q11 22 3 34.5t-22 12.5q-8 0 -14.5 -9.5t-14.5 -19.5q-25 -34 -62 -75l-76 -79q-8 -9 -6.5 -18.5 t8 -16t16.5 -7.5t18 8l45 45q-14 -34 -17 -66t5 -54t27 -29.5t51 6.5t66.5 36t69.5 54z" />
<glyph unicode="&#xfe;" horiz-adv-x="478" d="M200 -35q13 0 25 2t23 7q12 -3 26 -3q27 0 57.5 11.5t59 29t54 38.5t42.5 39q11 11 13.5 16.5t2.5 10.5q0 10 -7.5 17.5t-18.5 7.5q-5 0 -10 -2.5t-14 -13.5q-20 -22 -51 -47t-66 -43q15 14 30 32.5t27.5 40.5t20.5 46t8 48q0 57 -32 93.5t-89 36.5q-38 0 -72 -14.5 t-64 -40.5q0 2 9 27l23 63l29 80l28 81q14 37 22.5 63t8.5 30q0 6 -7.5 8.5t-15.5 2.5q-10 0 -14 -1q-11 -21 -28 -63l-38 -94l-45 -106q-24 -54 -48 -100q-32 -60 -61 -90l-46 -45q-7 -7 -7 -17t7.5 -17.5t18.5 -7.5q10 0 17 8l28 29l31 32l-41 -113l-36 -103l-33 -98 l-32 -97q-3 -11 -4.5 -17t-1.5 -12q0 -8 8.5 -12t18.5 -4q11 0 20 2.5t12 13.5q35 103 69 216t81 231q30 51 73 83t88 32q27 0 41.5 -9.5t21.5 -22t8.5 -26t1.5 -21.5q0 -35 -17.5 -67t-42.5 -56.5t-52 -40.5t-45 -19q-8 3 -16 8l-17 10q-8 6 -15.5 10t-13.5 4 q-17 0 -29.5 -14.5t-12.5 -31.5q0 -21 27 -31t62 -10z" />
<glyph unicode="&#xff;" horiz-adv-x="460" d="M198 424q9 0 20.5 3t21 8t16.5 11.5t7 14.5q0 9 -6 18.5t-14.5 16.5t-18 11.5t-17.5 4.5q-20 0 -31.5 -17t-11.5 -36q0 -14 8 -24.5t26 -10.5zM360 424q10 0 21.5 3t21 8t16 11.5t6.5 14.5q0 9 -5.5 18.5t-14 16.5t-18.5 11.5t-18 4.5q-20 0 -31.5 -17t-11.5 -36 q0 -14 8 -24.5t26 -10.5zM72 -252q0 22 21 58t81 83l-17 -37l-18 -38l-17 -35q-7 -16 -13 -26q-8 -14 -14 -23.5t-12 -9.5q-11 0 -11 28zM265 91l-1 -2l-24 -53l-25 -56q-52 -34 -88.5 -63t-59 -57.5t-33 -59t-10.5 -68.5q0 -28 11.5 -50t41.5 -22q16 0 35.5 11t27.5 28 l59 121l57 123l48 25q29 16 59.5 35.5t61 43.5t54.5 53q8 9 6 19t-9 16t-17 6t-18 -9q-16 -20 -35.5 -37t-40 -31t-39 -24.5t-33.5 -16.5q31 60 53 114t40 91q10 20 15.5 34t5.5 26q0 6 -5.5 11t-12.5 7.5t-13.5 2t-9.5 -5.5q-30 -55 -62 -97t-64.5 -72.5t-63 -51 t-57.5 -32.5q-21 -9 -23 10t8 53.5t28 76.5t36 79q11 22 3 34.5t-22 12.5q-8 0 -14.5 -9.5t-14.5 -19.5q-25 -34 -62 -75l-76 -79q-8 -9 -6.5 -18.5t8 -16t16.5 -7.5t18 8l45 45q-14 -34 -17 -66t5 -54t27 -29.5t51 6.5t66.5 36t69.5 54z" />
<glyph unicode="&#x152;" horiz-adv-x="825" d="M778 642q-32 0 -64.5 -11.5t-62 -31t-55 -45.5t-43.5 -54q-20 29 -49.5 38.5t-56.5 9.5q-57 0 -104 -23t-80.5 -55t-52.5 -65.5t-19 -54.5q0 -11 8 -17t18 -6q8 0 14.5 4t8.5 13q7 27 27 54.5t47.5 50t61 36.5t68.5 14q33 0 52.5 -16.5t26.5 -46.5q-6 -23 -6 -43 q0 -15 7 -42.5t31 -48.5q-61 -31 -97.5 -72t-42.5 -92q-44 -54 -102.5 -89.5t-127.5 -35.5q-58 0 -89 41t-31 107q0 44 13.5 92.5t40 95.5t64.5 89.5t87 74.5t107.5 51t126.5 19q13 0 19 8t6 17t-6 17t-19 8q-74 0 -139 -20.5t-119.5 -55.5t-97 -82t-72 -100t-45 -109.5 t-15.5 -109.5q0 -41 10 -76t31 -61t53 -41t77 -15q71 0 129.5 27.5t105.5 72.5q16 -42 57 -65t92 -23t90 11.5t68.5 28t50.5 35.5l38 35q8 8 12.5 14.5t4.5 14.5q0 11 -6.5 19t-17.5 8q-4 0 -8.5 -2t-10.5 -8l-40 -39q-21 -19 -46.5 -34t-58 -24t-76.5 -9q-33 0 -54 8 t-33 20.5t-16.5 28t-4.5 30.5q0 33 12 57t28.5 41.5t34.5 29.5l31 18q24 15 32 23t8 19q0 15 -7.5 25.5t-12.5 15.5q-19 19 -20.5 33.5t-1.5 17.5q0 48 26 85.5t60.5 63t68.5 39t51 13.5q11 0 16 -7t5 -15q0 -19 -14 -40t-33.5 -40t-39 -34t-29.5 -21q-12 -8 -12 -22 q0 -9 6.5 -15.5t14.5 -6.5t14 2.5t13 6.5q18 10 40.5 28.5t42.5 41.5t33.5 50t13.5 55q0 32 -15.5 49t-50.5 17z" />
<glyph unicode="&#x153;" horiz-adv-x="605" d="M451 340q-29 0 -62 -21t-65 -69q-9 14 -26 25.5t-39 11.5q8 8 8 20q0 16 -17 22q-14 5 -30 7.5t-34 2.5q-42 0 -80 -18t-66.5 -49.5t-45.5 -74.5t-17 -92q0 -27 7.5 -51.5t22.5 -43t38.5 -29.5t56.5 -11q31 0 57.5 9.5t48.5 25t40.5 35.5t32.5 40q3 -22 11.5 -42.5 t22.5 -36t33.5 -24.5t44.5 -9q42 0 80.5 16t69 38.5t52.5 45t33 36.5q6 7 6 15q0 11 -8.5 18t-18.5 7q-12 0 -19 -10q-8 -11 -28 -30t-47 -38.5t-58.5 -33.5t-61.5 -14q-29 0 -45 23t-16 63q18 9 50.5 27t63.5 42.5t54 53t23 58.5q0 27 -22 41t-50 14zM471 284 q0 -11 -11.5 -26t-30.5 -31.5t-42 -33t-47 -29.5q9 34 25 59t33.5 41.5t33.5 24t25 7.5q14 0 14 -12zM284 210q0 -12 -4.5 -28.5t-14.5 -35.5q-21 7 -34 21.5t-13 35.5q0 15 10.5 24.5t28.5 9.5q27 0 27 -27zM168 201q0 -35 19.5 -58t48.5 -39q-26 -33 -60.5 -58.5 t-73.5 -25.5q-36 0 -55.5 25t-19.5 63q0 28 10 60t30.5 59t50 44.5t68.5 17.5q23 0 43 -6q-27 -8 -44 -31t-17 -51z" />
<glyph unicode="&#x178;" d="M382 650q9 0 20.5 3t21 8t16.5 11.5t7 14.5q0 9 -6 18.5t-14.5 16.5t-18 11.5t-17.5 4.5q-20 0 -31.5 -17t-11.5 -36q0 -14 8 -24.5t26 -10.5zM544 650q10 0 21.5 3t21 8t16 11.5t6.5 14.5q0 9 -5.5 18.5t-14 16.5t-18.5 11.5t-18 4.5q-20 0 -31.5 -17t-11.5 -36 q0 -14 8 -24.5t26 -10.5zM117 -18q39 0 83 23.5t86 57.5t78 70l62 62l-40 -74l-38 -75q-31 -62 -70.5 -118.5t-91.5 -100t-117.5 -69.5t-147.5 -26q-20 0 -29.5 -3.5t-13 -8t-3 -8.5t0.5 -6q0 -16 9.5 -20t36.5 -4q92 0 165 30t130.5 78t100 109.5t74.5 124.5l105 200 l102 190q15 29 22 47t7 38q0 27 -30 27q-14 0 -24 -13.5t-20 -36t-20.5 -50.5t-25.5 -56q-26 -38 -58.5 -77t-68 -75t-72 -68t-69.5 -56t-60 -37.5t-44 -13.5q-27 0 -27 30q0 15 9 41q8 23 27 56l41 73l48 81q24 43 44 85t33 80.5t13 68.5q0 36 -21.5 57.5t-75.5 21.5 q-48 0 -87 -27t-66.5 -67.5t-42.5 -88.5t-15 -89q0 -29 6.5 -37.5t20.5 -8.5q10 0 17.5 6t7.5 17q0 9 -1 14.5t-1 10.5q0 30 13 68t35 71.5t52 57t63 23.5q18 0 26 -9.5t8 -26.5q0 -22 -11 -54t-28 -69.5t-38 -78.5l-44 -80l-40 -75q-18 -35 -30 -62q-18 -42 -18 -78 q0 -32 16 -52t47 -20z" />
<glyph unicode="&#x2c6;" horiz-adv-x="320" d="M72 381q8 0 16 9q11 13 25.5 27.5t28.5 26.5l23 19q10 8 13 9q6 -2 26 -21.5t40 -48.5q7 -11 19 -11q9 0 16.5 6.5t7.5 17.5q0 6 -5 14q-23 34 -43 52l-33 29q-11 9 -25 9q-11 0 -21 -4t-18 -10q-19 -14 -40 -38.5t-46 -44.5q-8 -7 -8 -16t7.5 -17t16.5 -8z" />
<glyph unicode="&#x2dc;" horiz-adv-x="395" d="M60 390q10 0 17 7l35 33q16 15 33 15q13 0 24 -6t25 -17q12 -10 28.5 -21t42.5 -11q35 0 65 14t50 41q5 8 5 14q0 11 -8 18.5t-18 7.5q-12 0 -19 -10q-14 -18 -31.5 -26.5t-43.5 -8.5q-12 0 -22 9l-25 20q-12 11 -29.5 18.5t-43.5 7.5q-21 0 -37 -7.5t-28 -17.5 t-21 -20.5t-16 -16.5q-8 -8 -8 -18t7.5 -17.5t17.5 -7.5z" />
<glyph unicode="&#x2000;" horiz-adv-x="393" />
<glyph unicode="&#x2001;" horiz-adv-x="787" />
<glyph unicode="&#x2002;" horiz-adv-x="393" />
<glyph unicode="&#x2003;" horiz-adv-x="787" />
<glyph unicode="&#x2004;" horiz-adv-x="262" />
<glyph unicode="&#x2005;" horiz-adv-x="196" />
<glyph unicode="&#x2006;" horiz-adv-x="131" />
<glyph unicode="&#x2007;" horiz-adv-x="131" />
<glyph unicode="&#x2008;" horiz-adv-x="98" />
<glyph unicode="&#x2009;" horiz-adv-x="157" />
<glyph unicode="&#x200a;" horiz-adv-x="43" />
<glyph unicode="&#x2010;" horiz-adv-x="350" d="M45 255q0 -10 6.5 -17.5t18.5 -7.5h210q12 0 18.5 7.5t6.5 17.5t-6.5 17.5t-18.5 7.5h-210q-12 0 -18.5 -7.5t-6.5 -17.5z" />
<glyph unicode="&#x2011;" horiz-adv-x="350" d="M45 255q0 -10 6.5 -17.5t18.5 -7.5h210q12 0 18.5 7.5t6.5 17.5t-6.5 17.5t-18.5 7.5h-210q-12 0 -18.5 -7.5t-6.5 -17.5z" />
<glyph unicode="&#x2013;" horiz-adv-x="405" d="M45 255q0 -10 7 -17.5t21 -7.5h266q13 0 19.5 7.5t6.5 17.5t-7 17.5t-22 7.5h-264q-14 0 -20.5 -7.5t-6.5 -17.5z" />
<glyph unicode="&#x2014;" d="M45 255q0 -10 6.5 -17.5t18.5 -7.5h425q13 0 19 7.5t6 17.5t-6 17.5t-19 7.5h-425q-12 0 -18.5 -7.5t-6.5 -17.5z" />
<glyph unicode="&#x2018;" horiz-adv-x="170" d="M131 648q-10 0 -18.5 -6.5t-8.5 -17.5q0 -3 3.5 -21t9.5 -42t12.5 -47.5t12.5 -36.5q6 -14 21 -14q10 0 18.5 7t8.5 18q0 7 -2 11q-5 9 -9.5 24.5t-9 33.5t-7.5 37l-7 34q-2 11 -9 15.5t-15 4.5z" />
<glyph unicode="&#x2019;" horiz-adv-x="235" d="M211 645q-8 0 -15.5 -4.5t-9.5 -15.5q-3 -13 -10 -30t-15.5 -35t-17.5 -35l-15 -29q-3 -6 -3 -12q0 -11 8 -17.5t19 -6.5q14 0 22 14l14 26l22 42q11 23 19 45t8 34q0 11 -8 17.5t-18 6.5z" />
<glyph unicode="&#x201a;" horiz-adv-x="280" d="M209 137q-8 0 -15.5 -4.5t-9.5 -15.5q-3 -13 -10 -30t-15.5 -35t-17.5 -35l-15 -29q-3 -6 -3 -12q0 -11 8 -17.5t19 -6.5q14 0 22 14l14 26l22 42q11 23 19 45t8 34q0 11 -8 17.5t-18 6.5z" />
<glyph unicode="&#x201c;" horiz-adv-x="200" d="M166 648q-10 0 -18.5 -6.5t-8.5 -17.5q0 -4 3 -22l9 -40q5 -23 12 -46.5t14 -38.5q6 -14 21 -14q10 0 18.5 7t8.5 18q0 7 -2 11q-5 9 -9.5 24.5t-9 33.5t-8.5 37l-6 34q-2 11 -9 15.5t-15 4.5zM51 648q-10 0 -18.5 -6.5t-8.5 -17.5q0 -3 3.5 -21t9.5 -42t12.5 -47.5 t12.5 -36.5q6 -14 21 -14q10 0 18.5 7t8.5 18q0 7 -2 11q-5 9 -9.5 24.5t-9 33.5t-7.5 37l-7 34q-2 11 -9 15.5t-15 4.5z" />
<glyph unicode="&#x201d;" horiz-adv-x="375" d="M211 645q-8 0 -15.5 -4.5t-9.5 -15.5q-3 -13 -10 -30t-15.5 -35t-17.5 -35l-15 -29q-3 -6 -3 -12q0 -11 8 -17.5t19 -6.5q14 0 22 14l14 26l22 42q11 23 19 45t8 34q0 11 -8 17.5t-18 6.5zM336 645q-8 0 -15.5 -4.5t-9.5 -15.5q-3 -13 -10 -30t-15.5 -35t-17.5 -35 l-15 -29q-3 -6 -3 -12q0 -11 8 -17.5t19 -6.5q14 0 22 14q4 8 14.5 27t21.5 41.5t19 44.5t8 34q0 11 -8 17.5t-18 6.5z" />
<glyph unicode="&#x201e;" horiz-adv-x="375" d="M209 137q-8 0 -15.5 -4.5t-9.5 -15.5q-3 -13 -10 -30t-15.5 -35t-17.5 -35l-15 -29q-3 -6 -3 -12q0 -11 8 -17.5t19 -6.5q14 0 22 14l14 26l22 42q11 23 19 45t8 34q0 11 -8 17.5t-18 6.5zM334 137q-8 0 -15.5 -4.5t-9.5 -15.5q-3 -13 -10 -30t-15.5 -35t-17.5 -35 l-15 -29q-3 -6 -3 -12q0 -11 8 -17.5t19 -6.5q14 0 22 14q4 8 14.5 27t21.5 41.5t19 44.5t8 34q0 11 -8 17.5t-18 6.5z" />
<glyph unicode="&#x2022;" horiz-adv-x="415" d="M345 240q0 22 -8 43t-24.5 37t-42 25.5t-59.5 9.5t-60.5 -12t-44.5 -31.5t-27 -43.5t-9 -49q0 -22 7.5 -42.5t23 -36.5t39.5 -25.5t56 -9.5q36 0 64 12t46.5 31t28.5 43t10 49z" />
<glyph unicode="&#x2026;" horiz-adv-x="430" d="M131 12q0 10 -7 17q1 2 1.5 2.5t1.5 2.5q-13 18 -25 25.5t-23 7.5q-20 0 -33.5 -18.5t-13.5 -37.5q0 -14 8 -23.5t25 -9.5q26 0 46 11.5t20 22.5zM268 12q0 10 -7 17q1 2 1.5 2.5t1.5 2.5q-13 18 -25 25.5t-23 7.5q-20 0 -33.5 -18.5t-13.5 -37.5q0 -14 8 -23.5t25 -9.5 q26 0 46 11.5t20 22.5zM405 12q0 10 -7 17q1 2 1.5 2.5t1.5 2.5q-13 18 -25 25.5t-23 7.5q-20 0 -33.5 -18.5t-13.5 -37.5q0 -14 8 -23.5t25 -9.5q26 0 46 11.5t20 22.5z" />
<glyph unicode="&#x202f;" horiz-adv-x="157" />
<glyph unicode="&#x2039;" horiz-adv-x="400" d="M354 455q-6 0 -13 -4q-20 -13 -55 -29l-75 -36l-80 -37q-40 -19 -70 -37q-23 -14 -36 -27t-13 -24q0 -13 4.5 -27t17.5 -30q17 -22 45 -46t59 -47l62 -44l52 -37q8 -5 15 -5q11 0 18.5 8t7.5 18q0 12 -11 19l-66 44q-37 26 -71.5 53t-58.5 50.5t-24 35.5q0 6 17.5 17 t44.5 24l62 30l68 32l64 29q30 14 49 24q12 7 12 20q0 10 -7 18t-18 8z" />
<glyph unicode="&#x203a;" horiz-adv-x="375" d="M35 43q6 0 13 4q19 13 54 29l76 36l80 37q40 19 70 37q23 14 36 27t13 24q0 13 -4.5 27t-17.5 30q-17 22 -45 46t-60 47l-61 44l-52 37q-8 5 -15 5q-11 0 -18.5 -8t-7.5 -18q0 -12 11 -19l65 -44q38 -26 72.5 -53t58.5 -50.5t24 -35.5q0 -6 -17.5 -17t-45.5 -24l-61 -30 l-68 -32l-64 -29q-30 -14 -49 -24q-12 -7 -12 -20q0 -10 7 -18t18 -8z" />
<glyph unicode="&#x205f;" horiz-adv-x="196" />
<glyph unicode="&#x2122;" horiz-adv-x="436" d="M120 582q17 2 30 4.5t26 4.5l-17 -37l-20 -46l-19 -42q-8 -19 -11 -28q0 -1 -0.5 -1.5t-0.5 -1.5q0 -5 3.5 -7.5t7.5 -2.5q7 0 10 7q3 9 13 31l20 47l22 50q11 23 16 35q14 2 28 5t31 5q9 0 9 9q0 4 -3 7.5t-8 3.5q-21 -3 -37.5 -6t-32.5 -5.5t-32.5 -5.5t-36.5 -6 q-9 0 -9 -9q0 -4 3 -7.5t8 -3.5zM220 426q4 0 7 4l21 38l30 54l29 49q13 21 15 21q1 0 1 -10v-23q0 -24 0.5 -56t2.5 -55q1 -9 3.5 -16t10.5 -7q13 0 24 23q6 12 13 28l15 33l14 33q7 16 12 29q5 12 9 19.5t6 7.5q1 0 1 -13q0 -12 -0.5 -32t-1.5 -43t-1.5 -46t-0.5 -40 q0 -9 8 -9t10 11q1 13 1.5 36t0.5 47v45v30q0 13 -4.5 23.5t-12.5 10.5t-11 -6l-9 -17l-15 -27l-14 -32q-8 -17 -14 -34l-12 -29q-5 -13 -8.5 -20.5t-5.5 -7.5t-2.5 16t-1 39.5t-0.5 48.5q0 26 -1 45q0 9 -2.5 16.5t-8.5 7.5q-5 0 -11 -6t-13 -15q-12 -15 -26 -39l-28 -46 l-24 -43q-11 -20 -17 -29q-1 -1 -1 -4q0 -4 3.5 -7t8.5 -3z" />
</font>
</defs>
</svg>
